<?xml version="1.0" standalone="no"?>
<!DOCTYPE svg PUBLIC "-//W3C//DTD SVG 1.1//EN" "http://www.w3.org/Graphics/SVG/1.1/DTD/svg11.dtd" >
<svg>
<metadata>
Created by FontForge 20110222 at Mon Mar  7 13:33:07 2011
 By www-data
Copyright (c) 2010, Sebastian Kosch (sebastian@aldusleaf.org),
with Reserved Font Name "Crimson".
This Font Software is licensed under the SIL Open Font License, Version 1.1.
This license is available with a FAQ at: http://scripts.sil.org/OFL
</metadata>
<defs>
<font id="Crimson-Semibold" horiz-adv-x="0" >
  <font-face 
    font-family="Crimson"
    font-weight="600"
    font-stretch="normal"
    units-per-em="1024"
    panose-1="2 0 7 3 0 0 0 0 0 0"
    ascent="717"
    descent="-307"
    x-height="432"
    cap-height="662"
    bbox="-19 -231 1071.87 865"
    underline-thickness="50"
    underline-position="-100"
    stemh="33"
    stemv="103"
    unicode-range="U+0020-20AC"
  />
    <missing-glyph />
    <glyph glyph-name="ellipsis" unicode="&#x2e;&#x2e;&#x2e;" horiz-adv-x="771" 
d="M743 56c0 -36 -29 -68 -66 -68c-38 0 -68 32 -68 68s31 67 68 67c36 0 66 -31 66 -67zM453 56c0 -36 -29 -68 -66 -68c-38 0 -68 32 -68 68s31 67 68 67c36 0 66 -31 66 -67zM163 56c0 -36 -29 -68 -66 -68c-38 0 -68 32 -68 68s31 67 68 67c36 0 66 -31 66 -67z" />
    <glyph glyph-name="space" unicode=" " horiz-adv-x="209" 
 />
    <glyph glyph-name="exclam" unicode="!" horiz-adv-x="178" 
d="M92 642c31 0 53 -29 53 -66c0 -28 -22 -201 -36 -375c-2 -20 -10 -28 -28 -32c-6 -2 -11 10 -13 22c-15 187 -35 335 -35 386c0 37 25 65 59 65zM23 56c0 37 31 64 66 64c37 0 66 -28 66 -64s-28 -68 -64 -68c-34 0 -68 30 -68 68z" />
    <glyph glyph-name="quotedbl" unicode="&#x22;" horiz-adv-x="321" 
d="M83 698h16c16 0 30 -6 30 -65c0 -56 -25 -117 -31 -184c-1 -10 -11 -15 -18 -15c-8 0 -17 5 -18 13c-9 90 -34 147 -34 188c0 18 29 63 55 63zM246 698h17c16 0 29 -6 29 -65c0 -56 -27 -117 -33 -184c-1 -10 -11 -15 -18 -15s-14 5 -15 13c-9 90 -34 147 -34 188
c0 18 28 63 54 63z" />
    <glyph glyph-name="numbersign" unicode="#" horiz-adv-x="472" 
d="M305 24c0 0 3 -9 -30 -9h-18c-14 0 -13 9 -13 9l22 149h-88l-22 -149c0 -1 2 -9 -31 -9h-18c-14 0 -14 9 -14 9l23 149h-84s-6 0 -6 10c0 4 1 22 8 46c2 6 7 5 7 5h84l12 80h-105s-6 1 -6 11c0 4 1 22 8 46c2 6 7 5 7 5h105l24 154c0 1 4 9 52 9c14 0 10 -9 10 -9
l-23 -154h88l24 154c0 1 4 9 52 9c14 0 10 -9 10 -9l-24 -154h80s7 3 7 -7c0 -8 -4 -32 -9 -48c-2 -6 -6 -7 -6 -7h-81l-13 -80h102s7 3 7 -7c0 -8 -4 -32 -9 -48c-2 -6 -6 -6 -6 -6h-102zM276 234l12 80h-88l-13 -80h89z" />
    <glyph glyph-name="dollar" unicode="$" horiz-adv-x="457" 
d="M265.5 675.5c8 0 37 -0.5 37 -7.5l-117 -714c-9 0 -37 2 -37 9zM230 643.5c62.5 0 124.5 -20 149 -24c7.5 -40 16.5 -99 16.5 -148.5c-2 -7 -11 -9 -18.5 -9c-9.5 0.5 -21.3828 0.922852 -22 9c-2.5 22 -42.5 124.5 -127 124.5c-60 0 -93.5 -32 -93.5 -89.5
c0 -58 54.5664 -96.4512 120 -136c86 -52 177 -96.7744 177 -199.5c0 -106.5 -106.5 -179 -213 -179c-63.5 0 -131.5 16.5 -168.5 24c-13 42.5 -22.5 106.5 -25 155c-0.5 7.5 11.5 9 17.5 9c9 0 21.5 -3 26 -6c10 -41 49 -135 153 -135c53 0 102 37.5 102 104.5
c0 61.5 -57.1436 94.1641 -108.5 124.5c-90.8115 51.5967 -182 98 -182 202.5c0 102 100.5 173.5 197 173.5z" />
    <glyph glyph-name="percent" unicode="%" horiz-adv-x="645" 
d="M169 613c-50 0 -66 -60 -66 -110c0 -64 26 -140 80 -140c50 0 64 58 64 108c0 64 -21 142 -78 142zM176 643c88 0 153 -71 153 -157c0 -82 -63 -155 -153 -155c-86 0 -153 69 -153 155s65 157 153 157zM463 278c-50 0 -68 -59 -68 -109c0 -64 26 -141 80 -141
c50 0 64 59 64 109c0 64 -19 141 -76 141zM469 309c88 0 152 -71 152 -157c0 -82 -62 -155 -152 -155c-86 0 -154 69 -154 155s66 157 154 157zM593 626l-482 -622c-4 -6 -22 -12 -34 -12c-20 0 -27 8 -28 12l482 624c5 6 13 13 19 13c26 0 33 -7 43 -15z" />
    <glyph glyph-name="ampersand" unicode="&#x26;" horiz-adv-x="681" 
d="M359 98c-47.5 50 -146 203 -146 203c-39.5 -27.5 -74.5 -60.5 -74.5 -133.5c0 -84.5 57 -119.5 117.5 -119.5c39.5 0 80.5 24.5 103 50zM287.5 611.5c-43 0 -67.5 -36 -67.5 -78c0 -46.5 27.5 -96.5 50.5 -137.5c52 33 85 62.5 85 131c0 38 -23 84.5 -68 84.5zM286.5 656
c94.9971 0.541992 156.499 -45.499 156.499 -117.499c0 -90 -68.5 -142 -144.5 -189c33 -54.5 89 -129 129.5 -177c30.5 42 55 83 55 94c0 21.5 -39 15 -45.5 18c-3 7.5 -3.5 24.5 1 27.5l91 -0.5c35 0 65 2 110.5 4c3.70215 -2.06445 4.77148 -9.75781 4.77148 -15.001
c0 -7.7041 -0.334961 -17 -6.77051 -18c-12 -0.5 -52.5 -7.5 -68 -18c-10 -6.5 -62.5 -88 -106.5 -137.5c26 -27.5 55 -63.5 83.5 -63.5c25.5 0 52.5 35.5 59 49c10 0 25.5 -12.5 25.5 -21c-4 -10.5 -47.5 -93 -121.5 -93c-66.5 0 -116.5 63.5 -116.5 63.5
c-48 -42 -105.5 -65.5 -172 -65.5c-105 0 -196 52 -196 163.5c0 98.5 87 153.5 156 192c-25 43 -58 94.5 -58 157.5c0 91.5 74 146 163 146.5z" />
    <glyph glyph-name="quotesingle" unicode="'" horiz-adv-x="201" 
d="M105 698h17c16 0 30 -6 30 -65c0 -56 -28 -117 -34 -184c-1 -10 -11 -15 -18 -15s-14 5 -15 13c-9 90 -34 147 -34 188c0 18 28 63 54 63z" />
    <glyph glyph-name="parenleft" unicode="(" horiz-adv-x="281" 
d="M121 305c0 -220 98 -386 136 -405c2 -1 2 -4 2 -6c0 -7 -5 -23 -12 -23c-47 0 -220 180 -220 434c0 256 164 443 220 443c7 0 12 -19 12 -26c0 -2 0 -2 -1 -2c-59 -34 -137 -212 -137 -415z" />
    <glyph glyph-name="parenright" unicode=")" horiz-adv-x="282" 
d="M160 305c0 203 -78 381 -136 415c-1 0 -2 0 -2 2c0 7 6 26 13 26c58 0 220 -191 220 -443c0 -247 -168 -434 -220 -434c-7 0 -13 16 -13 23c0 2 0 5 2 6c39 19 136 189 136 405z" />
    <glyph glyph-name="asterisk" unicode="*" horiz-adv-x="415" 
d="M294 618c17 17 43 21 57 6c15 -16 13 -40 -5 -57c-31 -29 -68 -38 -97 -65c-2 -1 -5 -7 -4 -11s5 -7 8 -8c35 -16 71 -12 110 -31c22 -11 33 -34 23 -52c-10 -19 -34 -25 -56 -13c-37 21 -57 54 -92 73c-2 1 -8 3 -11 1c-4 -2 -6 -6 -6 -9c-5 -38 11 -71 5 -114
c-4 -24 -23 -43 -43 -39c-21 4 -33 25 -29 49c8 42 33 71 40 110c0 2 1 8 -1 11c-3 3 -9 2 -12 1c-38 -7 -63 -32 -106 -39c-24 -4 -48 8 -51 29s13 40 38 43c42 5 78 -10 117 -5c2 0 9 2 10 6s-1 9 -2 11c-18 34 -50 51 -70 90c-11 22 -7 47 12 56c20 9 42 0 52 -23
c18 -39 15 -76 32 -112c0 -2 4 -9 8 -9s8 4 10 6c26 28 33 64 63 95z" />
    <glyph glyph-name="plus" unicode="+" horiz-adv-x="531" 
d="M297 211v-188s-7 -10 -52 -16c-3 0 -4 -1 -6 -1c-6 0 -6 4 -6 8v195c0 2 -1 5 -6 5h-195s-6 0 -6 10c0 4 1 25 8 49c2 6 7 5 7 5h187c3 0 5 4 5 6v186s-1 5 5 7c24 7 45 8 49 8c10 0 10 -6 10 -6v-196c0 -3 1 -5 4 -5h196c4 0 8 1 8 -6c0 -9 -4 -30 -10 -52
c-2 -6 -7 -6 -7 -6h-187c-3 0 -4 -1 -4 -3z" />
    <glyph glyph-name="comma" unicode="," horiz-adv-x="213" 
d="M92 -16c0 33 -30 50 -30 85c0 24 27 63 76 63c8 0 22 0 32 -6c7 -14 14 -46 14 -70c0 -16 -6 -41 -8 -48c-21 -74 -50 -114 -128 -174h-1c-6 0 -23 19 -23 28c0 7 68 45 68 122z" />
    <glyph glyph-name="hyphen" unicode="-" horiz-adv-x="324" 
d="M31 207c0 48 9 57 12 57h1l241 12h1c2 0 6 -1 6 -9c0 -49 -13 -60 -13 -60l-241 -11s-7 -1 -7 11z" />
    <glyph glyph-name="period" unicode="." horiz-adv-x="191" 
d="M163 56c0 -36 -29 -68 -66 -68c-38 0 -68 32 -68 68s31 67 68 67c36 0 66 -31 66 -67z" />
    <glyph glyph-name="slash" unicode="/" horiz-adv-x="416" 
d="M395 755l-296 -767c-2 -7 -25 -23 -60 -23c-15 0 -18 7 -18 7l296 767c7 15 19 22 49 22c14 0 25 -4 29 -6z" />
    <glyph glyph-name="zero" unicode="0" horiz-adv-x="503" 
d="M143 316c0 -157 49 -275 111 -275c68 0 107 123 107 280s-43 269 -107 269c-66 0 -111 -117 -111 -274zM27 315c0 174 106 318 226 318s223 -144 223 -318s-103 -318 -223 -318s-226 144 -226 318z" />
    <glyph glyph-name="one" unicode="1" horiz-adv-x="400" 
d="M76.25 482.5c-8 4 -16.5 18 -16.5 24.5c0 2 0 7 2 9c107 71 197.5 126.5 200.5 126.5h2c6 0 11 -14 12 -19c0 0 -9.5 -31 -9.5 -94v-397.5c0 -33 1 -53.5 8 -80.5c3 -11 54 -22 62 -22c3 0 3.5 -12.5 3.5 -19.5c0 -5 -0.5 -11.5 -1.5 -13.5c-40 2 -86 6.5 -126 6.5
s-84 -4.5 -124 -6.5c-5 5 -5 33 0 33c12 0 62.5 12 65.5 23c5 20 6 38 6 57v348c0 52 -8 58 -17 58c-13 0 -48.5 -22.5 -67 -33z" />
    <glyph glyph-name="two" unicode="2" horiz-adv-x="465" 
d="M236.25 642c96 0 158.5 -75.5 158.5 -167.5c0 -143.5 -153 -284.5 -254 -379.5c-3 -3 -1.75 -8 3 -8h182.25c49.5 0 61 37 74 83c1.99512 7.02441 9.5 9 15.5 9c5.5 0 16 -1.5 20.75 -5c-10.583 -49.2266 -23.7412 -107.268 -33.5 -159c-1.5 -10.5 -8.75 -15 -16 -15
h-347c-6.75 4 -10.75 18.5 -11.25 31.5c120.5 127.5 253.25 312 253.25 423.5c0 64 -36 110.5 -91.5 110.5c-76 0 -110.5 -63 -120.5 -77c-8 0 -24 11 -24 20.5c12 31.5 71.5 133 190.5 133z" />
    <glyph glyph-name="three" unicode="3" horiz-adv-x="455" 
d="M244.5 642c48 0 118.999 -39.5 118.999 -121.5c0 -68 -47 -116 -84 -142c46.5 -9.5 142.5 -66.5 142.5 -168.5c0 -135.5 -126.5 -214.5 -255 -214.5c-63 0 -97.5 15 -123.5 32c-4.5 6 -8 20 -8 29c0 26.5 10.5 53.5 39.5 53.5c23.5 0 39.5 -23 57.5 -40.5
c21.3652 -20.7812 46.3066 -28 73.001 -28c54.5 0 106 41.5 106 142.5c0 78 -49.5 136 -116 136c-13.5 0 -31.5 -1 -60 -6c-4 5 -7 20 -7 28c0 4 0.5 8.5 2.5 12.5c81.5 13.5 136.5 60.5 136.5 140c0 53 -38.5 83 -74 83c-58.5 0 -87.5 -39 -95.5 -46.5
c-7.5 0 -17.5 17.5 -17.5 26.5c34 47.5 86 84.5 164 84.5z" />
    <glyph glyph-name="four" unicode="4" horiz-adv-x="473" 
d="M369.25 644.5c6 0 15.5 -2 15.5 -10v-396.5h51.75c11 0 15 -18.5 15 -54c0 -6 -5.5 -9 -7 -10h-59.75v-172.5s-13.5 -7 -54 -7c-29 0 -47.5 2.5 -47.5 10.5v169h-251c-7 8 -11 22.5 -11 39.5c60.5 72.5 270 352 323 418c6.5 8 17 13 25 13zM283.25 238v233.5
c0 3 -2 9 -4 9l-2 -2l-173 -228.5c-1 -1 -1 -2 -1 -3c0 -4 3 -9 7 -9h173z" />
    <glyph glyph-name="five" unicode="5" horiz-adv-x="451" 
d="M118 630.5c71 1 208.499 1.49902 244.499 9.49902c3.5 -5 6.5 -13 6.5 -27.5c0 -17 -3.5 -50.5 -8.5 -64.5c-88.5537 -8.52734 -182 -7 -202 -9.10156c-7.81934 -0.742188 -9.12988 -3.84082 -10 -8.39746c-10.5 -54 -19.5 -109 -24 -135.5
c22.5 7 55.5088 11.4473 87.5 11.4473c102.5 0 205 -83.4473 205 -185.947c0 -131 -111 -224.5 -252 -224.5c-63 0 -99.5 15 -125.5 32c-4.5 6 -8 20 -8 29c0 26.5 10.5 53.5 39.5 53.5c23.5 0 39.5 -23 57.5 -40.5c21.3652 -20.7812 48.3066 -28 75.001 -28
c61 0 103 57 103 139.5c0 76.5 -42.5 144 -129 144c-42.2119 0 -80 -8.5 -94 -12.5c-4 2 -12 7 -17.5 14c11 67.5 44.5 257.5 52 303.5z" />
    <glyph glyph-name="six" unicode="6" horiz-adv-x="457" 
d="M138.75 200c0 -90 35.5 -160.5 96.5 -160.5c51 0 86 46 86 136c0 85 -30.5 147 -107.5 147c-27.5 0 -57 -16.5 -64 -36.5c-6 -18.5 -10 -36 -11 -86zM228.75 -6c-109 0 -200.5 92 -200.5 211c0 220 190.5 372 361.5 441c12 -1.5 19 -22 20.5 -30.5
c-113 -49 -214 -132 -249 -251.5c-2.5 -8 -1 -17.5 3 -14.5c13.5 8.5 54 24.5 87 24.5c101.5 0 178.5 -91 178.5 -183.5c0 -106 -95 -196.5 -201 -196.5z" />
    <glyph glyph-name="seven" unicode="7" horiz-adv-x="462" 
d="M132.25 544.5c-43 0 -56.2451 -47.2354 -68 -83c-2 -6 -31 -8.5 -39.5 -2.5c11 47 30.5 126.5 37.5 164.5c1.62012 7.98438 8.5 12 17.5 12h292c26 0 61 3 67 3s7 -4 7 -9c0 -13 -12.8516 -36.7695 -28 -67l-268.5 -569c-2.5 -1.5 -5.5 -2 -9 -2
c-16.5 0 -35.5 17 -35.5 31l260 522h-232.5z" />
    <glyph glyph-name="eight" unicode="8" horiz-adv-x="459" 
d="M230.5 36.5c55 0 90 41.5 90 99.5c0 73.5 -92.5 131.5 -114.5 146.5c-3.5 2.5 -7.5 4 -10 4c-1.5 0 -3 0 -4.5 -1c-37.5 -23 -53.5 -72 -53.5 -127.5c0 -67.5 39.5 -121.5 92.5 -121.5zM229 594c-44.5 0 -72 -38.5 -72 -101c0 -60 52 -94 87 -117
c2.44238 -1.58203 6.5 -3 9.5 -3c2.5 0 4 0.5 6 2c32.5 25 50 62 50 109.5c0 58.5 -28 109.5 -80.5 109.5zM230.5 638c92 0 180 -53 180 -148c0 -72 -71.5 -123 -111 -147.5c-3 -1 -2.5 -5 0 -6.5c42.5 -26.5 128.5 -91 128.5 -167.5c0 -104 -98.5 -176 -202.5 -176
c-106 0 -194 55.5 -194 164c0 91 88 139 123.5 160c2.5 1.5 2.5 5 -0.5 7c-38.5 27.5 -99.5 75.5 -99.5 159.5c0 86.5 85.5 155 175.5 155z" />
    <glyph glyph-name="nine" unicode="9" horiz-adv-x="454" 
d="M316.75 440c0 90 -34.5 160.5 -98 160.5c-51 0 -83.5 -48 -83.5 -138c0 -83 31.5 -145 107 -145c27.5 0 57 16.5 64 36.5c6 18.5 9.5 36 10.5 86zM227.25 646c109 0 200 -92 200 -211c0 -220 -194 -380.5 -350.5 -441c-12 1.5 -20 25 -20 31.5
c99.5 41.5 202.5 131 237.5 250.5c2.5 8 1 17.5 -3 14.5c-13.5 -11 -54 -23.5 -82.5 -23.5c-102 0 -182 84 -182 182c0 106 94.5 197 200.5 197z" />
    <glyph glyph-name="colon" unicode=":" horiz-adv-x="190" 
d="M163 365c0 -36 -29 -69 -66 -69c-38 0 -68 33 -68 69s31 66 68 66c36 0 66 -30 66 -66zM163 56c0 -36 -29 -68 -66 -68c-38 0 -68 32 -68 68s31 67 68 67c36 0 66 -31 66 -67z" />
    <glyph glyph-name="semicolon" unicode=";" horiz-adv-x="215" 
d="M90 -16c0 33 -30 50 -30 85c0 24 27 63 76 63c8 0 22 0 32 -6c7 -14 14 -46 14 -70c0 -16 -6 -41 -8 -48c-21 -74 -50 -114 -128 -174h-1c-6 0 -23 19 -23 28c0 7 68 45 68 122zM188 365c0 -36 -29 -69 -66 -69c-38 0 -68 33 -68 69s31 66 68 66c36 0 66 -30 66 -66z" />
    <glyph glyph-name="less" unicode="&#x3c;" horiz-adv-x="464" 
d="M439 40c0 -7 -10 -55 -16 -55c-1 0 -3 1 -5 2l-375 190c-15 8 -18 23 -18 40c0 11 8 19 18 24l371 187c2 1 4 2 5 2c3 0 10 -15 17 -52c1 -6 -3 -9 -3 -9l-322 -160l325 -163s3 -1 3 -6z" />
    <glyph glyph-name="equal" unicode="=" horiz-adv-x="528" 
d="M499 172c0 -9 -4 -31 -10 -53c-2 -6 -6 -6 -6 -6h-445s-7 0 -7 10c0 4 2 25 9 49c2 6 7 5 7 5h444c4 0 8 2 8 -5zM31 265c0 0 5 54 15 54h449c2 0 4 -1 4 -5c0 -9 -4 -31 -10 -53c-2 -6 -6 -6 -6 -6h-445s-7 0 -7 10z" />
    <glyph glyph-name="greater" unicode="&#x3e;" horiz-adv-x="466" 
d="M26 40c0 5 3 6 3 6l325 163l-322 160s-4 3 -3 9c7 37 14 52 17 52c1 0 3 -1 5 -2l371 -187c10 -5 18 -13 18 -24c0 -17 -3 -32 -18 -40l-375 -190c-2 -1 -4 -2 -5 -2c-6 0 -16 48 -16 55z" />
    <glyph glyph-name="question" unicode="?" horiz-adv-x="326" 
d="M76 644c114 0 227 -70 227 -184c0 -92 -44 -129 -110 -162c-34 -17 -74 -34 -80 -56c-5 -16 0 -46 -5 -55c-5 -8 -15 -11 -26 -11c-10 0 -14 52 -14 86c0 70 15 86 57 114c32 22 111 46 111 106c0 39 -32 69 -71 69c-31 0 -49 -10 -80 -10s-60 22 -60 53c0 15 3 28 6 38
c13 6 27 12 45 12zM158 56c0 -36 -29 -68 -66 -68c-38 0 -68 32 -68 68s31 67 68 67c36 0 66 -31 66 -67z" />
    <glyph glyph-name="at" unicode="@" horiz-adv-x="781" 
d="M698 214c0 167 -106 310 -277 310c-181 0 -327 -125 -327 -301c0 -197 99 -349 350 -349c30 0 64 16 70 18c0 0 2 -9 2 -10c0 -23 -41 -53 -127 -53c-216 0 -362 194 -362 356c0 247 182 392 405 392c200 0 322 -186 322 -344c0 -193 -104 -246 -182 -246
c-70 0 -116 52 -116 93c0 2 -4 -1 -5 -2c-16 -30 -81 -85 -141 -85c-75 0 -114 80 -114 148c0 133 102 269 280 269c20 0 95 -9 95 -9c-4 -26 -6 -43 -7 -53c-4 -40 -23 -214 -23 -214c-1 -10 -2 -20 -2 -28c-1 -62 20 -76 43 -76c100 0 116 130 116 184zM472 334
c0 13 -3 25 -42 25c-66 0 -140 -75 -140 -216c0 -70 23 -90 48 -90c54 0 116 100 118 123l14 146s2 6 2 12z" />
    <glyph glyph-name="A" unicode="A" horiz-adv-x="736" 
d="M391 660l210 -524c14 -37 21 -53 30 -73c10 -24 62 -33 70 -33c3 0 4 -12 4 -18c0 -5 0 -12 -2 -15c-40 2 -82 6 -126 6c-46 0 -89 -4 -130 -6c-5 5 -5 33 0 33c12 0 52 8 58 20c2 4 3 7 3 13c0 20 -14 56 -19 69c-6 14 -35 93 -35 93s-4 4 -7 4c-32 2 -61 2 -86 2
c-41 0 -74 -1 -114 -3c-2 0 -6 -3 -6 -4l-38 -93c-11 -30 -19 -51 -19 -65c0 -13 6 -17 11 -20c14 -9 54 -16 62 -16c5 0 3 -27 1 -33c-40 2 -71 6 -115 6c-46 0 -66 -4 -112 -6c-2 2 -4 9 -4 15s0 18 2 18c12 0 62 12 72 28c18 28 31 60 38 78l186 450c12 32 27 79 54 79
c4 0 10 -3 12 -5zM271 288c23 -2 49 -3 72 -3c31 0 51 1 82 3c2 0 2 4 2 4l-76 200l-82 -200s0 -4 2 -4z" />
    <glyph glyph-name="B" unicode="B" horiz-adv-x="586" 
d="M437 176c0 75 -36 147 -150 147c-23 0 -42 -2 -62 -5c-3 -2 -8 -14 -8 -20v-186c0 -10 2 -44 12 -52s52 -10 64 -10c46 0 144 14 144 126zM104 143v378c0 18 0 60 -7 82c-5 17 -56 25 -68 25c-2 0 -4 8 -4 15s2 16 4 18c0 0 66 -3 133 -3c93 0 87 1 146 1
c88 0 219 -42 219 -171c0 -80 -76 -122 -92 -128c-8 -3 -5 -6 -4 -6c36 -6 128 -65 128 -167c0 -115 -102 -188 -254 -187l-142 1c-67 0 -133 -4 -133 -4c-1 1 -3 7 -3 16c0 6 1 17 3 17c12 0 61 9 67 22c6 18 7 54 7 91zM333 378c36 8 73 32 73 98c0 92 -43 135 -115 135
c-24 0 -50 -1 -64 -5c-4 -1 -8 -7 -8 -11c-1 -27 -2 -96 -2 -96v-117c0 -6 25 -10 60 -10c18 0 43 2 56 6z" />
    <glyph glyph-name="C" unicode="C" horiz-adv-x="639" 
d="M613 182c0 -11 -26 -140 -38 -146c-60 -29 -140 -42 -232 -42c-177 0 -318 151 -318 328c0 187 141 345 329 345c66 0 163 -11 236 -27c4 -1 9 -136 9 -146s-13 -15 -24 -15c-6 0 -10 2 -14 4c-8 35 -49 135 -203 135c-138 0 -207 -135 -207 -275
c0 -156 77 -301 235 -301c64 0 113 26 141 56c31 32 41 93 47 93c10 0 36 -2 39 -9z" />
    <glyph glyph-name="D" unicode="D" horiz-adv-x="708" 
d="M162 658h173c231 0 346 -162 346 -322c0 -184 -123 -339 -347 -339c-44 0 -119 4 -171 4s-133 -4 -133 -4c-1 1 -3 7 -3 16c0 6 1 17 3 17c12 0 61 9 67 22c6 18 7 54 7 91v378c0 18 0 60 -7 82c-5 17 -56 25 -68 25c-2 0 -4 8 -4 15s2 16 4 18c0 0 66 -3 133 -3z
M217 530v-392c0 -30 1 -58 11 -74c14 -14 106 -16 122 -16c132 0 203 97 203 292c0 138 -68 268 -210 268h-5c-24 0 -97 -1 -108 -16s-13 -44 -13 -62z" />
    <glyph glyph-name="E" unicode="E" horiz-adv-x="584" 
d="M162 657c93 0 214 7 323 7c7 -50 20 -97 29 -142c-3 -3 -14 -5 -21 -5s-12 2 -14 7c-24 65 -75 89 -128 89h-52c-41 0 -74 -1 -76 -13c-4 -19 -6 -58 -6 -81v-157c0 -5 22 -6 44 -6h52c96 0 79 -1 96 65c1 5 9 7 16 7s16 -2 19 -5v-189c-2 -2 -12 -4 -19 -4s-14 3 -16 8
c-15 57 -19 54 -28 60c-11 7 -54 8 -92 8c-28 0 -72 1 -72 -8v-155c0 -19 2 -61 9 -81c4 -10 26 -13 68 -13h37c38 0 90 6 119 21c19 10 51 47 67 96c1 4 7 6 14 6c10 0 25 -3 28 -6c-19 -54 -47 -125 -54 -169c-109 0 -252 7 -342 4c-67 1 -133 -4 -133 -4c-1 1 -3 7 -3 16
c0 6 1 17 3 17c12 0 61 9 67 22c6 18 7 54 7 91v378c0 18 0 60 -7 82c-5 17 -56 25 -68 25c-2 0 -4 8 -4 15s2 16 4 18c0 0 66 -4 133 -4z" />
    <glyph glyph-name="F" unicode="F" horiz-adv-x="538" 
d="M167 3c-67 1 -137 -6 -137 -6c-1 1 -3 7 -3 16c0 6 1 17 3 17c12 0 61 9 67 22c6 18 7 54 7 91v378c0 18 0 60 -7 82c-5 17 -56 25 -68 25c-2 0 -4 8 -4 15s2 16 4 18c0 0 65 -4 132 -4c92 -1 214 7 323 7c7 -50 20 -97 29 -142c-3 -3 -14 -5 -21 -5s-12 2 -14 7
c-24 65 -75 89 -128 89h-52c-41 0 -74 -1 -76 -13c-4 -19 -5 -58 -5 -81v-157c0 -5 22 -6 44 -6h51c96 0 79 -1 96 65c1 5 9 7 16 7s16 -2 19 -5v-189c-2 -2 -12 -4 -19 -4s-14 3 -16 8c-15 57 -19 54 -28 60c-11 7 -54 8 -92 8c-28 0 -71 1 -71 -8v-157c0 -36 1 -57 11 -83
c6 -16 71 -28 79 -28c3 0 5 -11 5 -17c0 -5 -1 -13 -3 -16c-40 2 -98 6 -142 6z" />
    <glyph glyph-name="G" unicode="G" horiz-adv-x="702" 
d="M25 322c0 187 145 345 329 345c66 0 158 -18 232 -37c4 -1 14 -134 14 -144s-11 -12 -20 -12s-18 3 -22 6c-8 35 -42 138 -200 138c-134 0 -208 -121 -208 -278c0 -138 80 -298 236 -298c36 0 72 5 96 19c8 6 10 16 10 23c0 27 -1 72 -1 72v7c0 17 0 60 -7 81
c-6 20 -60 25 -72 25c-5 0 -5 28 0 33c51 -2 89 -6 140 -6c42 0 81 4 121 6c1 -3 3 -11 3 -17c0 -7 -1 -17 -4 -17c-8 0 -44 -10 -56 -16c-10 -6 -13 -25 -13 -73c0 -36 1 -55 1 -65c0 -30 10 -36 10 -46c0 -6 -4 -16 -22 -24c-52 -23 -109 -52 -250 -52
c-177 0 -317 153 -317 330z" />
    <glyph glyph-name="H" unicode="H" horiz-adv-x="708" 
d="M673 30c4 0 4 -13 4 -19c0 -5 -1 -11 -2 -14c-40 2 -83 6 -127 6c-46 0 -87 -4 -133 -6c-2 2 -4 8 -4 14s2 19 4 19c12 0 61 10 66 22c6 23 8 66 8 84v172c0 2 -2 4 -2 4c-47 1 -81 2 -132 2c-154 0 -138 -1 -138 -5v-167c0 -36 2 -63 9 -90c3 -11 54 -22 62 -22
c3 0 4 -13 4 -19c0 -5 -1 -11 -2 -14c-40 2 -83 6 -127 6c-46 0 -87 -4 -133 -6c-2 2 -4 8 -4 14s2 19 4 19c12 0 61 10 66 22c6 23 8 66 8 84v386c0 18 -2 66 -8 84c-6 12 -52 23 -64 23c-2 0 -4 9 -4 15s0 16 2 18c46 -2 87 -6 133 -6c44 0 88 4 128 6c1 -3 3 -11 3 -16
c0 -6 -1 -17 -4 -17c-8 0 -62 -12 -65 -23c-7 -27 -8 -70 -8 -88v-146c0 -1 2 -3 2 -3c49 -1 80 -2 136 -2c47 0 87 1 132 2c0 0 2 2 2 4v149c0 18 -2 66 -8 84c-6 12 -52 23 -64 23c-2 0 -4 9 -4 15s0 16 2 18c46 -2 87 -6 133 -6c44 0 88 4 128 6c1 -3 3 -11 3 -16
c0 -6 -1 -17 -4 -17c-8 0 -62 -12 -65 -23c-7 -27 -8 -72 -8 -88v-376c0 -36 2 -63 9 -90c3 -11 54 -22 62 -22z" />
    <glyph glyph-name="I" unicode="I" horiz-adv-x="323" 
d="M104 522c0 18 -2 66 -8 84c-6 12 -52 23 -64 23c-2 0 -4 9 -4 15s0 16 2 18c46 -2 87 -6 133 -6c44 0 88 4 128 6c1 -3 3 -11 3 -16c0 -6 -1 -17 -4 -17c-8 0 -62 -12 -65 -23c-7 -27 -8 -70 -8 -88v-376c0 -36 2 -63 9 -90c3 -11 54 -22 62 -22c3 0 4 -13 4 -19
c0 -5 -1 -11 -2 -14c-40 2 -83 6 -127 6c-46 0 -87 -4 -133 -6c-2 2 -4 8 -4 14s2 19 4 19c12 0 61 10 66 22c6 23 8 66 8 84v386z" />
    <glyph glyph-name="J" unicode="J" horiz-adv-x="466" 
d="M364 518v-404c0 -195 -107 -336 -273 -336c-23 0 -51 12 -55 16c-6 8 -13 27 -13 45c0 32 31 55 63 55c40 0 54 -52 84 -52c48 0 80 92 80 264v418c0 18 0 56 -7 82c-5 18 -56 23 -68 23c-2 0 -4 9 -4 15s0 16 2 18c46 -2 91 -6 137 -6c44 0 87 4 127 6c1 -3 3 -11 3 -16
c0 -6 -1 -17 -4 -17c-8 0 -61 -12 -64 -23c-7 -27 -8 -70 -8 -88z" />
    <glyph glyph-name="K" unicode="K" horiz-adv-x="722" 
d="M217 518v-161c0 -6 6 -7 6 -7h8c10 0 28 8 52 34c78 84 106 117 176 200c5 6 16 20 16 30c0 15 -50 18 -59 18c-5 0 -7 21 -4 30c37 -2 84 -6 121 -6c44 0 73 4 113 6c2 -6 3 -30 -2 -30c-9 -1 -67 -4 -101 -42l-186 -212c-9 -10 -4 -21 2 -28l234 -278
c28 -34 85 -42 93 -42c3 0 5 -12 5 -19c0 -5 -2 -12 -3 -14c-40 2 -96 6 -137 6c-56 0 -83 -4 -139 -6c-5 5 -5 33 0 33c11 0 45 10 45 22c0 10 -99 136 -202 244c-5 5 -16 4 -22 4c-4 0 -16 -1 -16 -12v-148c0 -36 2 -61 9 -88c3 -11 54 -22 62 -22c3 0 4 -13 4 -19
c0 -5 -1 -11 -2 -14c-40 2 -83 6 -127 6c-46 0 -87 -4 -133 -6c-2 2 -4 8 -4 14s2 19 4 19c12 0 61 10 66 22c6 23 8 66 8 84v386c0 18 -2 66 -8 84c-6 12 -52 23 -64 23c-2 0 -4 9 -4 15s0 16 2 18c46 -2 87 -6 133 -6c44 0 88 4 128 6c1 -3 3 -11 3 -16
c0 -6 -1 -17 -4 -17c-8 0 -62 -12 -65 -23c-7 -27 -8 -70 -8 -88z" />
    <glyph glyph-name="L" unicode="L" horiz-adv-x="584" 
d="M217 518v-376c0 -29 2 -56 9 -80c4 -10 26 -13 68 -13h37c38 0 90 6 119 21c19 10 51 47 67 96c1 4 7 6 14 6c10 0 25 -3 28 -6c-19 -54 -47 -125 -54 -169c-109 0 -252 7 -342 4c-67 1 -133 -4 -133 -4c-1 1 -3 7 -3 16c0 6 1 17 3 17c12 0 61 9 67 22c6 18 7 54 7 91
v378c0 18 -2 67 -8 85c-6 12 -52 23 -64 23c-2 0 -4 9 -4 15s0 16 2 18c46 -2 87 -6 133 -6c44 0 88 4 128 6c1 -3 3 -11 3 -16c0 -6 -1 -17 -4 -17c-8 0 -62 -12 -65 -23c-7 -27 -8 -70 -8 -88z" />
    <glyph glyph-name="M" unicode="M" horiz-adv-x="913" 
d="M178 656c34 0 67 4 98 6c20 -64 123 -290 194 -466c0 -1 2 -2 3 -2s3 1 3 3c0 0 88 211 140 347c17 44 36 116 36 116c20 -2 63 -3 82 -3c34 0 87 3 119 5c2 -3 3 -11 3 -16c0 -6 0 -17 -4 -17h-2c-11 0 -38 -8 -49 -16c-9 -7 -14 -28 -13 -54c2 -45 10 -284 14 -413
c1 -39 6 -66 16 -92c6 -14 54 -24 62 -24c3 0 4 -12 4 -18c0 -5 -1 -12 -2 -15c-40 2 -79 6 -123 6c-46 0 -87 -4 -133 -6c-2 2 -4 9 -4 15s2 18 4 18c12 0 50 10 60 21c8 10 10 23 10 35s1 40 0 56l-10 304c-1 17 -5 62 -12 62c-2 0 -3 -1 -5 -6l-191 -466
c-4 -9 -20 -38 -38 -38c-3 0 -7 1 -10 2l-224 538c-6 -212 -12 -358 -16 -446c0 -9 1 -25 3 -31c7 -17 79 -31 87 -31c3 0 4 -11 4 -18c0 -6 -1 -12 -2 -15c-40 2 -82 6 -126 6c-46 0 -80 -4 -126 -6c-2 2 -4 10 -4 16s2 17 4 17c12 0 81 12 89 36c9 18 10 41 11 67
c5 178 13 402 14 447c0 10 0 19 -3 28c-5 12 -65 22 -77 22c-2 0 -4 11 -4 17s2 13 4 15c46 -2 68 -6 114 -6z" />
    <glyph glyph-name="N" unicode="N" horiz-adv-x="753" 
d="M571 523c0 17 -1 56 -10 80c-7 19 -66 26 -78 26c-5 0 -6 28 -2 33c46 -3 80 -7 126 -7c44 0 78 5 118 7c2 -4 2 -11 2 -16c0 -6 -1 -17 -4 -17c-8 0 -67 -7 -81 -28c-8 -20 -11 -47 -11 -83v-379c0 -58 2 -88 4 -140c-3 -3 -19 -4 -22 -4c-9 0 -22 9 -32 23l-398 528
v-405c0 -36 0 -60 8 -82c8 -19 74 -29 82 -29c5 0 4 -27 2 -33c-40 2 -81 6 -125 6c-46 0 -73 -4 -119 -6c-2 2 -4 11 -4 17s2 16 4 16c12 0 69 7 82 30c10 21 10 46 10 84v392c0 28 0 54 -11 73c-6 11 -67 19 -79 19c-5 0 -6 29 -1 34c42 -2 73 -5 119 -5c32 0 67 3 90 5
c42 -80 210 -292 328 -452c2 12 2 26 2 41v272z" />
    <glyph glyph-name="O" unicode="O" horiz-adv-x="693" 
d="M330 618c-123 0 -177 -134 -177 -268c0 -140 62 -310 208 -310c121 0 178 134 178 269c0 144 -59 309 -209 309zM25 328c0 187 144 339 320 339s321 -152 321 -339s-145 -338 -321 -338s-320 151 -320 338z" />
    <glyph glyph-name="P" unicode="P" horiz-adv-x="546" 
d="M163 657.5c58.5 0 75.5 3.5 134.5 3.5c95 0 222 -46 222 -183c0 -90.5 -79 -199.5 -209 -199.5c-29.5 0 -61.5469 11.4658 -71.5 25c-4 5.5 -6.5 33 -0.5 32c20 -8.5 34.5 -9.5 56 -9.5c65 0 103 62 103 139c0 84 -30.5 145.5 -109.5 145.5
c-24 0 -46.1172 -1.83789 -58 -7.5c-8 -4 -12 -19 -12 -104v-357.5c0 -27 0.5 -61 7.5 -84.5c6 -19.5 70.5 -27.5 78.5 -27.5c2.8623 0 3.81934 -9.90918 3.81934 -16.5c0 -5.50391 -0.863281 -13.6338 -1.81934 -16.5c-40 2 -82 5.5 -141.5 5.5c-62 0 -134 -5.5 -134 -5.5
c-1 1 -3.5 8.5 -3.5 17.5c0 6 1.5 16.5 3.5 16.5c12 0 61 8.5 67.5 21.5c6.5 17.5 6.5 54 6.5 91v378c0 18 -0.5 59 -6.5 82c-5 12 -56 25 -68 25c-2 0 -4 8 -4 15s1.5 16 3.5 18c0 0 105 -3.5 133.5 -3.5z" />
    <glyph glyph-name="Q" unicode="Q" horiz-adv-x="744" 
d="M328.5 614c-123 0 -179.5 -130 -179.5 -264c0 -139.5 64 -308 210.5 -308c121 0 179.5 132 179.5 267c0 144.5 -60.5 305 -210.5 305zM667 -79c40 0 65 9 72 9c8 0 12 -10 12 -20v-5c-55 -29 -121.5 -44.5 -182.5 -44.5c-110 0 -203 106.5 -311 139.5
c-88 27 -233 141 -233 328s143 339 319 339s320 -152 320 -339s-137 -306 -224 -323c97 -46 123.5 -84 227.5 -84z" />
    <glyph glyph-name="R" unicode="R" horiz-adv-x="685" 
d="M288 610.5c-24 0 -46.1172 -1.83789 -58 -7.5c-8 -4 -11 -19 -12 -104v-114.5c0 -34 33.5 -36 64.5 -36h26c45.5 0 96 47.0625 96 126c0 95 -44 136 -116.5 136zM303.5 660c82 0 223 -42.5 223 -175.5c0 -75.5 -57 -144.5 -120 -170.5
c-5 -2 -7.80469 -4.87891 -4.5 -10.5c29.5 -53 58 -103 112 -170c39.8672 -48.585 100 -103.5 150 -103.5c2.5 -4 3.5 -11 3.5 -16c0 -5.5 -0.5 -11 -3.5 -17.5c-7 -1.5 -24.5 -2.5 -31 -2.5c-143.5 0 -206 73.5 -257.5 149c-58.1562 84.916 -90.4092 143.137 -117 154
c-5.5 2 -15 2.5 -24 2.5c-9.5 0 -16.5 -2.5 -16.5 -16.5v-141.5c0 -27 0.5 -61 7.5 -84.5c6 -19.5 70.5 -27.5 78.5 -27.5c2.8623 0 3.81934 -9.90918 3.81934 -16.5c0 -5.50391 -0.863281 -13.6338 -1.81934 -16.5c-40 2 -82 5.5 -141.5 5.5c-62 0 -134 -5.5 -134 -5.5
c-1 1 -3.5 8.5 -3.5 17.5c0 6 1.5 16.5 3.5 16.5c12 0 61 8.5 67.5 21.5c6.5 17.5 6.5 54 6.5 91v378c0 18 -0.5 59 -6.5 82c-5 12 -56 25 -68 25c-2 0 -4 8 -4 15s1.5 16 3.5 18c0 0 106 -3.5 133.5 -3.5c57 0 81.5 2.5 140.5 2.5z" />
    <glyph glyph-name="S" unicode="S" horiz-adv-x="474" 
d="M38.5 489.5c0 104.5 103 178.5 204.5 178.5c60.5 0 95 -14 159.5 -28c9 -53 11.5 -110 11.5 -154.5c-1.5 -7 -9 -8.5 -12.5 -8.5c-7.5 0 -26.5 -0.5 -28.5 8.5c-7 53 -55 134 -133 134c-63.5 0 -95 -38.5 -95 -96c0 -71 76.5 -110 142.5 -152
c66.5 -42.5 160.5 -81.5 160.5 -197.5c0 -110 -105 -184 -213.5 -184c-63.5 0 -130.5 15.5 -185 27.5c-12 52 -24 142.5 -24 162.5c1 5.5 11 8 17 8c10.5 0 26.5 -1.5 28.5 -7.5c8 -42 51.5 -141.5 154.5 -141.5c59 0 109.5 33 109.5 112c0 71.5 -77 104.5 -136.5 141.5
c-75 47 -160 94.5 -160 197z" />
    <glyph glyph-name="T" unicode="T" horiz-adv-x="664" 
d="M331 656.5c80 0 131 4 220 5c14 0 53 7 69 11l19 -153.5c-3 -3 -17.5 -7 -26.5 -7c-5 0 -9 1 -10 5c-19 74 -45.5 94 -109.5 94c-79 0 -95.5 -8.5 -97.5 -16.5c-8 -28 -8.5 -56.5 -8.5 -94.5v-361c0 -36 1.5 -60 8.5 -87c3 -11 55 -22.5 63 -22.5c3 0 4 -11 4 -17
c0 -5 -1 -13 -2 -16c-40 2 -83.5 6.5 -127.5 6.5c-46 0 -86.5 -4.5 -132.5 -6.5c-2 2 -4 9.5 -4 15.5s1.5 17.5 3.5 17.5c12 0 61.5 10.5 66.5 22.5c6 23 7 65 7 83v362c0 40 -0.5 83.5 -8.5 97.5c-4 8 -16 16.5 -95 16.5c-64.5 0 -90.5 -19.5 -109.5 -93.5
c-1 -4 -5 -5 -10 -5c-9 0 -23.5 4 -26.5 7l19 153c16 -4 55 -11 69 -11c89 -1 139 -5 219 -5z" />
    <glyph glyph-name="U" unicode="U" horiz-adv-x="733" 
d="M159.5 656.5c44 0 88 3.5 128 5.5c1 -3 2.5 -10.5 2.5 -16c0 -6.5 -1 -17 -4 -17c-8 0 -61.5 -11.5 -64.5 -22.5c-7 -27 -8 -54.5 -8 -89v-230c0 -134.5 61 -225.5 169 -225.5c91.5 0 170 50 170 218v244c0 17 0.5 60 -10 80c-9.5 14 -66.5 26 -78.5 26
c-5 0 -6 27 -1.5 32c46 -3 79 -7 125 -7c44 0 78 5 118 7c1.5 -3.5 3 -11.5 3 -16.5c0 -6 -1.5 -15.5 -4.5 -15.5c-8 0 -66.5 -7 -81 -28c-8.5 -19.5 -11 -47 -11 -83v-235.5c0 -212 -109.5 -286 -253.5 -286c-151 0 -258.5 82 -258.5 306v219c0 18 -1 66 -7.5 83.5
c-6 12 -52.5 23 -64.5 23c-2 0 -4 9 -4 15s1 16 3 18c46 -2 86.5 -5.5 132.5 -5.5z" />
    <glyph glyph-name="V" unicode="V" horiz-adv-x="715" 
d="M147.5 655.5c45 0 99.501 4.5 137.501 6.5c3.5 -5.5 4 -33 -1 -33c-10 0 -62.5 -6.5 -62.5 -34.5c0 -21.5 32.5 -98.5 96 -254.5c27 -68.5 74 -165 75 -162.5l145.5 345.5c10 24 19.5 52.5 19.5 69c0 26 -44.5 37 -70.5 37c-5 0 -4 27.5 -0.5 33
c38.5 -2 70 -6.5 110.5 -6.5c46 0 65.5 4.5 108.5 6.5c1.5 -2.5 3 -9.5 3 -15c0 -6 -0.5 -17.5 -3 -17.5c-10 0 -49 -6.5 -67 -28.5c-13.8311 -21.1348 -29 -54.5 -43.5 -88l-208.107 -487.5c-10.8281 -25.7461 -26.3936 -35 -38.8936 -35c-6.5 0 -13 4 -16.5 9.5l-205 512
c-13.415 34.1299 -26.5 65.5 -39 89c-10.3613 20.7607 -58.5 28 -68.5 28c-2.5 0 -4 9 -4 15c0 5.5 1 15.5 3 18c43 -2 84.5 -6.5 129.5 -6.5z" />
    <glyph glyph-name="W" unicode="W" horiz-adv-x="1078" 
d="M141 656.5c44 0 80.5 3.5 120.5 5.5c2 -6 4 -33 -1 -33c-8 0 -48 -2.5 -48 -31.5c0 -12.5 11 -40 17.5 -52.5l195.5 -387.5c4.01562 -7.99219 12.5 0 15 5l72.3877 141.526l-107.388 216.474c-14.3516 29.0703 -33 64 -50.5 84.5c-12.792 14.292 -41 24 -58 24
c-2.39844 0 -3.84961 10.2539 -3.84961 17c0 5.95215 0.74707 13.8984 2.84863 16c46 -2 86.5 -5.5 132.5 -5.5c44 0 78 3.5 118 5.5c2 -6 4 -33 -1 -33c-12 0 -47.5 -5 -47.5 -30.5c0 -15.5 11.5 -40 17.5 -52.5l61.9404 -125.108l58.9014 121.199
c9.65918 20.4092 17.1592 39.9092 17.1592 54.9092c0 27.5 -56.5 32.5 -66.5 32.5c-5 0 -5.5 27.5 -0.5 32.5c32 -2 78 -5.5 110 -5.5c51 0 74.5 3.5 114.5 5.5c2 -6 4 -32.5 -1 -32.5c-14 0 -56.4541 -12.8311 -71 -29c-19 -21.5 -39.5 -59.5 -57 -94.5l-73.2686 -148.189
l97.7686 -197.311c4 -8 9.93262 -0.472656 12.5 4.5c34.5 80 142 303 175 375c10.0625 21.7529 17.5 43.5 17.5 56.5c0 27 -53 33 -64 33c-5 0 -5.5 27.5 -0.5 32.5c32 -2 78.5 -5.5 110.5 -5.5c51 0 72 3.5 112 5.5c1.09961 -3.29688 2.37012 -12.8945 2.37012 -20
c0 -6.08594 -0.860352 -12.5 -3.37012 -12.5c-14 0 -52.7998 -10.9697 -68 -28c-18.5 -20.5 -40.7246 -58.0938 -58 -94.5c-15.5 -30.5 -229.5 -485.5 -229.5 -485.5c-11.2285 -23.3916 -28.5 -32 -36.5 -32c-4 0 -8 2 -10 5l-122.521 245.693l-113.979 -218.693
c-11.7227 -22.876 -28.5 -32 -36.5 -32c-4 0 -7 2 -9 5l-265.5 526c-18.0938 36.4531 -29 57.5 -52 86.5c-12 15 -47 22 -59 22c-2 0 -4 10 -4 16s1 15 3 17c46 -2 88 -5.5 134 -5.5z" />
    <glyph glyph-name="X" unicode="X" horiz-adv-x="752" 
d="M201.5 656.5c49 0 95.999 3.5 135.999 5.5c2 -6 3 -33 -2 -33c-14 0 -56 -6 -56.5 -26.5c0 -7 4.03809 -16.9746 10 -26l113.005 -171.575c51.6777 66.0332 137.495 167.815 137.495 193.075c0 15 -34 31 -72 31c-5 0 -5.5 28 -0.5 33c37 -2 88.5 -5.5 125.5 -5.5
c52 0 82.5 3.5 122.5 5.5c2.5 -6 3.5 -33 -1.5 -33c-8 0 -71.7803 -7.77148 -92.5 -34l-187.602 -237.6c42.0811 -63.4268 183.814 -277.811 191.103 -286.4c24 -32 71 -41.5 91.5 -41.5c3 0 4 -12 4 -19c0 -5 -1.5 -12 -2.5 -14c-40 2 -84.5 5.5 -125.5 5.5
c-56 0 -96 -3.5 -152 -5.5c-5 5 -4 33 1 33c11 0 57 9.5 57 28c0 3 -2.01562 8.48926 -4 11.5l-140.169 213.109c-41.4248 -55.3496 -151.831 -202.388 -151.831 -221.609c0 -14 28 -31 71 -31c3 0 4.5 -12 4.5 -18.5c0 -5.5 -0.5 -12 -2 -14.5c-35 2 -85.5 5.5 -122.5 5.5
c-52 0 -85.5 -3.5 -125.5 -5.5c-1 3 -3 8.5 -3 13.5c0 6 1 19.5 4 19.5c8 0 67.5 7.5 88 31l203.789 272.549l-137.289 209.451c-19.9238 31.082 -39 58 -60 71c-15.6172 9.92383 -42.5 15.5 -54.5 15.5c-5 0 -5 28 0 33c49 -2 84 -5.5 133 -5.5z" />
    <glyph glyph-name="Y" unicode="Y" horiz-adv-x="657" 
d="M156.5 656c49 0 97.5 4 137.5 6c2 -6 3 -32 -2 -32c-14 0 -56 -7 -56.5 -27.5c0 -7 4.17676 -16.7402 9.5 -26l106 -194.5c5 -5 7.97461 -0.984375 10 2c43.5 65 122.5 191 122.5 218.5c0 13 -24.5 27.5 -66.5 27.5c-5 0 -5.5 27 -0.5 32c33.5 -2 82.5 -6 119.5 -6
c52 0 75 4 109.5 6c1 -3 2.5 -11.5 2.5 -16.5c0 -6 -1 -15 -4 -15c-13.5 0 -62.5 -10.5 -80 -33.5c-23 -33.5 -179 -279 -179 -299.5v-155.5c0 -35.5 1 -63 8 -90c3 -11 53.5 -23.5 61.5 -23.5c2.87012 0 3.81934 -9.65527 3.81934 -16
c0 -5.25781 -0.867188 -13.1445 -1.81934 -16c-40 2 -81.5 6.5 -125.5 6.5c-46 0 -85.5 -4.5 -131.5 -6.5c-2.15723 2.15723 -3.86523 9.13477 -3.86523 15c0 6.32617 1.02246 17 3.36523 17c12 0 60 11.5 65 23.5c6 23 7.5 60 7.5 88.5v147.5c0 17 -66 130.5 -135.5 255
c-17.8867 32.8848 -32.5 56 -51.5 68.5c-15.376 9.92578 -47 18.5 -59 18.5c-3.5 0 -4.5 18.5 -2 24c24.5 2 84 2 133 2z" />
    <glyph glyph-name="Z" unicode="Z" horiz-adv-x="622" 
d="M224 656h109c84 0 137 4 221 10c4 -1 10 -23 10 -33c-2 -8 -369.5 -554 -369.5 -554c-4 -6 -7 -11 -7 -15c0 -7 7 -10 14 -10h192.5c100.5 0 141.5 64.5 161 119c1 2 5.5 4.5 13.5 4.5c10 0 22 -2.5 27.5 -7.5c-23 -72.5 -40.5 -121.5 -49 -170h-506.5c-6 7 -8 18 -8 26
c0 7 1 13 4 17l375.5 560.5h-191.5c-99.5 -0.5 -117.5 -45.5 -141 -119.5c-1 -3 -4 -5 -11.5 -5c-11 0 -29.5 3.5 -32.5 6.5c11.5 57 24 114 31.5 178c16 -4 143 -7.5 157 -7.5z" />
    <glyph glyph-name="bracketleft" unicode="[" horiz-adv-x="275" 
d="M53 756c92 0 169 11 195 15c2 0 6 -3 6 -13c0 -22 -12 -28 -14 -29c-15 -8 -67 -21 -107 -21c-6 0 -7 -7 -7 -9v-749c0 -2 1 -8 7 -8c22 0 71 -9 108 -25c8 -3 10 -11 10 -23c0 -11 -4 -18 -6 -18c-38 6 -101 18 -192 18c-18 0 -18 22 -18 23v815c0 1 0 24 18 24z" />
    <glyph glyph-name="backslash" unicode="\" horiz-adv-x="409" 
d="M387 -6c0 -27 -22 -33 -28 -33s-24 2 -24 2l-314 792s8 6 22 6c30 0 47 -7 54 -22l286 -726c2 -3 4 -11 4 -19z" />
    <glyph glyph-name="bracketright" unicode="]" horiz-adv-x="276" 
d="M222 756c18 0 19 -23 19 -24v-815c0 -1 -1 -23 -19 -23c-91 0 -154 -12 -192 -18c-2 0 -6 7 -6 18c0 12 3 20 11 23c37 16 85 25 107 25c6 0 8 6 8 8v749c0 2 -2 9 -8 9c-40 0 -91 13 -106 21c-2 1 -14 7 -14 29c0 10 4 13 6 13c26 -4 102 -15 194 -15z" />
    <glyph glyph-name="asciicircum" unicode="^" horiz-adv-x="388" 
d="M347 472c-16 0 -92 61 -140 118c-44 -57 -122 -118 -138 -118c-10 0 -13 27 -13 27c6 14 86 68 137 178c4 9 2 13 10 13c25 0 15 -22 75 -102c23 -30 80 -83 82 -88c0 -4 -5 -28 -13 -28z" />
    <glyph glyph-name="underscore" unicode="_" horiz-adv-x="585" 
d="M61 -33c0 0 5 46 15 46h449c2 0 4 -1 4 -5c0 -9 -4 -23 -10 -45c-2 -6 -6 -6 -6 -6h-445s-7 0 -7 10z" />
    <glyph glyph-name="grave" unicode="`" horiz-adv-x="247" 
d="M44 660c0 6 9 27 44 27c14 0 29 -4 34 -9c37 -43 93 -133 93 -138c0 -6 -8 -16 -15 -16c-10 0 -156 97 -156 136z" />
    <glyph glyph-name="a" unicode="a" horiz-adv-x="452" 
d="M192 57.5c37 0 66 23.5 66 46.5v102c-45.5 -17 -123 -30.5 -123 -86.5c0 -44.5 27 -62 57 -62zM237 442.5c79 0 124 -34 124 -145v-196.5c0 -27 13 -41.5 32.5 -41.5c18 0 31 11 34.5 13.5c3.5 -1 5.5 -7.5 5.5 -11.5c0 -12.5 -3 -24 -6 -29
c-14 -12.5 -53.5 -38.5 -87.5 -38.5c-33 0 -65 29.5 -74 53.5c-4 -1 -54 -54.5 -125 -54.5c-66 0 -113 38 -113 102.5c0 103.5 143.5 128 221 155c6 2 9 8 9 15v55.5c0 47.5 -24 74.5 -59 74.5c-39 0 -64 -24.5 -64 -70.5c0 -29 -26.5 -39 -49.5 -39
c-19.5 0 -41.5 8 -51 24.5c0 63.5 107.5 132 202.5 132z" />
    <glyph glyph-name="b" unicode="b" horiz-adv-x="525" 
d="M281.5 442.5c130 0 212.5 -109.5 212.5 -213c0 -131.5 -110 -236.5 -230.5 -236.5c-75 0 -79.5 15.5 -119 15.5c-17 0 -38.9639 -15 -46.5 -15c-2.5 0 -26.5 10 -26.5 17c0 9.5 10 46.5 10 121v408.5c0 17 -2 48 -6 68c-4 14 -34.5 16 -51.5 16h-9c-4 0 -6 8.5 -6 15.5
c0 2 1 16.5 6 16.5c110.5 10 163 38.5 166 38.5h2c6 0 12 -11.5 13 -16.5c0 0 -11 -38.5 -11 -94v-160.5c0 -5 -0.149414 -16.3096 6 -11.5c15 11.5 55.5 30.5 90.5 30.5zM260 387.5c-45 0 -75 -29.5 -75 -64v-211c0 -50.5 45 -71.5 89.5 -71.5c73 0 104.5 80 104.5 161.5
c0 113 -42 185 -119 185z" />
    <glyph glyph-name="c" unicode="c" horiz-adv-x="435" 
d="M241.5 441.5c78 0 134.5 -31.5 154 -55c0 -42 -12.5 -79.5 -45.5 -79.5c-27.5 0 -40.0938 16.5049 -54 42.5c-10.6484 20.9004 -27 46 -67 46c-58 0 -94 -66 -94 -152.5c0 -128 61.5 -177.5 131 -177.5c73.5 0 112 33.5 128 44.5c3 -1 7.5 -9 7.5 -16
c0 -6 -2.36328 -14.6934 -5 -19c-15.5 -26.5 -76 -81.5 -157.5 -81.5c-119 0 -214 98.5 -214 224c0 116.5 83 224 216.5 224z" />
    <glyph glyph-name="d" unicode="d" horiz-adv-x="520" 
d="M243 395.5c-72.5 0 -107 -68.5 -107 -165c0 -114 43 -180.5 118.5 -180.5c45.5 0 75.5 26.5 75.5 62v210c0 21 -12.5 73.5 -87 73.5zM252.5 443.5c34 0 57.5 -6.5 72.5 -13c3 0 5 4 5 16v93.5c0 17 -2 48 -6 68c-4 14 -34.5 16 -51.5 16h-9c-4 0 -6 8.5 -6 15.5
c0 2 1 16.5 6 16.5c110.5 10 163 38.5 166 38.5h2c6 0 12 -11.5 13 -16.5c0 0 -11 -38.5 -11 -94v-440c0 -11 0 -45.5 6 -74c5 -19 55 -17 58 -18c2 -1 3 -9 3 -12c0 -2 -1 -20 -6 -20c-52.5 -3 -157.5 -26 -158.5 -26c-5 0 -6 10 -6 17v16.5c0 5 -2.02148 5.53906 -4 4
c-18.5 -14 -57.5 -36.5 -103.5 -36.5c-106 0 -201.5 86.5 -201.5 209c0 132 106.5 239.5 231.5 239.5z" />
    <glyph glyph-name="e" unicode="e" horiz-adv-x="436" 
d="M225 395.5c-70 0 -91 -87 -91 -114.5c0 -3 2 -6.5 6.5 -6.5h161c9.2373 0 9.5 9.5 9.5 14.5c0 39 -29.5 106.5 -86 106.5zM232.5 441.5c131 0 184.5 -111.5 184.5 -182.5c0 -30.5 -9.99316 -33 -38 -33h-239c-5 0 -7 -2.43945 -7 -6c0 -67 39.5 -154.5 133 -154.5
c73.5 0 112 33.5 128 44.5c3 -1 7.5 -9 7.5 -16c0 -6 -2.36328 -14.6934 -5 -19c-15.5 -26.5 -76.5 -81.5 -158 -81.5c-116 0 -213.5 98 -213.5 221.5c0 135 87.5 226.5 207.5 226.5z" />
    <glyph glyph-name="f" unicode="f" horiz-adv-x="349" 
d="M312 695.3c61 0.0537109 96 -19.2998 106 -36.2998c4.5 -34 -2.5 -80 -41.5 -80c-41.5 0 -46.5 66 -95 66c-55 0 -77 -87 -77 -170v-46c0 -2 3 -5 5 -5h111c5 0 5 -1 5 -7c0 -9 -5 -32 -12 -46h-103c-3 0 -6 -3 -6 -6v-223c0 -33.5 1 -63 8 -90
c3 -11 51.5 -22.5 59.5 -22.5c5 0 4.5 -27 2.5 -33c-40.5 2 -82.5 6.5 -122 6.5c-41.5 0 -79.5 -4.5 -121 -6.5c-5 5 -4.5 33 0 33c12 0 58.5 11.5 61.5 22.5c7 28.5 8.5 61.5 8.5 82.5v229.5c0 3 -2 7 -5 7h-60c-2 0 -3 2 -3 6c0 10.5 19 47.5 46 47.5h17c3 0 5 3 5 6v10
c0 141 99 254.685 210.5 254.8z" />
    <glyph glyph-name="g" unicode="g" horiz-adv-x="477" 
d="M356 -83c0 51.5 -95 58 -186 58c-1 0 -3.52637 -0.841797 -5 -1.5c-28.7119 -12.1055 -58.5 -22 -58.5 -63.5c0 -51 64.5 -83.5 122.5 -83.5c74.5 0 127 38 127 90.5zM142 295c0 -60.5 25 -116 76 -116c52.5 0 72 48 72 99c0 68 -26 119 -77.5 119
c-53.5 0 -70.5 -57.5 -70.5 -102zM218 440.5c71 0 96.5 -26 163 -26h56.5c3 -1 12.5 -23.5 12.5 -33.5c0 -8 -2 -14 -6 -14h-65c-1.5 0 -4 -1 -4 -3c0 -9 18 -34.5 18 -74.5c0 -74 -70.5 -153.5 -172.5 -153.5c-26 0 -50.5 2.5 -62 4.5c-16.5 -7 -33 -29.5 -33 -43.5
c0 -32.5 78 -31.5 129 -33.5c132.207 -3.93164 192 -34.5 192.5 -100.5c0.701172 -100.495 -113.5 -185 -241 -185.5c-89.5 -0.5 -182 35.5 -182 110.5c0 42.5 52.5 81 90 94.5c-30.5 9 -70.5 39.5 -70.5 82.5c0 38.5 46 71.5 74.5 89c-36 16.5 -79 72.5 -79 133
c0 97.5 83 153.5 179 153.5z" />
    <glyph glyph-name="h" unicode="h" horiz-adv-x="578" 
d="M354 442c82 0 128 -61.5 128 -197v-103.5c0 -33.5 0.5 -62.5 7.5 -89.5c3 -11 53.5 -22.5 61.5 -22.5c5 0 4.5 -27 2.5 -33c-40.5 2 -83.5 6.5 -122 6.5c-41.5 0 -77.5 -4.5 -119 -6.5c-5 5 -5 33 0 33c12 0 56 11.5 59 22.5c6 25.5 7 62.5 7 73v98
c0 115.5 -33.5 146 -94.5 146c-40 0 -79.5 -28 -79.5 -54.5v-172.5c0 -33.5 0.5 -63 7.5 -90c3 -11 51.5 -22.5 59.5 -22.5c5 0 4.5 -27 2.5 -33c-40.5 2 -81.5 6.5 -120 6.5c-41.5 0 -81.5 -4.5 -123 -6.5c-5 5 -5 33 0 33c12 0 60 11.5 63 22.5c6 25.5 7 62 7 72.5v415.5
c0 16.5 -1.5 48 -5.5 68c-4 14 -34.5 16 -51.5 16h-9c-4 0 -6 8.5 -6 15.5c0 2 1 16.5 6 16.5c110.5 10 163 38.5 166 38.5h2c6 0 12 -11.5 13 -16.5c0 0 -11.5 -38.5 -11.5 -94v-202.5c0 -2 1 -5.5 3 -5.5c1.5 0 2.52148 1.48047 4 3c26 29 86 63 142.5 63z" />
    <glyph glyph-name="i" unicode="i" horiz-adv-x="300" 
d="M83.1807 604.5c0 34.5 27.499 62 61.999 62s62 -27.5 62 -62s-27.5 -62 -62 -62s-61.999 27.5 -61.999 62zM205.18 142c0 -33.5 0.5 -63 7.5 -90c3 -11 53.5 -22.5 61.5 -22.5c5 0 4.5 -27 2.5 -33c-40.5 2 -83.5 6.5 -122 6.5c-41.5 0 -81.499 -4.5 -122.999 -6.5
c-5 5 -5 33 0 33c12 0 60 11.5 63 22.5c5.99902 25.5 6.99902 62.5 6.99902 73v163c0 9 -1.5 49 -15.999 64.5c-19 22.5 -56.5 18 -56.5 23c0 2 0.5 29.5 5.5 30c35.5 3.5 123.499 19.5 160.499 31c1 0 7 2 8 2c7 0 10.5 -14 10 -19c-4 -32 -8 -52 -8 -86v-191.5z" />
    <glyph glyph-name="j" unicode="j" horiz-adv-x="280" 
d="M108.5 288c0 9 -1.5 49 -16 64.5c-19 22.5 -56 18 -56 23c0 2 0 29.5 5 30c35.5 3.5 124 19.5 161 31c1 0 6.5 2 7.5 2c7 0 11 -14 10.5 -19c-4 -32 -8.5 -52 -8.5 -86v-239.5c0 -60 -8.5 -150 -43.5 -205c-35 -55.5 -119 -106.5 -151.5 -113.5
c-6 3.5 -13.5 11 -14.5 19.5c-0.5 2 -0.5 7.5 0.5 8.5c3 4 105.5 32.5 105.5 269v215.5zM87 604.5c0 34.5 27.5 62 62 62s62 -27.5 62 -62s-27.5 -62 -62 -62s-62 27.5 -62 62z" />
    <glyph glyph-name="k" unicode="k" horiz-adv-x="596" 
d="M445 375c-15.5 -9 -87.5 -58 -142.5 -115c75 -81 160 -184 185.5 -204c23 -19 64 -27.5 72 -27.5c3 0 4.5 -10.5 4.5 -17.5c0 -5 -0.5 -12 -1.5 -14c-40 2 -79.5 5.5 -117.5 5.5c-41 0 -77.5 -4 -118.5 -6c-5 5 -5 32 0 32c11 0 36 6 36 13c0 1 0 2 -1 3l-146 162.5
l-11.5 -3v-62c0.5 -33.5 0.5 -63 7.5 -90c3 -11 53.5 -22.5 61.5 -22.5c5 0 4.5 -27 2.5 -33c-40.5 2 -83.5 6.5 -122 6.5c-41.5 0 -81.5 -4.5 -123 -6.5c-5 5 -5 33 0 33c12 0 60 11.5 63 22.5c6 25.5 7 62.5 7 73v415c0 16.5 -1.5 48 -5.5 68c-4 14 -34.5 16 -51.5 16h-9
c-4 0 -6 8.5 -6 15.5c0 2 1 16.5 6 16.5c110.5 10 163 38.5 166 38.5h2c6 0 12 -11.5 13 -16.5c0 0 -11.5 -38.5 -11.5 -94v-334c8 2 21.5 4 29.5 11c88.5 77 121 96.5 121 116.5s-40.5 11.5 -45.5 17.5c-3 9 -3.5 27.5 1.5 29.5c0 0 75.5 -0.5 96.5 -0.5
c35.5 0 61.5 1.5 107 3.5c8 -5 4 -32.5 0 -32.5c-23 0 -58 -13 -69.5 -20z" />
    <glyph glyph-name="l" unicode="l" horiz-adv-x="295" 
d="M201 144c0 -34 0 -62 7 -90c3 -11 47 -24 55 -24c5 0 4 -27 2 -33c-40 2 -78 6 -116 6c-42 0 -76 -4 -118 -6c-5 5 -5 33 0 33c12 0 55 13 58 24c6 26 8 64 8 74v416c0 17 -2 48 -6 68c-4 14 -33 16 -50 16h-10c-4 0 -6 5 -6 12c0 2 1 16 6 16c110 10 163 38 166 38h2
c6 0 13 -11 14 -16c0 0 -12 -38 -12 -94v-440z" />
    <glyph glyph-name="m" unicode="m" horiz-adv-x="844" 
d="M354.375 442c53.6357 0 88.5 -32.5 104.5 -70c35.5 36 96.5 69.5 167.5 70c97.5 0 128.5 -95.5 128.5 -195v-105c0 -33.5 0.5 -63 7.5 -90c3 -11 52.5 -22.5 60.5 -22.5c5 0 4.5 -27 2.5 -33c-40.5 2 -82.5 6.5 -121 6.5c-41.5 0 -80.5 -4.5 -122 -6.5c-5 5 -5 33 0 33
c12 0 59 11.5 62 22.5c6 25.5 7 59.5 7 70v101.5c0 94.5 -27.5 145.5 -93.5 145.5c-48.5 0 -77 -31 -80.5 -47.5c-1 -3 -0.931641 -11.5273 -0.5 -15c2.5 -18.5 3 -48 3 -63v-106c0 -33.5 0.5 -58.5 7.5 -85.5c3 -11 52.5 -22.5 60.5 -22.5c5 0 4.5 -27 2.5 -33
c-40.5 2 -82.5 6.5 -121 6.5c-41.5 0 -80.5 -4.5 -122 -6.5c-5 5 -5 33 0 33c12 0 59 11.5 62 22.5c6 25.5 7 62.5 7 73v96c0 107.5 -33.5 148 -91 148c-40.5 0 -80 -27 -80 -55v-172c0 -33.5 0.5 -63 7.5 -90c3 -11 51.5 -22.5 59.5 -22.5c5 0 4.5 -27 2.5 -33
c-40.5 2 -81.5 6.5 -120 6.5c-41.5 0 -81.5 -4.5 -123 -6.5c-5 5 -5 33 0 33c12 0 60 11.5 63 22.5c6 25.5 7 62.5 7 73v163c0 9 -1.5 49 -16 64.5c-19 22.5 -56.5 18 -56.5 23c0 2 0.5 29.5 5.5 30c35.5 3.5 106.5 18.5 160.5 31c2.5 0.5 7 2 8 2c7 0 10.5 -14 10 -19
c-2 -14 -4 -31 -4 -35.5c0 -2 0 -4.5 1.5 -5c1.5 0 3.47754 2.02344 5 3.5c27.5 27 81.5 59.5 138.5 59.5z" />
    <glyph glyph-name="n" unicode="n" horiz-adv-x="584" 
d="M354.5 442c83.5 0 128.5 -62 128.5 -205v-95c0 -33.5 0.5 -63 7.5 -90c3 -11 53.5 -22.5 61.5 -22.5c5 0 4.5 -27 2.5 -33c-40.5 2 -83.5 6.5 -122 6.5c-41.5 0 -77.5 -4.5 -119 -6.5c-5 5 -5 33 0 33c12 0 56 11.5 59 22.5c6 25.5 7 62.5 7 73v95c0 114 -30 149 -94 149
c-42.5 0 -80 -28.5 -80 -55v-172c0 -33.5 0.5 -63 7.5 -90c3 -11 51.5 -22.5 59.5 -22.5c5 0 4.5 -27 2.5 -33c-40.5 2 -81.5 6.5 -120 6.5c-41.5 0 -81.5 -4.5 -123 -6.5c-5 5 -5 33 0 33c12 0 60 11.5 63 22.5c6 25.5 7 62.5 7 73v163c0 9 -1.5 49 -16 64.5
c-19 22.5 -56.5 18 -56.5 23c0 2 0.5 29.5 5.5 30c35.5 3.5 106.5 18.5 160.5 31c2.5 0.5 7 2 8 2c7 0 10.5 -14 10 -19c-2 -14 -4 -31 -4 -35.5c0 -2 0 -4.5 1.5 -5c1.5 0 3.47754 2.02344 5 3.5c27.5 27 81.5 59.5 138.5 59.5z" />
    <glyph glyph-name="o" unicode="o" horiz-adv-x="507" 
d="M240.5 395c-68 0 -99.5 -77.5 -99.5 -154c0 -99.5 40.5 -201 122.5 -201c67.5 0 101 77.5 101 153.5c0 100.5 -41 201.5 -124 201.5zM253 442c126 0 226.5 -100.5 226.5 -224c0 -124 -98.5 -225 -225.5 -225c-126.5 0 -227 101 -227 225c0 125 98.5 224 226 224z" />
    <glyph glyph-name="p" unicode="p" horiz-adv-x="540" 
d="M299.5 441c135.5 0 212 -113 212 -210.5c0 -141 -109.5 -238.5 -234.5 -238.5c-39.5 0 -60.5 10.5 -71 14c-1.5 0 -4 -4.5 -4 -14.5v-68c0 -33.5 0.5 -63 7.5 -90c3 -11 53.5 -22.5 61.5 -22.5c5 0 4.5 -27 2.5 -33c-40.5 2 -83.5 6.5 -122 6.5
c-41.5 0 -81.5 -4.5 -123 -6.5c-5 5 -5 33 0 33c12 0 60 11.5 63 22.5c6 25.5 7 62.5 7 73v382c0 9 -1.5 49 -16 64.5c-19 22.5 -56.5 18 -56.5 23c0 2 0.5 29.5 5.5 30c35.5 3.5 96.5 12 149.5 27.5c0.5 0 17.5 5.5 19 5.5c5.5 0 3.5 -15.5 3.5 -20.5
c0 -3.5 -0.5 -8 -1 -12c16 12 60.5 34.5 97 34.5zM276 387.5c-43.5 0 -74 -27 -74 -69v-207c0 -46 47.5 -71.5 85 -71.5c58 0 109.5 53.5 109.5 160c0 103 -42.5 187.5 -120.5 187.5z" />
    <glyph glyph-name="q" unicode="q" horiz-adv-x="487" 
d="M263.5 443.5c72 0 83 -14.5 120.5 -14.5c15 0 37.9639 13.5 44.5 13.5c3.5 0 27.5 -10.5 27.5 -17c0 -6 -12.5 -47.5 -12.5 -125.5v-383c0 -33.5 0.5 -57 7.5 -84c3 -11 53.5 -22.5 61.5 -22.5c5 0 4.5 -27 2.5 -33c-40.5 2 -83.5 6.5 -122 6.5
c-41.5 0 -81.5 -4.5 -123 -6.5c-5 5 -5 33 0 33c12 0 60 11.5 63 22.5c6 25.5 7 62.5 7 73v106c0 5.5 -0.350586 15.3096 -6.5 11.5c-17.5498 -10.5254 -50.5 -29.5 -93.5 -29.5c-113 0 -209 96.5 -209 214c0 125.5 105.5 235.5 232.5 235.5zM251.5 395.5
c-83.5 0 -105.5 -93 -105.5 -160.5c0 -104.5 41.5 -185 121.5 -185c30 0 72.5 18 72.5 60.5v209c0 33 -20 76 -88.5 76z" />
    <glyph glyph-name="r" unicode="r" horiz-adv-x="430" 
d="M320.5 442c38.5 0 66 -14 82 -33c0 -57.5 -16 -84.5 -48 -84.5c-39 0 -38.5 40 -83 40s-66 -59 -66 -97.5v-125.5c0 -33 0.5 -62.5 7.5 -89.5c3 -11 52 -22.5 60 -22.5c5 0 4.5 -27 2.5 -33c-40.5 2 -82 6.5 -120.5 6.5c-41.5 0 -81.5 -4.5 -123 -6.5c-5 5 -5 33 0 33
c12 0 60 11.5 63 22.5c6 25.5 7 62.5 7 73v163c0 9 -1.5 49 -16 64.5c-19 22.5 -56.5 18 -56.5 23c0 2 0.5 29.5 5.5 30c35.5 3.5 106.5 18.5 160.5 31c0.5 0 7 2 8 2c7 0 10.5 -14 10 -19c-1.5 -10.5 -4.5 -38.5 -5.5 -47c20.5 29.5 64.5 69.5 112.5 69.5z" />
    <glyph glyph-name="s" unicode="s" horiz-adv-x="366" 
d="M190 443c43 0 76 -5.5 116 -16.5c7 -31.5 10.5 -76.5 11 -113c0 -4 -6 -7 -13 -7c-10.5 0 -23 2.5 -24 7.5c-8 39.5 -34 84 -90.5 84c-38 0 -61 -18.5 -61 -50c0 -43 39.5 -60.5 84 -84.5c46.5 -25 125.5 -61 125.5 -138c0 -87 -77.5 -136 -166.5 -136
c-45 0 -93 13.5 -128.5 28.5c-6 22 -14.5 87 -14.5 113c4 3 8.5 4.5 13.5 4.5c7 0 23.5 -0.5 24.5 -7.5c10.5 -59 60.5 -93 107 -93c35.5 0 64.5 18 64.5 55c0 48.5 -49 67.5 -111.5 101c-57 29.5 -96 65 -96 125.5c0 87 83 126.5 159.5 126.5z" />
    <glyph glyph-name="t" unicode="t" horiz-adv-x="350" 
d="M85 372h-61.5c-4.5 0 -6.5 18 -6.5 26c0 4 0 7 1.5 9c16 7.5 50.5 29 76.5 53.5c29 27.5 62 68 65.5 71.5c11 0 28 -3.5 28 -8v-98.5c44 0 107.5 -0.5 121.5 -0.5c5 0 8 -3.5 8 -9.5c0 -9 -3 -29.5 -10 -43.5h-119.5v-241c0 -53 23.5 -82 64 -82c28.5 0 54 15.5 58.5 17
c5.5 1.5 14 -19.5 13.5 -22.5c-7.5 -15 -63.5 -50.5 -114 -50.5c-62 0 -125.5 37.5 -125.5 136.5v242.5z" />
    <glyph glyph-name="u" unicode="u" horiz-adv-x="555" 
d="M464 334v-198c0 -18 1 -50.5 8.5 -69.5c8 -15.5 50.5 -13 53.5 -14c2 -1 3.5 -6.5 3.5 -9.5c0 -2 -2 -22.5 -7 -22.5c-52.5 -3 -154.5 -27 -155.5 -27c-5 0 -7 10 -7 17v44c0 5 -2.02148 5.52148 -3 4.5c-25.5 -27 -80 -64.5 -140 -64.5c-94 0 -127.5 100 -127.5 182
v111.5c0 9 -1.5 49 -16 64.5c-19 22.5 -56.5 18 -56.5 23c0 2 0.5 29.5 5.5 30c35.5 3.5 123.5 19.5 160.5 31c1 0 7 2 8 2c7 0 10.5 -14 10 -19c-4 -32 -8.5 -53 -8.5 -87v-121c0 -103.5 27 -145.5 92.5 -145.5c47 0 76 36.5 76 57v165c0 9 -1.5 49 -16 64.5
c-19 22.5 -56.5 18 -56.5 23c0 2 0.5 29.5 5.5 30c35.5 3.5 123.5 19.5 160.5 31c1 0 7 2 8 2c7 0 10.5 -14 10 -19c-4 -32 -8.5 -52 -8.5 -85.5z" />
    <glyph glyph-name="v" unicode="v" horiz-adv-x="560" 
d="M395.5 379c-9.5 19.5 -37 26.5 -69 26.5c-5 0 -4 27.5 -0.5 33c41 -2 65.5 -6.5 105.5 -6.5s66.5 4.5 107.5 6.5c1.5 -2.5 3 -10 3 -16c0 -7.5 -2 -17 -5.5 -17c-10 0 -60 -8.5 -73.5 -37l-167.5 -353.5c-3.5 -8 -18 -26 -29.5 -26c-5.5 0 -11.5 4 -12.5 6
c-67.5 153 -99 230.5 -170.5 383c-11.5 25.5 -54.5 27.5 -64.5 27.5c-2.5 0 -4 9 -4 16.5c0 6.5 1.5 13.5 4 16.5c41 -2 80.5 -6.5 120.5 -6.5s80.5 4.5 121.5 6.5c3.5 -5.5 3 -33 -2 -33c-9.5 0 -58.5 -6 -58.5 -22c0 -3.5 1 -8.5 1.5 -9.5l99.5 -229.5l90 198
c5.5 12 10.5 27 4.5 36.5z" />
    <glyph glyph-name="w" unicode="w" horiz-adv-x="815" 
d="M653.5 366.5c0 34 -49 38.5 -72 38.5h-4c-5 0 -6 28.5 -1 33.5c41 -2 75.5 -7 116.5 -7c38 0 61 5 101 7c1 -3 2.5 -12.5 2.5 -17.5c0 -6 -1.5 -15.5 -4.5 -15.5c-8 0 -62.5 -14 -74.5 -42.5l-148 -352.5c-4.5 -11.5 -19 -21.5 -32.5 -21.5c-7 0 -12 4.5 -13.5 7.5
l-121 276l-107.5 -261.5c-2 -5 -13.5 -22 -32.5 -22c-6 0 -12 3.5 -14 7.5c-68.5 152.5 -97.5 233 -172 381c-11 20.5 -46.5 27.5 -58.5 27.5c-2 0 -4 10 -4 16s1.5 15.5 3.5 17.5c41 -2 74 -6.5 115 -6.5c38 0 79.5 4.5 119.5 6.5c2 -6 4 -32.5 -1 -32.5
c-8 0 -56 -6.5 -56 -27.5c0 -7 41.5 -97 100 -230c47 117 76 184 76 196s-9 33.5 -13 39.5c-6 9 -12.5 12.5 -21.5 16.5c-10 4.5 -24.5 5 -36.5 5c-5 0 -5.5 28 -0.5 33c41 -2 71.5 -6.5 112.5 -6.5c38 0 76.5 4.5 116.5 6.5c2 -6 2.5 -33.5 -2.5 -33.5
c-15 0 -51 -3 -51 -34.5c0 -17 24.5 -72.5 94 -222.5c44 113.5 84.5 199.5 84.5 218.5z" />
    <glyph glyph-name="x" unicode="x" horiz-adv-x="566" 
d="M32.5 422.5c0 3.5 1.5 12 3.5 16c46 -2.5 72.5 -6 118.5 -6c47 0 73 3.5 120 6c1.5 -3.5 2 -9 2 -15c0 -7.5 -2 -18 -4 -18c-16 0 -42.5 -5.5 -42.5 -20.5c0 -3 1.5 -7 5 -12l63.5 -89c26.5 39 65 85 65 102c0 20 -51 18 -58 19.5c-3 0.5 -3.5 10 -3.5 17
c0 5 0.5 12 3.5 16c45.5 -2.5 70.5 -6 116 -6c41 0 64 3.5 104.5 6c1.5 -4.5 2.5 -9.5 2.5 -16c0 -7 -1 -17 -3 -17c-34 -4 -74.5 -15.5 -88 -31l-105 -125c-2 -3 -2.5 -4.5 -2.5 -7.5c0 -4 1 -7 3.5 -10.5l113.5 -154.5c23.5 -32.5 55.5 -45 82.5 -48.5
c2 0 3.5 -10.5 3.5 -17.5c0 -6 -1 -10.5 -4 -14.5c-44 2.5 -68.5 6.5 -113 6.5c-48.5 0 -76 -4 -124.5 -6.5c-1 5 -2 7.5 -2 12.5c0 8 0.5 20.5 3.5 20.5c14 1 44 10 44 25c0 2 -1 4 -2 6l-72 99.5l-63 -87.5c-5.5 -7.5 -7 -14 -7 -19c0 -19 37.5 -20.5 59.5 -24
c2 0 2.5 -10 2.5 -16.5c0 -7 -2 -14.5 -4 -16.5c-42.5 2.5 -66.5 6.5 -109 6.5c-43 0 -67.5 -4 -110.5 -6.5c-1 4 -2 10 -2 16.5s2 16.5 4 16.5c32 5 70 16 87.5 38.5l107.5 130.5c1 2.5 1.5 5 1.5 7c0 3 -1.5 5.5 -3 7.5l-115.5 156c-15.5 21 -55 36 -75 36
c-2 0 -4 14 -4 17.5z" />
    <glyph glyph-name="y" unicode="y" horiz-adv-x="524" 
d="M134 432c38 0 74 4.5 114 6.5c1 -3 2.5 -13 2.5 -18c0 -6 -1 -15 -4 -15c-10 0 -53 -10.5 -54.5 -23.5c0 -2 0.5 -5.5 0.5 -5.5c1 -14 27 -76.5 92.5 -228c14.5 31.5 61.5 158.5 75 190.5c5 13 6.5 23.5 6.5 30.5c0 15 -18.5 36 -64 36c-2 0 -4 9.5 -4 15.5
s1.5 15 3 17.5c41 -2 69 -6.5 110 -6.5c38 0 57 4.5 97 6.5c1.5 -3.5 3 -9 3 -16c0 -6 -1 -17 -4 -17c-8 0 -61.5 -8 -74.5 -39l-182.5 -443c-55.9277 -130.526 -117.5 -146 -149.5 -146c-37 0 -54 26 -54 46c0 19 8.5 32.5 18.5 39.5c67 0 114.548 24.1543 137.5 82
c12.0918 30.2275 16.5 40 27 68l-146 340c-1.5 3.5 -8 18.5 -12.5 23c-14 22.5 -49.5 29.5 -61.5 29.5c-2 0 -4 8 -4 14s1 17 3 19c41 -2 84 -6.5 125 -6.5z" />
    <glyph glyph-name="z" unicode="z" horiz-adv-x="431" 
d="M158.5 54c0 -5 10 -7 12 -7h96.5c61 0 86 35.5 100 78c2 6.5 12.5 10 17.5 10c9 0 17 -3.5 20 -8l-19 -127h-339.5s-20 12 -20 23c0 1 0 3 1 4l230.5 349.5l-105 1c-57 0.5 -73.5 -53.5 -81.5 -71.5c-2 -4 -14.5 -6 -24.5 -6c-6 0 -11.5 0.5 -11.5 2.5
c0 14 13 74.5 16 127.5c0 0 59 -6 95 -6h122c54 0 84.5 3 125.5 8c5 -8 3 -19 3 -24l-231 -340c-5 -7 -7 -11 -7 -14z" />
    <glyph glyph-name="braceleft" unicode="{" horiz-adv-x="290" 
d="M26 292c-2 4 -4 11 -4 18c0 6 1 13 4 18c44 11 88 25 88 78c0 52 -34 107 -34 168c0 114 99 176 184 176c3 0 4 -6 4 -10c0 -8 -2 -20 -8 -21c-31 -2 -92 -41 -92 -106c0 -73 34 -101 34 -185c0 -65 -46 -120 -82 -120c36 0 82 -51 82 -116c0 -84 -34 -101 -34 -174
c0 -65 61 -110 92 -112c6 -1 8 -14 8 -22c0 -4 -1 -9 -4 -9c-85 0 -182 77 -182 181c0 59 32 111 32 163c0 53 -46 60 -88 73z" />
    <glyph glyph-name="bar" unicode="|" horiz-adv-x="145" 
d="M111 -106c0 -7 -68 -16 -70 -16c-7 0 -6 3 -6 7v872s-1 6 5 8c17 5 59 7 62 7c9 0 8 -6 8 -6z" />
    <glyph glyph-name="braceright" unicode="}" horiz-adv-x="289" 
d="M264 292c-42 -13 -88 -20 -88 -73c0 -52 32 -104 32 -163c0 -104 -98 -181 -183 -181c-3 0 -4 5 -4 9c0 8 3 21 9 22c31 2 91 47 91 112c0 73 -34 90 -34 174c0 65 47 116 83 116c-36 0 -82 55 -82 120c0 84 33 112 33 185c0 65 -60 104 -91 106c-6 1 -9 13 -9 21
c0 4 1 10 4 10c85 0 185 -62 185 -176c0 -61 -34 -116 -34 -168c0 -53 43 -67 87 -78c3 -5 4 -12 4 -18c0 -7 -1 -14 -3 -18z" />
    <glyph glyph-name="asciitilde" unicode="~" horiz-adv-x="520" 
d="M37 256c-6 3 -9 14 -9 22c0 15 12 32 24 40c32 23 62 38 106 38c94 0 142 -52 236 -52c39 0 61 21 90 44c6 -3 9 -14 9 -22c0 -15 -11 -31 -23 -40c-34 -26 -61 -38 -105 -38c-95 0 -142 52 -237 52c-39 0 -62 -21 -91 -44z" />
    <glyph glyph-name="uni00A0" unicode="&#xa0;" horiz-adv-x="209" 
 />
    <glyph glyph-name="exclamdown" unicode="&#xa1;" horiz-adv-x="179" 
d="M91 -231c-34 0 -56 29 -56 65c0 40 23 230 36 394c2 16 6 24 18 28c11 2 21 -10 23 -26c16 -198 35 -356 35 -396c0 -38 -24 -65 -56 -65zM25 370c0 38 32 68 66 68c36 0 64 -32 64 -68s-29 -66 -66 -66c-35 0 -64 29 -64 66z" />
    <glyph glyph-name="cent" unicode="&#xa2;" horiz-adv-x="463" 
d="M277 474c8 0 37 -1 37 -8l-83 -511c-9 0 -37 2 -37 9zM259.5 441c78 0 138 -31.5 154 -56.5c0 -48 -15 -77.5 -45 -77.5c-22.5 0 -35.0938 17.0049 -49 41c-16.5 26.5 -33.5 48 -73.5 48c-58 0 -94 -63 -94 -152.5c0 -128 59 -181 133 -181c72.5 0 112 38.5 127 48
c3 -1 7.5 -10 7.5 -16.5c0 -6 -2 -15 -5 -19c-16.5 -24 -78 -82.5 -159.5 -82.5c-119 0 -212 89 -212 226c0 116.5 91 222.5 216.5 222.5z" />
    <glyph glyph-name="sterling" unicode="&#xa3;" horiz-adv-x="482" 
d="M54 327h272.5c4 0 5 -5 5 -10c0 -6 -4 -25.5 -15 -32.5h-263.5c-4 0 -5 8 -5 13c0 6 0 20.5 6 29.5zM286 638.5c44.5 0 84.5 -15.5 100.5 -39.5c0 -26 -6 -72 -41 -72c-44 0 -47 64.5 -91.5 64.5c-59.5 0 -74 -56.5 -74 -127.5c0 -46.5 19.5 -154 19.5 -205
c0 -69 -15 -122 -43 -165.5c18 7.5 36 9 61.5 9c54 0 112 -31 147 -31c41 0 57 41.5 75 70.5c7 0 18.5 -9.5 18.5 -20c0 -4.5 -0.769531 -9.02734 -1.5 -11c-11.5 -37.5 -46.5 -119 -117.5 -119c-65 0 -136.5 35.5 -186.5 35.5c-37.5 0 -64.5 -24 -81 -36
c-18.5 2.5 -26 17.5 -26 23.5c13.4238 23.1348 32 43 49.5 67.5c14.873 33.2979 14 107.663 14 151c0 39 -19 145 -19 197.5c0 124 84.5 207.5 195.5 207.5z" />
    <glyph glyph-name="currency" unicode="&#xa4;" horiz-adv-x="468" 
d="M243 158c56 0 84 65 84 128c0 84 -33 172 -103 172c-56 0 -83 -68 -83 -132c0 -83 34 -168 102 -168zM347 458l55 52c8 8 37 -22 43 -46l-55 -51c20 -30 33 -67 33 -105c0 -42 -14 -82 -38 -114l50 -52c8 -8 -22 -37 -46 -43l-50 53c-30 -20 -65 -32 -105 -32
c-44 0 -84 14 -116 38l-53 -49c-8 -8 -36 22 -42 46l52 49c-20 30 -30 66 -30 104c0 44 15 84 39 116l-51 54c-8 8 22 36 46 42l51 -54c30 20 66 31 104 31c43 0 81 -15 113 -39z" />
    <glyph glyph-name="yen" unicode="&#xa5;" horiz-adv-x="673" 
d="M154.5 636c48.5 0 94.5 4 134 6c2 -6 3 -32 -2 -32c-14 0 -55 -6.5 -55.5 -26.5c0 -7 4.17676 -16.7402 9 -25.5l104.5 -191.5c5 -5 7.97559 -0.983398 10 2c42.5 63.5 120.5 188 120.5 215c0 13 -24 26.5 -65.5 26.5c-5 0 -5.5 27 -0.5 32c33 -2 70 -6 106.5 -6
c51 0 91.5 4 125.5 6c1 -3 2.5 -11.5 2.5 -16.5c0 -6 -1 -15 -4 -15c-13.5 0 -68 -10 -85.5 -32.5c-22.5 -33 -176 -275 -176 -295v-26.5h80.5c4 0 5 -7.5 5 -12.5c0 -8.5 -1 -21 -6 -29h-79.5v-38h80.5c4 0 5 -7.5 5 -12.5c0 -8.5 -1 -21 -6 -29h-79.4746
c0.135742 -27.4658 0.888672 -58.0938 7.47559 -83.5c3 -11 52.5 -23.5 60.5 -23.5c3 0 4 -9.5 4 -15.5c0 -5.5 -1 -13.5 -2 -16.5c-39.5 2 -80.5 6.5 -123.5 6.5c-45 0 -84.5 -4.5 -129.5 -6.5c-2 2 -4 9 -4 14.5c0 6.5 1 17.5 3.5 17.5c12 0 59 11.5 64 23.5
c5.71191 21.8945 7.38086 57.8262 7.4834 83.5h-80.9844c-4 0 -5 8 -5 13c0 6 1 18.5 6 28.5h80v38h-81c-4 0 -5 8 -5 13c0 6 1 18.5 6 28.5h80c0 1.5 0 22 -0.5 23c-1.5 14 -71 134.5 -133 245c-17.3867 32.3838 -31 52 -48.5 67.5c-13.877 11.4258 -46.5 18 -58.5 18
c-3.5 0 -4.5 18.5 -2 24c24.5 2 82.5 2 131 2z" />
    <glyph glyph-name="brokenbar" unicode="&#xa6;" horiz-adv-x="143" 
d="M110 414c0 -7 -68 -16 -70 -16c-7 0 -6 3 -6 7v352s-1 6 5 8c17 5 59 7 62 7c9 0 8 -6 8 -6zM110 -106c0 -7 -68 -16 -70 -16c-7 0 -6 3 -6 7v352s-1 6 5 8c17 5 59 7 62 7c9 0 8 -6 8 -6z" />
    <glyph glyph-name="section" unicode="&#xa7;" horiz-adv-x="394" 
d="M368 276c0 -68 -40 -116 -63 -132c5 -11 13 -33 13 -54c0 -106 -92 -131 -149 -131c-50 0 -83 20 -93 35c0 4 -1 12 -1 16c0 39 19 48 32 48c34 0 49 -50 94 -50c36 0 62 20 62 52c0 123 -238 96 -238 278c0 69 29 105 61 128c-7 12 -12 34 -12 52c0 90 71 133 149 133
c50 0 82 -22 92 -37c0 -4 2 -12 2 -16c0 -39 -16 -48 -34 -48c-30 0 -46 52 -91 52c-28 0 -63 -12 -63 -54c0 -119 239 -92 239 -272zM289 179c12 12 22 23 22 46c0 108 -154 113 -208 205c-15 -12 -20 -32 -20 -48c0 -111 149 -106 206 -203z" />
    <glyph glyph-name="dieresis" unicode="&#xa8;" horiz-adv-x="366" 
d="M229 514c0 32 26 59 58 59s59 -27 59 -59s-27 -58 -59 -58s-58 26 -58 58zM27 514c0 32 26 59 58 59s59 -27 59 -59s-27 -58 -59 -58s-58 26 -58 58z" />
    <glyph glyph-name="copyright" unicode="&#xa9;" horiz-adv-x="600" 
d="M65 342c0 -130 106 -235 236 -235s235 105 235 235s-105 235 -235 235s-236 -105 -236 -235zM27 342c0 151 122 273 273 273s274 -122 274 -273s-123 -273 -274 -273s-273 122 -273 273zM419 272c0 -4 -11 -52 -20 -56c-28 -14 -60 -19 -100 -19c-78 0 -138 63 -138 139
c0 79 58 146 140 146c29 0 73 -6 104 -16c2 0 12 -60 12 -64s-7 -6 -12 -6c-4 0 -8 1 -10 2c-4 14 -23 52 -88 52c-51 0 -82 -50 -82 -104c0 -70 42 -118 94 -118c29 0 50 6 62 17c12 12 18 31 20 31c3 0 16 0 18 -4z" />
    <glyph glyph-name="ordfeminine" unicode="&#xaa;" horiz-adv-x="330" 
d="M184 325v68c-31 -12 -83 -19 -83 -57c0 -30 18 -43 38 -43c25 0 45 16 45 32zM255 322c0 -18 5 -32 23 -32c14 0 21 10 23 10s4 -4 4 -6c0 -6 -3 -16 -5 -22c-11 -8 -35 -22 -59 -22c-22 0 -44 20 -50 36c-4 -2 -39 -38 -87 -38c-50 0 -77 32 -77 76c0 66 98 82 151 100
c4 1 6 6 6 11v41c0 30 -17 48 -39 48c-25 0 -46 -19 -46 -52c0 -14 -21 -20 -37 -20c-18 0 -30 8 -30 22c0 36 68 82 132 82c56 0 91 -23 91 -96v-138z" />
    <glyph glyph-name="guillemotleft" unicode="&#xab;" horiz-adv-x="470" 
d="M299 248c9 -8 65 -67 80 -81c54 -52 67 -63 67 -73c0 -12 -23 -19 -29 -21c-1 2 -59 59 -206 154c-5 2 -7 8 -7 14c0 10 1 19 8 27c131 79 203 153 206 155c14 -4 29 -14 29 -22s-12 -20 -68 -73zM120 248c9 -8 64 -67 79 -81c54 -52 68 -63 68 -73
c0 -12 -23 -19 -29 -21c-1 2 -59 59 -206 154c-5 2 -7 8 -7 14c0 10 1 19 8 27c131 79 203 153 206 155c14 -4 29 -14 29 -22s-11 -20 -67 -73z" />
    <glyph glyph-name="logicalnot" unicode="&#xac;" horiz-adv-x="535" 
d="M28 370c0 0 5 54 15 54h446c6 0 12 -2 12 -12v-243c-1 -1 -3 -8 -54 -15h-4c-10 0 -6 7 -6 7v189c0 4 -5 10 -12 10h-391s-6 0 -6 10z" />
    <glyph glyph-name="registered" unicode="&#xae;" horiz-adv-x="599" 
d="M264 321c0 0 1 -28 4 -40c1 -5 22 -10 25 -10c2 0 3 -10 1 -13c-17 1 -42 3 -61 3c-20 0 -40 -2 -60 -3c-1 1 -1 3 -1 6s0 7 1 7c5 0 25 5 27 10c3 10 3 29 3 37v168c0 8 0 26 -3 36c-2 5 -22 10 -27 10c-1 0 -1 3 -1 6s0 7 1 8c10 0 49 -4 60 -4c26 0 35 3 61 3
c35 0 99 -13 99 -74c0 -33 -17 -63 -44 -74c-2 -1 -3 -5 -2 -7c10 -26 33 -62 60 -91c18 -20 30 -28 46 -28c1 -2 2 -5 2 -7c0 -3 1 -3 -1 -6c-3 -1 -9 -1 -12 -1c-62 0 -96 35 -119 67c-26 36 -35 57 -46 64c-2 2 -4 1 -6 1c-3 0 -7 0 -7 -7v-61zM296 410c17 0 38 19 38 54
c0 41 -19 58 -39 58c-10 0 -21 0 -27 -2c-2 0 -3 -2 -3 -4c-1 -12 -1 -13 -1 -40v-51c0 -15 11 -15 33 -15h-1zM65 404c0 -130 106 -235 236 -235s235 105 235 235s-105 235 -235 235s-236 -105 -236 -235zM27 404c0 151 122 273 273 273s274 -122 274 -273
s-123 -273 -274 -273s-273 122 -273 273z" />
    <glyph glyph-name="macron" unicode="&#xaf;" horiz-adv-x="384" 
d="M68 541c0 2 3 57 14 57h229c2 0 5 -1 5 -7c0 -5 -3 -34 -8 -52c-2 -6 -7 -7 -7 -7h-227s-6 -1 -6 9z" />
    <glyph glyph-name="degree" unicode="&#xb0;" horiz-adv-x="234" 
d="M59 536c0 -32 26 -58 58 -58s57 26 57 58s-25 57 -57 57s-58 -25 -58 -57zM18 536c0 54 45 98 99 98s98 -44 98 -98s-44 -99 -98 -99s-99 45 -99 99z" />
    <glyph glyph-name="plusminus" unicode="&#xb1;" horiz-adv-x="532" 
d="M489 4h-456s-6 0 -6 10c0 4 1 25 8 49c2 6 7 5 7 5h456c4 0 8 1 8 -6c0 -9 -4 -30 -10 -52c-2 -6 -7 -6 -7 -6zM298 306v-188s-7 -10 -52 -16c-3 0 -4 -1 -6 -1c-6 0 -6 4 -6 8v195c0 2 -1 5 -6 5h-195s-6 0 -6 10c0 4 1 25 8 49c2 6 7 5 7 5h187c3 0 5 4 5 6v186
s-1 5 5 7c24 7 45 8 49 8c10 0 10 -6 10 -6v-196c0 -3 1 -5 4 -5h196c4 0 8 1 8 -6c0 -9 -4 -30 -10 -52c-2 -6 -7 -6 -7 -6h-187c-3 0 -4 -1 -4 -3z" />
    <glyph glyph-name="uni00B2" unicode="&#xb2;" horiz-adv-x="328" 
d="M134 590c-34 0 -63 -33 -75 -44c-6 -2 -20 18 -20 25c0 3 0 5 1 7c17 26 68 68 124 68c63 0 110 -46 110 -108c0 -89 -98 -163 -168 -218c-2 -2 -1 -6 2 -6h125c40 0 39 24 48 41c1 3 2 3 6 3c3 0 14 -1 17 -5c-9 -30 -17 -69 -24 -99h-114h-128c-5 4 -12 12 -12 23
c0 3 1 7 2 11c70 73 164 175 164 242c0 25 -19 60 -58 60z" />
    <glyph glyph-name="uni00B3" unicode="&#xb3;" horiz-adv-x="294" 
d="M166 646c30 0 84 -22 84 -74c0 -46 -40 -76 -70 -94c26 0 88 -36 88 -104c0 -91 -79 -128 -162 -128c-40 0 -69 14 -78 24c-1 2 -2 9 -2 12c0 19 16 34 32 34c28 0 36 -34 68 -34c40 0 76 28 76 86c0 53 -27 74 -71 74c-16 0 -15 -1 -37 -3c-4 4 -8 12 -8 17
c0 4 2 11 6 13c47 10 84 34 84 85c0 27 -23 42 -44 42c-38 0 -60 -38 -70 -38c-8 0 -18 24 -16 28c22 32 70 60 120 60z" />
    <glyph glyph-name="acute" unicode="&#xb4;" horiz-adv-x="247" 
d="M215 660c0 -39 -146 -136 -156 -136c-7 0 -15 10 -15 16c0 5 56 95 93 138c5 5 20 9 34 9c35 0 44 -21 44 -27z" />
    <glyph glyph-name="uni00B5" unicode="&#xb5;" horiz-adv-x="513" 
d="M179.5 -9c-42 0 -56 51 -68 85c2 -25 0 -165 22 -283c-5 -8 -22 -20 -37 -20c-14.5 0 -61.5 24 -61.5 37c0 18 9 290 21 394c0 24 -4 71 -4 94c0 13 0.5 86.5 0 123.5c5 8 25.5 20 37.5 20c10 0 58.5 -24 58.5 -37c0 -14 -1 -59.5 -20 -148.5l-5.5 -33
c0 -79 21 -146 57 -146c67 0 99.5 80.5 115 150v71c0 13 1 85.5 0 123.5c5 8 25 20 37 20c10 0 64.5 -24 64.5 -37c0 -18 -4 -69.5 -23 -158.5c-1 -6 -5 -23 -5 -23c-1 -82 8 -150.5 54 -150.5c26 0 52.5 21.5 59.5 30.5c3 0 8.5 -6.5 11.5 -11.5c2 -4 3 -12.5 3 -15.5
c-13 -44 -53 -80 -93 -80c-48 1 -72.5 68 -81.5 132c-30 -70 -72 -137 -142 -137z" />
    <glyph glyph-name="paragraph" unicode="&#xb6;" horiz-adv-x="468" 
d="M276 274l2 -221c0 -9 11 -13 21 -13s17 8 17 14c3 34 4 123 4 229c0 3 -2 4 -4 4c-4 0 -15 -3 -32 -5c-6 -1 -8 -3 -8 -8zM206 652c59 0 52 -4 111 -4c67 0 117 6 117 6c5 -5 3 -31 -2 -31c-12 0 -53 -7 -58 -19c-2 -7 -3 -53 -3 -104c0 -61 1 -132 1 -151
c0 -4 3 -6 5 -5c9 1 43 9 43 9c2 -4 4 -12 4 -16c0 -10 -7 -21 -20 -27c-4 -2 -21 -7 -26 -8c-2 -1 -5 -3 -5 -5c0 -29 0 -223 7 -249c5 -12 47 -22 59 -22c2 0 4 -6 4 -12s-2 -16 -4 -18c-63 2 -98 6 -161 6c-46 0 -79 -4 -119 -6c-2 6 -3 30 2 30c8 0 53 11 56 22
c4 17 5 74 5 135v87c0 7 -7 7 -20 7c-115 0 -176 97 -176 187c0 126 98 188 180 188zM278 597c0 0 -2 -160 -2 -262c0 -3 3 -5 8 -5c12 0 27 4 30 5s6 3 6 7c0 126 -1 243 -2 256c0 4 -10 11 -20 11s-20 -1 -20 -12z" />
    <glyph glyph-name="periodcentered" unicode="&#xb7;" horiz-adv-x="220" 
d="M182 267c0 -36 -29 -68 -66 -68c-38 0 -68 32 -68 68s31 67 68 67c36 0 66 -31 66 -67z" />
    <glyph glyph-name="cedilla" unicode="&#xb8;" horiz-adv-x="443" 
d="M223 -28c0 0 18 1 22 1c28 0 49 -24 49 -50c0 -47 -40 -77 -96 -77c-17 0 -34 6 -40 12c-1 4 -3 11 -3 16c0 7 7 14 11 14c8 0 24 -14 43 -14c28 0 41 15 41 31c0 19 -13 31 -28 31c-8 0 -18 -2 -28 -6c-2 0 -14 10 -12 14c9 15 22 39 30 53h27z" />
    <glyph glyph-name="uni00B9" unicode="&#xb9;" horiz-adv-x="273" 
d="M37 548c-6 2 -14 8 -14 18c0 2 -1 8 1 9c90 40 153 75 155 75h1c5 0 14 -19 15 -22c-2 -6 -12 -43 -12 -82v-210c0 -20 3 -30 10 -42c6 -8 44 -14 50 -14c2 0 4 -10 4 -16c0 -4 -1 -10 -2 -12c-32 1 -68 4 -100 4s-75 -3 -107 -4c-4 3 -4 28 0 28c10 0 48 6 53 14
c5 10 9 21 9 32v198c0 36 -8 40 -16 40c-10 0 -31 -10 -47 -16z" />
    <glyph glyph-name="ordmasculine" unicode="&#xba;" horiz-adv-x="368" 
d="M177 523c-49 0 -68 -58 -68 -107c0 -63 21 -139 84 -139c48 0 66 59 66 107c0 63 -19 139 -82 139zM185 554c88 0 157 -70 157 -154s-69 -153 -157 -153s-158 69 -158 153c0 85 70 154 158 154z" />
    <glyph glyph-name="guillemotright" unicode="&#xbb;" horiz-adv-x="473" 
d="M173 248l-80 80c-56 53 -68 65 -68 73s15 18 29 22c3 -2 75 -76 206 -155c7 -8 8 -17 8 -27c0 -6 -2 -12 -7 -14c-147 -95 -205 -152 -206 -154c-6 2 -29 9 -29 21c0 10 13 21 67 73c15 14 71 73 80 81zM352 248l-81 80c-56 53 -67 65 -67 73s15 18 29 22
c3 -2 75 -76 206 -155c7 -8 8 -17 8 -27c0 -6 -2 -12 -7 -14c-147 -95 -205 -152 -206 -154c-6 2 -29 9 -29 21c0 10 14 21 68 73c15 14 70 73 79 81z" />
    <glyph glyph-name="onequarter" unicode="&#xbc;" horiz-adv-x="680" 
d="M36 548c-6 2 -14 8 -14 18c0 2 -1 8 1 9c90 40 153 75 155 75h1c5 0 14 -19 15 -22c-2 -6 -12 -43 -12 -82v-210c0 -20 3 -30 10 -42c6 -8 44 -14 50 -14c2 0 4 -10 4 -16c0 -4 -1 -10 -2 -12c-32 1 -68 4 -100 4s-75 -3 -107 -4c-4 3 -4 28 0 28c10 0 48 6 53 14
c5 10 9 21 9 32v198c0 36 -8 40 -16 40c-10 0 -31 -10 -47 -16zM580 -4c-29 0 -41 3 -41 8v100c-1 3 -3 4 -5 4h-153c-6 4 -11 14 -11 24l210 257c4 5 13 9 21 9c9 0 17 -3 17 -8v-230c0 -3 2 -4 6 -4h22c8 0 12 -16 12 -44c0 -4 -6 -6 -6 -6h-30c-2 0 -4 -2 -4 -5v-100
c-2 -2 -12 -5 -38 -5zM539 284c0 1 -44 -53 -45 -54l-54 -66c-1 -2 2 -7 4 -7h92c2 0 3 0 3 2v125zM521 643c1 2 3 3 6 3c18 0 37 -19 37 -26c0 -1 -1 -2 -1 -3l-348 -631c-1 -1 -3 -2 -5 -2c-17 0 -36 20 -36 24c0 1 -1 2 0 3z" />
    <glyph glyph-name="onehalf" unicode="&#xbd;" horiz-adv-x="705" 
d="M513 336c-34 0 -63 -33 -75 -44c-6 -2 -20 18 -20 25c0 3 0 5 1 7c17 26 67 68 123 68c63 0 110 -46 110 -108c0 -89 -98 -163 -168 -218c-2 -2 -1 -8 2 -8h126c40 0 39 26 48 43c1 3 2 3 6 3c3 0 14 -1 17 -5c-9 -30 -18 -69 -25 -99h-114h-127c-5 4 -12 12 -12 23
c0 3 1 7 2 11c70 73 163 175 163 242c0 25 -18 60 -57 60zM36 548c-6 2 -14 8 -14 18c0 2 -1 8 1 9c90 40 153 75 155 75h1c5 0 14 -19 15 -22c-2 -6 -12 -43 -12 -82v-210c0 -20 3 -30 10 -42c6 -8 44 -14 50 -14c2 0 4 -10 4 -16c0 -4 -1 -10 -2 -12c-32 1 -68 4 -100 4
s-75 -3 -107 -4c-4 3 -4 28 0 28c10 0 48 6 53 14c5 10 9 21 9 32v198c0 36 -8 40 -16 40c-10 0 -31 -10 -47 -16zM506 643c1 2 3 3 6 3c18 0 37 -19 37 -26c0 -1 -1 -2 -1 -3l-348 -631c-1 -1 -3 -2 -5 -2c-17 0 -36 20 -36 24c0 1 -1 2 0 3z" />
    <glyph glyph-name="threequarters" unicode="&#xbe;" horiz-adv-x="691" 
d="M532 643c1 2 3 3 6 3c18 0 37 -19 37 -26c0 -1 -1 -2 -1 -3l-348 -631c-1 -1 -3 -2 -5 -2c-17 0 -36 20 -36 24c0 1 -1 2 0 3zM163 646c30 0 83 -22 83 -74c0 -46 -39 -76 -69 -94c26 0 100 -26 100 -94c0 -91 -92 -138 -175 -138c-40 0 -69 14 -78 24c-1 2 -1 9 -1 12
c0 19 15 34 31 34c28 0 36 -34 68 -34c40 0 77 28 77 86c0 53 -28 74 -72 74c-16 0 -15 -1 -37 -3c-4 4 -7 12 -7 17c0 4 1 11 5 13c47 10 83 34 83 85c0 27 -22 42 -43 42c-38 0 -59 -38 -69 -38c-8 0 -18 24 -16 28c22 32 70 60 120 60zM591 -4c-29 0 -41 3 -41 8v100
c-1 3 -3 4 -5 4h-153c-6 4 -11 14 -11 24l210 257c4 5 13 9 21 9c9 0 17 -3 17 -8v-230c0 -3 2 -4 6 -4h22c8 0 12 -16 12 -44c0 -4 -6 -6 -6 -6h-30c-2 0 -4 -2 -4 -5v-100c-2 -2 -12 -5 -38 -5zM550 284c0 1 -44 -53 -45 -54l-54 -66c-1 -2 2 -7 4 -7h92c2 0 3 0 3 2v125z
" />
    <glyph glyph-name="questiondown" unicode="&#xbf;" horiz-adv-x="325" 
d="M250 -218c-114 0 -227 70 -227 184c0 92 44 129 110 162c34 17 74 34 80 56c5 16 0 46 5 55c5 8 15 11 26 11c10 0 14 -52 14 -86c0 -70 -15 -86 -57 -114c-32 -22 -111 -46 -111 -106c0 -39 32 -69 71 -69c31 0 49 10 80 10s60 -22 60 -53c0 -15 -3 -28 -6 -38
c-13 -6 -27 -12 -45 -12zM168 370c0 36 29 68 66 68c38 0 68 -32 68 -68s-31 -67 -68 -67c-36 0 -66 31 -66 67z" />
    <glyph glyph-name="Agrave" unicode="&#xc0;" horiz-adv-x="736" 
d="M408 745c0 -8 -6 -17 -12 -17c-16 0 -180 68 -180 104c0 20 26 33 54 33c8 0 14 -1 18 -3c40 -30 120 -109 120 -117zM391 660l210 -524c14 -37 21 -53 30 -73c10 -24 62 -33 70 -33c3 0 4 -12 4 -18c0 -5 0 -12 -2 -15c-40 2 -82 6 -126 6c-46 0 -89 -4 -130 -6
c-5 5 -5 33 0 33c12 0 52 8 58 20c2 4 3 7 3 13c0 20 -14 56 -19 69c-6 14 -35 93 -35 93s-4 4 -7 4c-32 2 -61 2 -86 2c-41 0 -74 -1 -114 -3c-2 0 -6 -3 -6 -4l-38 -93c-11 -30 -19 -51 -19 -65c0 -13 6 -17 11 -20c14 -9 54 -16 62 -16c5 0 3 -27 1 -33
c-40 2 -71 6 -115 6c-46 0 -66 -4 -112 -6c-2 2 -4 9 -4 15s0 18 2 18c12 0 62 12 72 28c18 28 31 60 38 78l186 450c12 32 27 79 54 79c4 0 10 -3 12 -5zM271 288c23 -2 49 -3 72 -3c31 0 51 1 82 3c2 0 2 4 2 4l-76 200l-82 -200s0 -4 2 -4z" />
    <glyph glyph-name="Aacute" unicode="&#xc1;" horiz-adv-x="736" 
d="M319 745c0 8 80 87 120 117c4 2 10 3 18 3c28 0 54 -13 54 -33c0 -36 -164 -104 -180 -104c-6 0 -12 9 -12 17zM391 660l210 -524c14 -37 21 -53 30 -73c10 -24 62 -33 70 -33c3 0 4 -12 4 -18c0 -5 0 -12 -2 -15c-40 2 -82 6 -126 6c-46 0 -89 -4 -130 -6
c-5 5 -5 33 0 33c12 0 52 8 58 20c2 4 3 7 3 13c0 20 -14 56 -19 69c-6 14 -35 93 -35 93s-4 4 -7 4c-32 2 -61 2 -86 2c-41 0 -74 -1 -114 -3c-2 0 -6 -3 -6 -4l-38 -93c-11 -30 -19 -51 -19 -65c0 -13 6 -17 11 -20c14 -9 54 -16 62 -16c5 0 3 -27 1 -33
c-40 2 -71 6 -115 6c-46 0 -66 -4 -112 -6c-2 2 -4 9 -4 15s0 18 2 18c12 0 62 12 72 28c18 28 31 60 38 78l186 450c12 32 27 79 54 79c4 0 10 -3 12 -5zM271 288c23 -2 49 -3 72 -3c31 0 51 1 82 3c2 0 2 4 2 4l-76 200l-82 -200s0 -4 2 -4z" />
    <glyph glyph-name="Acircumflex" unicode="&#xc2;" horiz-adv-x="736" 
d="M479 728c-12 0 -81 40 -112 60c-31 -22 -100 -60 -112 -60c-7 0 -10 13 -10 19c8 8 31 25 68 61c20 19 32 33 42 47c5 6 8 9 12 9s8 -4 12 -9c12 -14 24 -29 41 -46c38 -37 65 -58 69 -62c0 -8 -4 -19 -10 -19zM391 660l210 -524c14 -37 21 -53 30 -73
c10 -24 62 -33 70 -33c3 0 4 -12 4 -18c0 -5 0 -12 -2 -15c-40 2 -82 6 -126 6c-46 0 -89 -4 -130 -6c-5 5 -5 33 0 33c12 0 52 8 58 20c2 4 3 7 3 13c0 20 -14 56 -19 69c-6 14 -35 93 -35 93s-4 4 -7 4c-32 2 -61 2 -86 2c-41 0 -74 -1 -114 -3c-2 0 -6 -3 -6 -4l-38 -93
c-11 -30 -19 -51 -19 -65c0 -13 6 -17 11 -20c14 -9 54 -16 62 -16c5 0 3 -27 1 -33c-40 2 -71 6 -115 6c-46 0 -66 -4 -112 -6c-2 2 -4 9 -4 15s0 18 2 18c12 0 62 12 72 28c18 28 31 60 38 78l186 450c12 32 27 79 54 79c4 0 10 -3 12 -5zM271 288c23 -2 49 -3 72 -3
c31 0 51 1 82 3c2 0 2 4 2 4l-76 200l-82 -200s0 -4 2 -4z" />
    <glyph glyph-name="Atilde" unicode="&#xc3;" horiz-adv-x="736" 
d="M183 738c-8 0 -8 12 -8 19c0 17 10 32 18 44c24 30 49 46 83 46c72 0 110 -61 182 -61c31 0 59 51 69 51c4 0 7 -11 7 -20c0 -14 -9 -32 -17 -44c-24 -32 -48 -45 -82 -45c-73 0 -109 61 -182 61c-30 0 -60 -51 -70 -51zM391 660l210 -524c14 -37 21 -53 30 -73
c10 -24 62 -33 70 -33c3 0 4 -12 4 -18c0 -5 0 -12 -2 -15c-40 2 -82 6 -126 6c-46 0 -89 -4 -130 -6c-5 5 -5 33 0 33c12 0 52 8 58 20c2 4 3 7 3 13c0 20 -14 56 -19 69c-6 14 -35 93 -35 93s-4 4 -7 4c-32 2 -61 2 -86 2c-41 0 -74 -1 -114 -3c-2 0 -6 -3 -6 -4l-38 -93
c-11 -30 -19 -51 -19 -65c0 -13 6 -17 11 -20c14 -9 54 -16 62 -16c5 0 3 -27 1 -33c-40 2 -71 6 -115 6c-46 0 -66 -4 -112 -6c-2 2 -4 9 -4 15s0 18 2 18c12 0 62 12 72 28c18 28 31 60 38 78l186 450c12 32 27 79 54 79c4 0 10 -3 12 -5zM271 288c23 -2 49 -3 72 -3
c31 0 51 1 82 3c2 0 2 4 2 4l-76 200l-82 -200s0 -4 2 -4z" />
    <glyph glyph-name="Adieresis" unicode="&#xc4;" horiz-adv-x="736" 
d="M420 790c0 34 28 62 62 62s62 -28 62 -62s-28 -62 -62 -62s-62 28 -62 62zM214 790c0 34 28 62 62 62s62 -28 62 -62s-28 -62 -62 -62s-62 28 -62 62zM391 660l210 -524c14 -37 21 -53 30 -73c10 -24 62 -33 70 -33c3 0 4 -12 4 -18c0 -5 0 -12 -2 -15
c-40 2 -82 6 -126 6c-46 0 -89 -4 -130 -6c-5 5 -5 33 0 33c12 0 52 8 58 20c2 4 3 7 3 13c0 20 -14 56 -19 69c-6 14 -35 93 -35 93s-4 4 -7 4c-32 2 -61 2 -86 2c-41 0 -74 -1 -114 -3c-2 0 -6 -3 -6 -4l-38 -93c-11 -30 -19 -51 -19 -65c0 -13 6 -17 11 -20
c14 -9 54 -16 62 -16c5 0 3 -27 1 -33c-40 2 -71 6 -115 6c-46 0 -66 -4 -112 -6c-2 2 -4 9 -4 15s0 18 2 18c12 0 62 12 72 28c18 28 31 60 38 78l186 450c12 32 27 79 54 79c4 0 10 -3 12 -5zM271 288c23 -2 49 -3 72 -3c31 0 51 1 82 3c2 0 2 4 2 4l-76 200l-82 -200
s0 -4 2 -4z" />
    <glyph glyph-name="Aring" unicode="&#xc5;" horiz-adv-x="736" 
d="M321 759c0 -30 24 -55 54 -55s53 25 53 55s-23 54 -53 54s-54 -24 -54 -54zM281 759c0 52 43 93 94 93s92 -41 92 -93s-41 -95 -92 -95s-94 43 -94 95zM391 660l210 -524c14 -37 21 -53 30 -73c10 -24 62 -33 70 -33c3 0 4 -12 4 -18c0 -5 0 -12 -2 -15
c-40 2 -82 6 -126 6c-46 0 -89 -4 -130 -6c-5 5 -5 33 0 33c12 0 52 8 58 20c2 4 3 7 3 13c0 20 -14 56 -19 69c-6 14 -35 93 -35 93s-4 4 -7 4c-32 2 -61 2 -86 2c-41 0 -74 -1 -114 -3c-2 0 -6 -3 -6 -4l-38 -93c-11 -30 -19 -51 -19 -65c0 -13 6 -17 11 -20
c14 -9 54 -16 62 -16c5 0 3 -27 1 -33c-40 2 -71 6 -115 6c-46 0 -66 -4 -112 -6c-2 2 -4 9 -4 15s0 18 2 18c12 0 62 12 72 28c18 28 31 60 38 78l186 450c12 32 27 79 54 79c4 0 10 -3 12 -5zM271 288c23 -2 49 -3 72 -3c31 0 51 1 82 3c2 0 2 4 2 4l-76 200l-82 -200
s0 -4 2 -4z" />
    <glyph glyph-name="AE" unicode="&#xc6;" horiz-adv-x="914" 
d="M446 496c0 2 -1 4 -4 4s-6 -2 -8 -6l-127 -204s-1 -4 1 -4c23 -2 48 -3 71 -3c31 0 21 1 52 3c2 0 15 3 15 10v200zM425 584c3 5 5 11 5 16c0 1 -1 3 -2 5c-6 12 -39 19 -51 19c-2 0 -4 9 -4 16s2 16 4 18c0 0 60 -4 127 -4c93 0 214 8 323 8c7 -50 20 -97 29 -142
c-3 -3 -14 -5 -21 -5s-12 2 -14 7c-24 65 -75 89 -128 89h-52c-41 0 -74 -1 -76 -13c-4 -19 -6 -58 -6 -81v-157c0 -5 22 -6 44 -6h52c96 0 79 -1 96 65c1 5 9 7 16 7s16 -2 19 -5v-189c-2 -2 -12 -4 -19 -4s-14 3 -16 8c-15 57 -19 54 -28 60c-11 7 -54 8 -92 8
c-28 0 -72 1 -72 -8v-155c0 -19 2 -61 9 -81c4 -10 26 -13 68 -13h37c38 0 90 6 119 21c19 10 51 47 67 96c1 4 7 6 14 6c10 0 25 -3 28 -6c-19 -54 -47 -125 -54 -169c-109 0 -251 5 -342 5c-62 0 -128 -6 -128 -6c-2 2 -4 10 -4 18s2 18 4 18c12 0 58 8 62 20
c6 23 7 66 7 83v90s-2 4 -5 4c-32 2 -32 2 -57 2c-41 0 -74 -1 -114 -3c-2 0 -7 -3 -7 -4l-58 -93c-18 -30 -30 -50 -33 -65c-3 -13 2 -18 6 -22c12 -11 49 -17 57 -17c5 0 -2 -25 -5 -31c-40 2 -61 6 -105 6c-46 0 -74 -4 -120 -6c-2 2 -2 10 -1 16s5 14 7 14
c12 0 63 16 76 32c24 28 44 60 55 78z" />
    <glyph glyph-name="Ccedilla" unicode="&#xc7;" horiz-adv-x="639" 
d="M339 -29h26c32 0 58 -27 58 -58c0 -55 -47 -91 -113 -91c-20 0 -40 9 -48 15c-1 5 -3 12 -3 18c0 8 7 16 13 16c10 0 28 -16 50 -16c33 0 49 18 49 36c0 22 -15 37 -33 37c-10 0 -20 -2 -32 -7c-2 0 -16 11 -14 16c11 18 26 46 35 63h31zM613 182
c0 -11 -26 -140 -38 -146c-60 -29 -140 -42 -232 -42c-177 0 -318 151 -318 328c0 187 141 345 329 345c66 0 163 -11 236 -27c4 -1 9 -136 9 -146s-13 -15 -24 -15c-6 0 -10 2 -14 4c-8 35 -49 135 -203 135c-138 0 -207 -135 -207 -275c0 -156 77 -301 235 -301
c64 0 113 26 141 56c31 32 41 93 47 93c10 0 36 -2 39 -9z" />
    <glyph glyph-name="Egrave" unicode="&#xc8;" horiz-adv-x="584" 
d="M362 745c0 -8 -6 -17 -12 -17c-16 0 -180 68 -180 104c0 20 26 33 54 33c8 0 14 -1 18 -3c40 -30 120 -109 120 -117zM162 657c93 0 214 7 323 7c7 -50 20 -97 29 -142c-3 -3 -14 -5 -21 -5s-12 2 -14 7c-24 65 -75 89 -128 89h-52c-41 0 -74 -1 -76 -13
c-4 -19 -6 -58 -6 -81v-157c0 -5 22 -6 44 -6h52c96 0 79 -1 96 65c1 5 9 7 16 7s16 -2 19 -5v-189c-2 -2 -12 -4 -19 -4s-14 3 -16 8c-15 57 -19 54 -28 60c-11 7 -54 8 -92 8c-28 0 -72 1 -72 -8v-155c0 -19 2 -61 9 -81c4 -10 26 -13 68 -13h37c38 0 90 6 119 21
c19 10 51 47 67 96c1 4 7 6 14 6c10 0 25 -3 28 -6c-19 -54 -47 -125 -54 -169c-109 0 -252 7 -342 4c-67 1 -133 -4 -133 -4c-1 1 -3 7 -3 16c0 6 1 17 3 17c12 0 61 9 67 22c6 18 7 54 7 91v378c0 18 0 60 -7 82c-5 17 -56 25 -68 25c-2 0 -4 8 -4 15s2 16 4 18
c0 0 66 -4 133 -4z" />
    <glyph glyph-name="Eacute" unicode="&#xc9;" horiz-adv-x="584" 
d="M237 745c0 8 80 87 120 117c4 2 10 3 18 3c28 0 54 -13 54 -33c0 -36 -164 -104 -180 -104c-6 0 -12 9 -12 17zM162 657c93 0 214 7 323 7c7 -50 20 -97 29 -142c-3 -3 -14 -5 -21 -5s-12 2 -14 7c-24 65 -75 89 -128 89h-52c-41 0 -74 -1 -76 -13c-4 -19 -6 -58 -6 -81
v-157c0 -5 22 -6 44 -6h52c96 0 79 -1 96 65c1 5 9 7 16 7s16 -2 19 -5v-189c-2 -2 -12 -4 -19 -4s-14 3 -16 8c-15 57 -19 54 -28 60c-11 7 -54 8 -92 8c-28 0 -72 1 -72 -8v-155c0 -19 2 -61 9 -81c4 -10 26 -13 68 -13h37c38 0 90 6 119 21c19 10 51 47 67 96
c1 4 7 6 14 6c10 0 25 -3 28 -6c-19 -54 -47 -125 -54 -169c-109 0 -252 7 -342 4c-67 1 -133 -4 -133 -4c-1 1 -3 7 -3 16c0 6 1 17 3 17c12 0 61 9 67 22c6 18 7 54 7 91v378c0 18 0 60 -7 82c-5 17 -56 25 -68 25c-2 0 -4 8 -4 15s2 16 4 18c0 0 66 -4 133 -4z" />
    <glyph glyph-name="Ecircumflex" unicode="&#xca;" horiz-adv-x="584" 
d="M405 728c-12 0 -81 40 -112 60c-31 -22 -100 -60 -112 -60c-7 0 -10 13 -10 19c8 8 31 25 68 61c20 19 32 33 42 47c5 6 8 9 12 9s8 -4 12 -9c12 -14 24 -29 41 -46c38 -37 65 -58 69 -62c0 -8 -4 -19 -10 -19zM162 657c93 0 214 7 323 7c7 -50 20 -97 29 -142
c-3 -3 -14 -5 -21 -5s-12 2 -14 7c-24 65 -75 89 -128 89h-52c-41 0 -74 -1 -76 -13c-4 -19 -6 -58 -6 -81v-157c0 -5 22 -6 44 -6h52c96 0 79 -1 96 65c1 5 9 7 16 7s16 -2 19 -5v-189c-2 -2 -12 -4 -19 -4s-14 3 -16 8c-15 57 -19 54 -28 60c-11 7 -54 8 -92 8
c-28 0 -72 1 -72 -8v-155c0 -19 2 -61 9 -81c4 -10 26 -13 68 -13h37c38 0 90 6 119 21c19 10 51 47 67 96c1 4 7 6 14 6c10 0 25 -3 28 -6c-19 -54 -47 -125 -54 -169c-109 0 -252 7 -342 4c-67 1 -133 -4 -133 -4c-1 1 -3 7 -3 16c0 6 1 17 3 17c12 0 61 9 67 22
c6 18 7 54 7 91v378c0 18 0 60 -7 82c-5 17 -56 25 -68 25c-2 0 -4 8 -4 15s2 16 4 18c0 0 66 -4 133 -4z" />
    <glyph glyph-name="Edieresis" unicode="&#xcb;" horiz-adv-x="584" 
d="M337 790c0 34 28 62 62 62s62 -28 62 -62s-28 -62 -62 -62s-62 28 -62 62zM131 790c0 34 28 62 62 62s62 -28 62 -62s-28 -62 -62 -62s-62 28 -62 62zM162 657c93 0 214 7 323 7c7 -50 20 -97 29 -142c-3 -3 -14 -5 -21 -5s-12 2 -14 7c-24 65 -75 89 -128 89h-52
c-41 0 -74 -1 -76 -13c-4 -19 -6 -58 -6 -81v-157c0 -5 22 -6 44 -6h52c96 0 79 -1 96 65c1 5 9 7 16 7s16 -2 19 -5v-189c-2 -2 -12 -4 -19 -4s-14 3 -16 8c-15 57 -19 54 -28 60c-11 7 -54 8 -92 8c-28 0 -72 1 -72 -8v-155c0 -19 2 -61 9 -81c4 -10 26 -13 68 -13h37
c38 0 90 6 119 21c19 10 51 47 67 96c1 4 7 6 14 6c10 0 25 -3 28 -6c-19 -54 -47 -125 -54 -169c-109 0 -252 7 -342 4c-67 1 -133 -4 -133 -4c-1 1 -3 7 -3 16c0 6 1 17 3 17c12 0 61 9 67 22c6 18 7 54 7 91v378c0 18 0 60 -7 82c-5 17 -56 25 -68 25c-2 0 -4 8 -4 15
s2 16 4 18c0 0 66 -4 133 -4z" />
    <glyph glyph-name="Igrave" unicode="&#xcc;" horiz-adv-x="323" 
d="M173 745c0 -8 -6 -17 -12 -17c-16 0 -180 68 -180 104c0 20 26 33 54 33c8 0 14 -1 18 -3c40 -30 120 -109 120 -117zM104 522c0 18 -2 66 -8 84c-6 12 -52 23 -64 23c-2 0 -4 9 -4 15s0 16 2 18c46 -2 87 -6 133 -6c44 0 88 4 128 6c1 -3 3 -11 3 -16
c0 -6 -1 -17 -4 -17c-8 0 -62 -12 -65 -23c-7 -27 -8 -70 -8 -88v-376c0 -36 2 -63 9 -90c3 -11 54 -22 62 -22c3 0 4 -13 4 -19c0 -5 -1 -11 -2 -14c-40 2 -83 6 -127 6c-46 0 -87 -4 -133 -6c-2 2 -4 8 -4 14s2 19 4 19c12 0 61 10 66 22c6 23 8 66 8 84v386z" />
    <glyph glyph-name="Iacute" unicode="&#xcd;" horiz-adv-x="323" 
d="M148 745c0 8 80 87 120 117c4 2 10 3 18 3c28 0 54 -13 54 -33c0 -36 -164 -104 -180 -104c-6 0 -12 9 -12 17zM104 522c0 18 -2 66 -8 84c-6 12 -52 23 -64 23c-2 0 -4 9 -4 15s0 16 2 18c46 -2 87 -6 133 -6c44 0 88 4 128 6c1 -3 3 -11 3 -16c0 -6 -1 -17 -4 -17
c-8 0 -62 -12 -65 -23c-7 -27 -8 -70 -8 -88v-376c0 -36 2 -63 9 -90c3 -11 54 -22 62 -22c3 0 4 -13 4 -19c0 -5 -1 -11 -2 -14c-40 2 -83 6 -127 6c-46 0 -87 -4 -133 -6c-2 2 -4 8 -4 14s2 19 4 19c12 0 61 10 66 22c6 23 8 66 8 84v386z" />
    <glyph glyph-name="Icircumflex" unicode="&#xce;" horiz-adv-x="323" 
d="M272 728c-12 0 -81 40 -112 60c-31 -22 -100 -60 -112 -60c-7 0 -10 13 -10 19c8 8 31 25 68 61c20 19 32 33 42 47c5 6 8 9 12 9s8 -4 12 -9c12 -14 24 -29 41 -46c38 -37 65 -58 69 -62c0 -8 -4 -19 -10 -19zM104 522c0 18 -2 66 -8 84c-6 12 -52 23 -64 23
c-2 0 -4 9 -4 15s0 16 2 18c46 -2 87 -6 133 -6c44 0 88 4 128 6c1 -3 3 -11 3 -16c0 -6 -1 -17 -4 -17c-8 0 -62 -12 -65 -23c-7 -27 -8 -70 -8 -88v-376c0 -36 2 -63 9 -90c3 -11 54 -22 62 -22c3 0 4 -13 4 -19c0 -5 -1 -11 -2 -14c-40 2 -83 6 -127 6
c-46 0 -87 -4 -133 -6c-2 2 -4 8 -4 14s2 19 4 19c12 0 61 10 66 22c6 23 8 66 8 84v386z" />
    <glyph glyph-name="Idieresis" unicode="&#xcf;" horiz-adv-x="323" 
d="M202 790c0 34 28 62 62 62s62 -28 62 -62s-28 -62 -62 -62s-62 28 -62 62zM-4 790c0 34 28 62 62 62s62 -28 62 -62s-28 -62 -62 -62s-62 28 -62 62zM104 522c0 18 -2 66 -8 84c-6 12 -52 23 -64 23c-2 0 -4 9 -4 15s0 16 2 18c46 -2 87 -6 133 -6c44 0 88 4 128 6
c1 -3 3 -11 3 -16c0 -6 -1 -17 -4 -17c-8 0 -62 -12 -65 -23c-7 -27 -8 -70 -8 -88v-376c0 -36 2 -63 9 -90c3 -11 54 -22 62 -22c3 0 4 -13 4 -19c0 -5 -1 -11 -2 -14c-40 2 -83 6 -127 6c-46 0 -87 -4 -133 -6c-2 2 -4 8 -4 14s2 19 4 19c12 0 61 10 66 22c6 23 8 66 8 84
v386z" />
    <glyph glyph-name="Eth" unicode="&#xd0;" horiz-adv-x="718" 
d="M54.5 350.5h345c4 0 6 -7 6 -12c0 -6 -2 -22 -6 -31h-346c-4 0 -5 9 -5 14c0 6 0 20 6 29zM167.5 657.5c67 0 130 1 174 1c231 0 345 -162.5 345 -322.5c0 -184 -122 -339 -346 -339c-44 0 -105.5 5 -171.5 4c-62 0.5 -133.5 -4.5 -133.5 -4.5c-1 1 -3.5 7 -3.5 16
c0 6 1.5 17 3.5 17c12 0 61 9.5 67.5 22.5c6.5 17.5 6.5 54 6.5 91v378c0 18 -0.5 59 -6.5 82c-5 12 -56 25 -68 25c-2 0 -4 8 -4 15s1.5 16 3.5 18c0 0 66.5 -3.5 133 -3.5zM223 529.5v-392c0 -30 1.5 -57.5 12 -73c13.5 -13.5 105.5 -16.5 121.5 -16.5
c131.5 0 206 97 206 292c0 138 -70.5 268.5 -213 268.5h-5c-24 0 -97.5 -1 -108.5 -16s-13 -45 -13 -63z" />
    <glyph glyph-name="Ntilde" unicode="&#xd1;" horiz-adv-x="753" 
d="M207 738c-8 0 -8 12 -8 19c0 17 10 32 18 44c24 30 49 46 83 46c72 0 110 -61 182 -61c31 0 59 51 69 51c4 0 7 -11 7 -20c0 -14 -9 -32 -17 -44c-24 -32 -48 -45 -82 -45c-73 0 -109 61 -182 61c-30 0 -60 -51 -70 -51zM571 523c0 17 -1 56 -10 80c-7 19 -66 26 -78 26
c-5 0 -6 28 -2 33c46 -3 80 -7 126 -7c44 0 78 5 118 7c2 -4 2 -11 2 -16c0 -6 -1 -17 -4 -17c-8 0 -67 -7 -81 -28c-8 -20 -11 -47 -11 -83v-379c0 -58 2 -88 4 -140c-3 -3 -19 -4 -22 -4c-9 0 -22 9 -32 23l-398 528v-405c0 -36 0 -60 8 -82c8 -19 74 -29 82 -29
c5 0 4 -27 2 -33c-40 2 -81 6 -125 6c-46 0 -73 -4 -119 -6c-2 2 -4 11 -4 17s2 16 4 16c12 0 69 7 82 30c10 21 10 46 10 84v392c0 28 0 54 -11 73c-6 11 -67 19 -79 19c-5 0 -6 29 -1 34c42 -2 73 -5 119 -5c32 0 67 3 90 5c42 -80 210 -292 328 -452c2 12 2 26 2 41v272z
" />
    <glyph glyph-name="Ograve" unicode="&#xd2;" horiz-adv-x="693" 
d="M358 745c0 -8 -6 -17 -12 -17c-16 0 -180 68 -180 104c0 20 26 33 54 33c8 0 14 -1 18 -3c40 -30 120 -109 120 -117zM330 618c-123 0 -177 -134 -177 -268c0 -140 62 -310 208 -310c121 0 178 134 178 269c0 144 -59 309 -209 309zM25 328c0 187 144 339 320 339
s321 -152 321 -339s-145 -338 -321 -338s-320 151 -320 338z" />
    <glyph glyph-name="Oacute" unicode="&#xd3;" horiz-adv-x="693" 
d="M333 745c0 8 80 87 120 117c4 2 10 3 18 3c28 0 54 -13 54 -33c0 -36 -164 -104 -180 -104c-6 0 -12 9 -12 17zM330 618c-123 0 -177 -134 -177 -268c0 -140 62 -310 208 -310c121 0 178 134 178 269c0 144 -59 309 -209 309zM25 328c0 187 144 339 320 339
s321 -152 321 -339s-145 -338 -321 -338s-320 151 -320 338z" />
    <glyph glyph-name="Ocircumflex" unicode="&#xd4;" horiz-adv-x="693" 
d="M457 728c-12 0 -81 40 -112 60c-31 -22 -100 -60 -112 -60c-7 0 -10 13 -10 19c8 8 31 25 68 61c20 19 32 33 42 47c5 6 8 9 12 9s8 -4 12 -9c12 -14 24 -29 41 -46c38 -37 65 -58 69 -62c0 -8 -4 -19 -10 -19zM330 618c-123 0 -177 -134 -177 -268
c0 -140 62 -310 208 -310c121 0 178 134 178 269c0 144 -59 309 -209 309zM25 328c0 187 144 339 320 339s321 -152 321 -339s-145 -338 -321 -338s-320 151 -320 338z" />
    <glyph glyph-name="Otilde" unicode="&#xd5;" horiz-adv-x="693" 
d="M173 738c-8 0 -8 12 -8 19c0 17 10 32 18 44c24 30 49 46 83 46c72 0 110 -61 182 -61c31 0 59 51 69 51c4 0 7 -11 7 -20c0 -14 -9 -32 -17 -44c-24 -32 -48 -45 -82 -45c-73 0 -109 61 -182 61c-30 0 -60 -51 -70 -51zM330 618c-123 0 -177 -134 -177 -268
c0 -140 62 -310 208 -310c121 0 178 134 178 269c0 144 -59 309 -209 309zM25 328c0 187 144 339 320 339s321 -152 321 -339s-145 -338 -321 -338s-320 151 -320 338z" />
    <glyph glyph-name="Odieresis" unicode="&#xd6;" horiz-adv-x="693" 
d="M386 790c0 34 28 62 62 62s62 -28 62 -62s-28 -62 -62 -62s-62 28 -62 62zM180 790c0 34 28 62 62 62s62 -28 62 -62s-28 -62 -62 -62s-62 28 -62 62zM330 618c-123 0 -177 -134 -177 -268c0 -140 62 -310 208 -310c121 0 178 134 178 269c0 144 -59 309 -209 309z
M25 328c0 187 144 339 320 339s321 -152 321 -339s-145 -338 -321 -338s-320 151 -320 338z" />
    <glyph glyph-name="multiply" unicode="&#xd7;" horiz-adv-x="419" 
d="M161 244c2 2 1 4 -1 6l-132 132c-2 2 -4 4 -2 8c6 14 26 39 36 42c4 2 7 0 9 -2l135 -135c2 -2 4 -1 6 1l136 134c1 1 4 5 8 1c6 -2 29 -27 35 -43c2 -4 -1 -6 -1 -6l-132 -132c-2 -2 -4 -4 -2 -6l134 -132s3 -3 1 -7c-6 -14 -28 -44 -32 -46c-4 -4 -8 0 -9 1l-138 138
c-2 2 -5 2 -7 0l-139 -140s-3 -1 -5 -1c-4 0 -9 3 -13 9c-14 18 -25 37 -23 41c0 2 136 137 136 137z" />
    <glyph glyph-name="Oslash" unicode="&#xd8;" horiz-adv-x="698" 
d="M331.5 618c-123 0 -177.5 -134 -177.5 -268c0 -139.5 62 -310.5 208.5 -310.5c121 0 177.5 134.5 177.5 269.5c0 144.5 -58.5 309 -208.5 309zM522.923 671.565c8.38477 -2.49707 36.7764 -15.2773 33.5771 -21.5654l-397.5 -665.5
c-8.72754 3.04199 -36.4766 16.1211 -33.21 22.4961zM346.501 667c176 0 321 -152 321 -339s-145 -338 -321 -338s-320 151 -320 338s144 339 320 339z" />
    <glyph glyph-name="Ugrave" unicode="&#xd9;" horiz-adv-x="733" 
d="M379 745c0 -8 -6 -17 -12 -17c-16 0 -180 68 -180 104c0 20 26 33 54 33c8 0 14 -1 18 -3c40 -30 120 -109 120 -117zM159.5 656.5c44 0 88 3.5 128 5.5c1 -3 2.5 -10.5 2.5 -16c0 -6.5 -1 -17 -4 -17c-8 0 -61.5 -11.5 -64.5 -22.5c-7 -27 -8 -54.5 -8 -89v-230
c0 -134.5 61 -225.5 169 -225.5c91.5 0 170 50 170 218v244c0 17 0.5 60 -10 80c-9.5 14 -66.5 26 -78.5 26c-5 0 -6 27 -1.5 32c46 -3 79 -7 125 -7c44 0 78 5 118 7c1.5 -3.5 3 -11.5 3 -16.5c0 -6 -1.5 -15.5 -4.5 -15.5c-8 0 -66.5 -7 -81 -28
c-8.5 -19.5 -11 -47 -11 -83v-235.5c0 -212 -109.5 -286 -253.5 -286c-151 0 -258.5 82 -258.5 306v219c0 18 -1 66 -7.5 83.5c-6 12 -52.5 23 -64.5 23c-2 0 -4 9 -4 15s1 16 3 18c46 -2 86.5 -5.5 132.5 -5.5z" />
    <glyph glyph-name="Uacute" unicode="&#xda;" horiz-adv-x="733" 
d="M354 745c0 8 80 87 120 117c4 2 10 3 18 3c28 0 54 -13 54 -33c0 -36 -164 -104 -180 -104c-6 0 -12 9 -12 17zM159.5 656.5c44 0 88 3.5 128 5.5c1 -3 2.5 -10.5 2.5 -16c0 -6.5 -1 -17 -4 -17c-8 0 -61.5 -11.5 -64.5 -22.5c-7 -27 -8 -54.5 -8 -89v-230
c0 -134.5 61 -225.5 169 -225.5c91.5 0 170 50 170 218v244c0 17 0.5 60 -10 80c-9.5 14 -66.5 26 -78.5 26c-5 0 -6 27 -1.5 32c46 -3 79 -7 125 -7c44 0 78 5 118 7c1.5 -3.5 3 -11.5 3 -16.5c0 -6 -1.5 -15.5 -4.5 -15.5c-8 0 -66.5 -7 -81 -28
c-8.5 -19.5 -11 -47 -11 -83v-235.5c0 -212 -109.5 -286 -253.5 -286c-151 0 -258.5 82 -258.5 306v219c0 18 -1 66 -7.5 83.5c-6 12 -52.5 23 -64.5 23c-2 0 -4 9 -4 15s1 16 3 18c46 -2 86.5 -5.5 132.5 -5.5z" />
    <glyph glyph-name="Ucircumflex" unicode="&#xdb;" horiz-adv-x="733" 
d="M478 728c-12 0 -81 40 -112 60c-31 -22 -100 -60 -112 -60c-7 0 -10 13 -10 19c8 8 31 25 68 61c20 19 32 33 42 47c5 6 8 9 12 9s8 -4 12 -9c12 -14 24 -29 41 -46c38 -37 65 -58 69 -62c0 -8 -4 -19 -10 -19zM159.5 656.5c44 0 88 3.5 128 5.5c1 -3 2.5 -10.5 2.5 -16
c0 -6.5 -1 -17 -4 -17c-8 0 -61.5 -11.5 -64.5 -22.5c-7 -27 -8 -54.5 -8 -89v-230c0 -134.5 61 -225.5 169 -225.5c91.5 0 170 50 170 218v244c0 17 0.5 60 -10 80c-9.5 14 -66.5 26 -78.5 26c-5 0 -6 27 -1.5 32c46 -3 79 -7 125 -7c44 0 78 5 118 7
c1.5 -3.5 3 -11.5 3 -16.5c0 -6 -1.5 -15.5 -4.5 -15.5c-8 0 -66.5 -7 -81 -28c-8.5 -19.5 -11 -47 -11 -83v-235.5c0 -212 -109.5 -286 -253.5 -286c-151 0 -258.5 82 -258.5 306v219c0 18 -1 66 -7.5 83.5c-6 12 -52.5 23 -64.5 23c-2 0 -4 9 -4 15s1 16 3 18
c46 -2 86.5 -5.5 132.5 -5.5z" />
    <glyph glyph-name="Udieresis" unicode="&#xdc;" horiz-adv-x="733" 
d="M408 790c0 34 28 62 62 62s62 -28 62 -62s-28 -62 -62 -62s-62 28 -62 62zM202 790c0 34 28 62 62 62s62 -28 62 -62s-28 -62 -62 -62s-62 28 -62 62zM159.5 656.5c44 0 88 3.5 128 5.5c1 -3 2.5 -10.5 2.5 -16c0 -6.5 -1 -17 -4 -17c-8 0 -61.5 -11.5 -64.5 -22.5
c-7 -27 -8 -54.5 -8 -89v-230c0 -134.5 61 -225.5 169 -225.5c91.5 0 170 50 170 218v244c0 17 0.5 60 -10 80c-9.5 14 -66.5 26 -78.5 26c-5 0 -6 27 -1.5 32c46 -3 79 -7 125 -7c44 0 78 5 118 7c1.5 -3.5 3 -11.5 3 -16.5c0 -6 -1.5 -15.5 -4.5 -15.5
c-8 0 -66.5 -7 -81 -28c-8.5 -19.5 -11 -47 -11 -83v-235.5c0 -212 -109.5 -286 -253.5 -286c-151 0 -258.5 82 -258.5 306v219c0 18 -1 66 -7.5 83.5c-6 12 -52.5 23 -64.5 23c-2 0 -4 9 -4 15s1 16 3 18c46 -2 86.5 -5.5 132.5 -5.5z" />
    <glyph glyph-name="Yacute" unicode="&#xdd;" horiz-adv-x="657" 
d="M339 745c0 8 80 87 120 117c4 2 10 3 18 3c28 0 54 -13 54 -33c0 -36 -164 -104 -180 -104c-6 0 -12 9 -12 17zM156.5 656c49 0 97.5 4 137.5 6c2 -6 3 -32 -2 -32c-14 0 -56 -7 -56.5 -27.5c0 -7 4.17676 -16.7402 9.5 -26l106 -194.5c5 -5 7.97461 -0.984375 10 2
c43.5 65 122.5 191 122.5 218.5c0 13 -24.5 27.5 -66.5 27.5c-5 0 -5.5 27 -0.5 32c33.5 -2 82.5 -6 119.5 -6c52 0 75 4 109.5 6c1 -3 2.5 -11.5 2.5 -16.5c0 -6 -1 -15 -4 -15c-13.5 0 -62.5 -10.5 -80 -33.5c-23 -33.5 -179 -279 -179 -299.5v-155.5c0 -35.5 1 -63 8 -90
c3 -11 53.5 -23.5 61.5 -23.5c2.87012 0 3.81934 -9.65527 3.81934 -16c0 -5.25781 -0.867188 -13.1445 -1.81934 -16c-40 2 -81.5 6.5 -125.5 6.5c-46 0 -85.5 -4.5 -131.5 -6.5c-2.15723 2.15723 -3.86523 9.13477 -3.86523 15c0 6.32617 1.02246 17 3.36523 17
c12 0 60 11.5 65 23.5c6 23 7.5 60 7.5 88.5v147.5c0 17 -66 130.5 -135.5 255c-17.8867 32.8848 -32.5 56 -51.5 68.5c-15.376 9.92578 -47 18.5 -59 18.5c-3.5 0 -4.5 18.5 -2 24c24.5 2 84 2 133 2z" />
    <glyph glyph-name="Thorn" unicode="&#xde;" horiz-adv-x="564" 
d="M164.5 656.5c44 0 88 3.5 128 5.5c1 -3 2.5 -11.5 2.5 -16.5c0 -6 -1 -16.5 -4 -16.5c-8 0 -61.5 -11.5 -64.5 -22.5c-6.32129 -24.3096 -7.99121 -53.2188 -7.99902 -84c0.0283203 -4.39648 -0.000976562 -10.4355 -0.000976562 -12.5c0 -3.5 1.98242 -5.5 4 -5.5
c5 0 35 11 82 11c82 0 215.5 -45 215.5 -182c0 -90.5 -79 -199.5 -209 -199.5c-29.5 0 -61.5469 11.4658 -71.5 25c-4 5.5 -6.5 33 -0.5 32c20 -8.5 34.5 -9.5 56 -9.5c65 0 103 62 103 139c0 84 -30.5 145.5 -109.5 145.5c-24 0 -46.0938 -0.698242 -58 -6
c-8 -3.5 -12 -8 -12 -69v-251c0 -31.5 1.5 -61 8.5 -88c3 -11 55 -22.5 63 -22.5c3 0 4 -11 4 -17c0 -5 -1 -13 -2 -16c-40 2 -83.5 6.5 -127.5 6.5c-46 0 -86.5 -4.5 -132.5 -6.5c-2 2 -4 9.5 -4 15.5s1.5 17.5 3.5 17.5c12 0 61.5 10.5 66.5 22.5c6 23 7 66.5 7 84.5v386
c0 18 -1 66 -7.5 83.5c-6 12 -52.5 23 -64.5 23c-2 0 -4 9 -4 15s1 16 3 18c46 -2 86.5 -5.5 132.5 -5.5z" />
    <glyph glyph-name="germandbls" unicode="&#xdf;" horiz-adv-x="583" 
d="M490 563c0 -122 -136 -126 -136 -194c0 -45 47 -76 93 -101c46 -24 109 -69 109 -134c0 -79 -59 -142 -135 -142c-61 0 -117 32 -127 49c0 33 9 65 36 65c50 0 42 -70 91 -70c30 0 43 42 43 67c0 100 -189 91 -189 227c0 97 116 91 116 219c0 64 -34 102 -97 102
c-78 0 -85 -94 -85 -176c0 -132 1 -338 1 -338c0 -33 2 -60 8 -87c2 -10 46 -23 54 -23c5 0 4 -25 2 -31c-40 2 -76 7 -116 7c-41 0 -77 -5 -118 -7c-2 2 -3 10 -3 16s2 12 4 12c12 0 52 11 55 22c8 31 9 54 9 89c0 0 1 138 1 226c0 3 -2 8 -5 8h-53c-2 0 -3 2 -3 6
c0 13 10 46 15 46h41c3 0 5 3 5 6v18c0 172 94 249 204 249c94 0 180 -42 180 -131z" />
    <glyph glyph-name="agrave" unicode="&#xe0;" horiz-adv-x="452" 
d="M70 642c0 6 9 26 44 26c14 0 29 -3 34 -8c37 -43 92 -133 92 -138c0 -6 -7 -16 -14 -16c-10 0 -156 97 -156 136zM192 57.5c37 0 66 23.5 66 46.5v102c-45.5 -17 -123 -30.5 -123 -86.5c0 -44.5 27 -62 57 -62zM237 442.5c79 0 124 -34 124 -145v-196.5
c0 -27 13 -41.5 32.5 -41.5c18 0 31 11 34.5 13.5c3.5 -1 5.5 -7.5 5.5 -11.5c0 -12.5 -3 -24 -6 -29c-14 -12.5 -53.5 -38.5 -87.5 -38.5c-33 0 -65 29.5 -74 53.5c-4 -1 -54 -54.5 -125 -54.5c-66 0 -113 38 -113 102.5c0 103.5 143.5 128 221 155c6 2 9 8 9 15v55.5
c0 47.5 -24 74.5 -59 74.5c-39 0 -64 -24.5 -64 -70.5c0 -29 -26.5 -39 -49.5 -39c-19.5 0 -41.5 8 -51 24.5c0 63.5 107.5 132 202.5 132z" />
    <glyph glyph-name="aacute" unicode="&#xe1;" horiz-adv-x="452" 
d="M294 668c35 0 42 -20 42 -26c0 -39 -145 -136 -155 -136c-7 0 -15 10 -15 16s58 96 94 138c5 5 20 8 34 8zM192 57.5c37 0 66 23.5 66 46.5v102c-45.5 -17 -123 -30.5 -123 -86.5c0 -44.5 27 -62 57 -62zM237 442.5c79 0 124 -34 124 -145v-196.5
c0 -27 13 -41.5 32.5 -41.5c18 0 31 11 34.5 13.5c3.5 -1 5.5 -7.5 5.5 -11.5c0 -12.5 -3 -24 -6 -29c-14 -12.5 -53.5 -38.5 -87.5 -38.5c-33 0 -65 29.5 -74 53.5c-4 -1 -54 -54.5 -125 -54.5c-66 0 -113 38 -113 102.5c0 103.5 143.5 128 221 155c6 2 9 8 9 15v55.5
c0 47.5 -24 74.5 -59 74.5c-39 0 -64 -24.5 -64 -70.5c0 -29 -26.5 -39 -49.5 -39c-19.5 0 -41.5 8 -51 24.5c0 63.5 107.5 132 202.5 132z" />
    <glyph glyph-name="acircumflex" unicode="&#xe2;" horiz-adv-x="452" 
d="M309 497c-11 0 -72 46 -100 70c-28 -25 -89 -70 -100 -70c-6 0 -9 16 -9 24c7 8 27 28 60 70c18 22 28 39 38 55c4 7 6 9 11 9s6 -3 10 -9c11 -16 21 -33 37 -53c34 -44 58 -67 62 -72c0 -10 -3 -24 -9 -24zM192 57.5c37 0 66 23.5 66 46.5v102
c-45.5 -17 -123 -30.5 -123 -86.5c0 -44.5 27 -62 57 -62zM237 442.5c79 0 124 -34 124 -145v-196.5c0 -27 13 -41.5 32.5 -41.5c18 0 31 11 34.5 13.5c3.5 -1 5.5 -7.5 5.5 -11.5c0 -12.5 -3 -24 -6 -29c-14 -12.5 -53.5 -38.5 -87.5 -38.5c-33 0 -65 29.5 -74 53.5
c-4 -1 -54 -54.5 -125 -54.5c-66 0 -113 38 -113 102.5c0 103.5 143.5 128 221 155c6 2 9 8 9 15v55.5c0 47.5 -24 74.5 -59 74.5c-39 0 -64 -24.5 -64 -70.5c0 -29 -26.5 -39 -49.5 -39c-19.5 0 -41.5 8 -51 24.5c0 63.5 107.5 132 202.5 132z" />
    <glyph glyph-name="atilde" unicode="&#xe3;" horiz-adv-x="452" 
d="M58 515c-6 0 -7 11 -7 17c0 16 9 29 16 39c20 27 39 40 67 40c59 0 90 -53 149 -53c26 0 49 45 57 45c3 0 5 -10 5 -18c0 -12 -7 -30 -14 -40c-20 -28 -38 -39 -66 -39c-60 0 -90 53 -150 53c-24 0 -48 -44 -57 -44zM192 57.5c37 0 66 23.5 66 46.5v102
c-45.5 -17 -123 -30.5 -123 -86.5c0 -44.5 27 -62 57 -62zM237 442.5c79 0 124 -34 124 -145v-196.5c0 -27 13 -41.5 32.5 -41.5c18 0 31 11 34.5 13.5c3.5 -1 5.5 -7.5 5.5 -11.5c0 -12.5 -3 -24 -6 -29c-14 -12.5 -53.5 -38.5 -87.5 -38.5c-33 0 -65 29.5 -74 53.5
c-4 -1 -54 -54.5 -125 -54.5c-66 0 -113 38 -113 102.5c0 103.5 143.5 128 221 155c6 2 9 8 9 15v55.5c0 47.5 -24 74.5 -59 74.5c-39 0 -64 -24.5 -64 -70.5c0 -29 -26.5 -39 -49.5 -39c-19.5 0 -41.5 8 -51 24.5c0 63.5 107.5 132 202.5 132z" />
    <glyph glyph-name="adieresis" unicode="&#xe4;" horiz-adv-x="452" 
d="M247 566c0 32 26 59 58 59s59 -27 59 -59s-27 -58 -59 -58s-58 26 -58 58zM45 566c0 32 26 59 58 59s59 -27 59 -59s-27 -58 -59 -58s-58 26 -58 58zM192 57.5c37 0 66 23.5 66 46.5v102c-45.5 -17 -123 -30.5 -123 -86.5c0 -44.5 27 -62 57 -62zM237 442.5
c79 0 124 -34 124 -145v-196.5c0 -27 13 -41.5 32.5 -41.5c18 0 31 11 34.5 13.5c3.5 -1 5.5 -7.5 5.5 -11.5c0 -12.5 -3 -24 -6 -29c-14 -12.5 -53.5 -38.5 -87.5 -38.5c-33 0 -65 29.5 -74 53.5c-4 -1 -54 -54.5 -125 -54.5c-66 0 -113 38 -113 102.5
c0 103.5 143.5 128 221 155c6 2 9 8 9 15v55.5c0 47.5 -24 74.5 -59 74.5c-39 0 -64 -24.5 -64 -70.5c0 -29 -26.5 -39 -49.5 -39c-19.5 0 -41.5 8 -51 24.5c0 63.5 107.5 132 202.5 132z" />
    <glyph glyph-name="aring" unicode="&#xe5;" horiz-adv-x="452" 
d="M155 605c0 -32 26 -58 58 -58s57 26 57 58s-25 57 -57 57s-58 -25 -58 -57zM114 605c0 54 45 98 99 98s98 -44 98 -98s-44 -99 -98 -99s-99 45 -99 99zM192 57.5c37 0 66 23.5 66 46.5v102c-45.5 -17 -123 -30.5 -123 -86.5c0 -44.5 27 -62 57 -62zM237 442.5
c79 0 124 -34 124 -145v-196.5c0 -27 13 -41.5 32.5 -41.5c18 0 31 11 34.5 13.5c3.5 -1 5.5 -7.5 5.5 -11.5c0 -12.5 -3 -24 -6 -29c-14 -12.5 -53.5 -38.5 -87.5 -38.5c-33 0 -65 29.5 -74 53.5c-4 -1 -54 -54.5 -125 -54.5c-66 0 -113 38 -113 102.5
c0 103.5 143.5 128 221 155c6 2 9 8 9 15v55.5c0 47.5 -24 74.5 -59 74.5c-39 0 -64 -24.5 -64 -70.5c0 -29 -26.5 -39 -49.5 -39c-19.5 0 -41.5 8 -51 24.5c0 63.5 107.5 132 202.5 132z" />
    <glyph glyph-name="ae" unicode="&#xe6;" horiz-adv-x="662" 
d="M377 204c0 -77 38 -141 127 -141c75 0 117 45 124 45c1 0 10 -8 10 -14c0 -5 -1 -15 -4 -20c-23 -34 -91 -81 -159 -81c-63 0 -116 23 -156 74c-30 -34 -85 -74 -173 -74c-73 0 -114 49 -114 104c0 104 145 127 224 147c6 2 9 8 9 15v67c0 42 -25 70 -57 70
c-36 0 -68 -35 -68 -83c0 -20 -31 -27 -54 -27c-26 0 -44 14 -44 34c0 54 94 123 189 123c52 0 95 -14 117 -48c27 22 76 47 126 47c131 0 170 -113 172 -180c0 -21 -12 -23 -38 -27c-60 -7 -123 -15 -224 -24c-5 0 -7 -3 -7 -7zM266 104v91c-46 -10 -124 -24 -124 -80
c0 -40 27 -58 57 -58c37 0 67 24 67 47zM540 290c0 36 -20 106 -69 106c-64 0 -94 -88 -94 -128c0 -2 1 -6 7 -6c41 4 134 14 150 18c4 1 6 5 6 10z" />
    <glyph glyph-name="ccedilla" unicode="&#xe7;" horiz-adv-x="435" 
d="M223 -27c0 0 18 1 22 1c28 0 49 -24 49 -50c0 -47 -40 -77 -96 -77c-17 0 -34 6 -40 12c-1 4 -3 11 -3 16c0 7 7 14 11 14c8 0 24 -14 43 -14c28 0 41 15 41 31c0 19 -13 31 -28 31c-8 0 -18 -2 -28 -6c-2 0 -14 10 -12 14c9 15 22 39 30 53h27zM241.5 441.5
c78 0 134.5 -31.5 154 -55c0 -42 -12.5 -79.5 -45.5 -79.5c-27.5 0 -40.0938 16.5049 -54 42.5c-10.6484 20.9004 -27 46 -67 46c-58 0 -94 -66 -94 -152.5c0 -128 61.5 -177.5 131 -177.5c73.5 0 112 33.5 128 44.5c3 -1 7.5 -9 7.5 -16c0 -6 -2.36328 -14.6934 -5 -19
c-15.5 -26.5 -76 -81.5 -157.5 -81.5c-119 0 -214 98.5 -214 224c0 116.5 83 224 216.5 224z" />
    <glyph glyph-name="egrave" unicode="&#xe8;" horiz-adv-x="436" 
d="M94 642c0 6 9 26 44 26c14 0 29 -3 34 -8c37 -43 92 -133 92 -138c0 -6 -7 -16 -14 -16c-10 0 -156 97 -156 136zM225 395.5c-70 0 -91 -87 -91 -114.5c0 -3 2 -6.5 6.5 -6.5h161c9.2373 0 9.5 9.5 9.5 14.5c0 39 -29.5 106.5 -86 106.5zM232.5 441.5
c131 0 184.5 -111.5 184.5 -182.5c0 -30.5 -9.99316 -33 -38 -33h-239c-5 0 -7 -2.43945 -7 -6c0 -67 39.5 -154.5 133 -154.5c73.5 0 112 33.5 128 44.5c3 -1 7.5 -9 7.5 -16c0 -6 -2.36328 -14.6934 -5 -19c-15.5 -26.5 -76.5 -81.5 -158 -81.5
c-116 0 -213.5 98 -213.5 221.5c0 135 87.5 226.5 207.5 226.5z" />
    <glyph glyph-name="eacute" unicode="&#xe9;" horiz-adv-x="436" 
d="M328 668c35 0 42 -20 42 -26c0 -39 -145 -136 -155 -136c-7 0 -15 10 -15 16s58 96 94 138c5 5 20 8 34 8zM225 395.5c-70 0 -91 -87 -91 -114.5c0 -3 2 -6.5 6.5 -6.5h161c9.2373 0 9.5 9.5 9.5 14.5c0 39 -29.5 106.5 -86 106.5zM232.5 441.5
c131 0 184.5 -111.5 184.5 -182.5c0 -30.5 -9.99316 -33 -38 -33h-239c-5 0 -7 -2.43945 -7 -6c0 -67 39.5 -154.5 133 -154.5c73.5 0 112 33.5 128 44.5c3 -1 7.5 -9 7.5 -16c0 -6 -2.36328 -14.6934 -5 -19c-15.5 -26.5 -76.5 -81.5 -158 -81.5
c-116 0 -213.5 98 -213.5 221.5c0 135 87.5 226.5 207.5 226.5z" />
    <glyph glyph-name="ecircumflex" unicode="&#xea;" horiz-adv-x="436" 
d="M321 497c-11 0 -72 46 -100 70c-28 -25 -89 -70 -100 -70c-6 0 -9 16 -9 24c7 8 27 28 60 70c18 22 28 39 38 55c4 7 6 9 11 9s6 -3 10 -9c11 -16 21 -33 37 -53c34 -44 58 -67 62 -72c0 -10 -3 -24 -9 -24zM225 395.5c-70 0 -91 -87 -91 -114.5c0 -3 2 -6.5 6.5 -6.5
h161c9.2373 0 9.5 9.5 9.5 14.5c0 39 -29.5 106.5 -86 106.5zM232.5 441.5c131 0 184.5 -111.5 184.5 -182.5c0 -30.5 -9.99316 -33 -38 -33h-239c-5 0 -7 -2.43945 -7 -6c0 -67 39.5 -154.5 133 -154.5c73.5 0 112 33.5 128 44.5c3 -1 7.5 -9 7.5 -16
c0 -6 -2.36328 -14.6934 -5 -19c-15.5 -26.5 -76.5 -81.5 -158 -81.5c-116 0 -213.5 98 -213.5 221.5c0 135 87.5 226.5 207.5 226.5z" />
    <glyph glyph-name="edieresis" unicode="&#xeb;" horiz-adv-x="436" 
d="M259 566c0 32 26 59 58 59s59 -27 59 -59s-27 -58 -59 -58s-58 26 -58 58zM57 566c0 32 26 59 58 59s59 -27 59 -59s-27 -58 -59 -58s-58 26 -58 58zM225 395.5c-70 0 -91 -87 -91 -114.5c0 -3 2 -6.5 6.5 -6.5h161c9.2373 0 9.5 9.5 9.5 14.5
c0 39 -29.5 106.5 -86 106.5zM232.5 441.5c131 0 184.5 -111.5 184.5 -182.5c0 -30.5 -9.99316 -33 -38 -33h-239c-5 0 -7 -2.43945 -7 -6c0 -67 39.5 -154.5 133 -154.5c73.5 0 112 33.5 128 44.5c3 -1 7.5 -9 7.5 -16c0 -6 -2.36328 -14.6934 -5 -19
c-15.5 -26.5 -76.5 -81.5 -158 -81.5c-116 0 -213.5 98 -213.5 221.5c0 135 87.5 226.5 207.5 226.5z" />
    <glyph glyph-name="igrave" unicode="&#xec;" horiz-adv-x="300" 
d="M22 642c0 6 9 26 44 26c14 0 29 -3 34 -8c37 -43 92 -133 92 -138c0 -6 -7 -16 -14 -16c-10 0 -156 97 -156 136zM203 144c0 -34 0 -62 7 -90c3 -11 47 -24 55 -24c5 0 4 -27 2 -33c-40 2 -78 6 -116 6c-42 0 -76 -4 -118 -6c-5 5 -5 33 0 33c12 0 55 13 58 24
c6 26 8 64 8 74v161c0 9 -2 48 -16 64c-19 22 -57 18 -57 23c0 2 0 30 5 30c36 4 125 22 162 31c3 1 9 3 10 3c6 0 7 -14 7 -20c0 -17 -7 -52 -7 -86v-190z" />
    <glyph glyph-name="iacute" unicode="&#xed;" horiz-adv-x="300" 
d="M212 668c35 0 42 -20 42 -26c0 -39 -145 -136 -155 -136c-7 0 -15 10 -15 16s58 96 94 138c5 5 20 8 34 8zM203 144c0 -34 0 -62 7 -90c3 -11 47 -24 55 -24c5 0 4 -27 2 -33c-40 2 -78 6 -116 6c-42 0 -76 -4 -118 -6c-5 5 -5 33 0 33c12 0 55 13 58 24c6 26 8 64 8 74
v161c0 9 -2 48 -16 64c-19 22 -57 18 -57 23c0 2 0 30 5 30c36 4 125 22 162 31c3 1 9 3 10 3c6 0 7 -14 7 -20c0 -17 -7 -52 -7 -86v-190z" />
    <glyph glyph-name="icircumflex" unicode="&#xee;" horiz-adv-x="300" 
d="M239 497c-11 0 -72 46 -100 70c-28 -25 -89 -70 -100 -70c-6 0 -9 16 -9 24c7 8 27 28 60 70c18 22 28 39 38 55c4 7 6 9 11 9s6 -3 10 -9c11 -16 21 -33 37 -53c34 -44 58 -67 62 -72c0 -10 -3 -24 -9 -24zM203 144c0 -34 0 -62 7 -90c3 -11 47 -24 55 -24
c5 0 4 -27 2 -33c-40 2 -78 6 -116 6c-42 0 -76 -4 -118 -6c-5 5 -5 33 0 33c12 0 55 13 58 24c6 26 8 64 8 74v161c0 9 -2 48 -16 64c-19 22 -57 18 -57 23c0 2 0 30 5 30c36 4 125 22 162 31c3 1 9 3 10 3c6 0 7 -14 7 -20c0 -17 -7 -52 -7 -86v-190z" />
    <glyph glyph-name="idieresis" unicode="&#xef;" horiz-adv-x="300" 
d="M232 624c32 0 59 -27 59 -59s-28 -58 -60 -58s-59 27 -59 59s28 58 60 58zM53 624c32 0 59 -27 59 -59s-28 -58 -60 -58s-59 27 -59 59s28 58 60 58zM203 144c0 -34 0 -62 7 -90c3 -11 47 -24 55 -24c5 0 4 -27 2 -33c-40 2 -78 6 -116 6c-42 0 -76 -4 -118 -6
c-5 5 -5 33 0 33c12 0 55 13 58 24c6 26 8 64 8 74v161c0 9 -2 48 -16 64c-19 22 -57 18 -57 23c0 2 0 30 5 30c36 4 125 22 162 31c3 1 9 3 10 3c6 0 7 -14 7 -20c0 -17 -7 -52 -7 -86v-190z" />
    <glyph glyph-name="eth" unicode="&#xf0;" horiz-adv-x="517" 
d="M377.68 701.13c5.26758 -6.02148 23.5869 -28.5234 18.3203 -33.1318l-264.704 -167.562c-5.92676 6.77344 -22.834 29.1797 -17.5674 33.7881zM246.5 442.499c29 0 70.5 -6.99902 83 -16.999c-27 97 -104 184.5 -252.5 237.5c0 7.5 3 28.5479 12 28.5566
c164 -19.5 382.5 -158.409 382.5 -426.058c0 -182 -102.5 -272 -214.5 -272c-126 0 -229 101 -229 222.5c0 107 90.9932 226.5 218.5 226.5zM241 395c-67 0 -99 -75 -99 -161.5c0 -98 41 -193.5 116 -193.5c68 0 99 72.5 99 170.5c-0.5 54.6855 -5.25293 98.0557 -14 117.5
c-20.3574 44.1426 -62.6152 67 -102 67z" />
    <glyph glyph-name="ntilde" unicode="&#xf1;" horiz-adv-x="584" 
d="M145 515c-6 0 -7 11 -7 17c0 16 9 29 16 39c20 27 39 40 67 40c59 0 90 -53 149 -53c26 0 49 45 57 45c3 0 5 -10 5 -18c0 -12 -7 -30 -14 -40c-20 -28 -38 -39 -66 -39c-60 0 -90 53 -150 53c-24 0 -48 -44 -57 -44zM354.5 442c83.5 0 128.5 -62 128.5 -205v-95
c0 -33.5 0.5 -63 7.5 -90c3 -11 53.5 -22.5 61.5 -22.5c5 0 4.5 -27 2.5 -33c-40.5 2 -83.5 6.5 -122 6.5c-41.5 0 -77.5 -4.5 -119 -6.5c-5 5 -5 33 0 33c12 0 56 11.5 59 22.5c6 25.5 7 62.5 7 73v95c0 114 -30 149 -94 149c-42.5 0 -80 -28.5 -80 -55v-172
c0 -33.5 0.5 -63 7.5 -90c3 -11 51.5 -22.5 59.5 -22.5c5 0 4.5 -27 2.5 -33c-40.5 2 -81.5 6.5 -120 6.5c-41.5 0 -81.5 -4.5 -123 -6.5c-5 5 -5 33 0 33c12 0 60 11.5 63 22.5c6 25.5 7 62.5 7 73v163c0 9 -1.5 49 -16 64.5c-19 22.5 -56.5 18 -56.5 23
c0 2 0.5 29.5 5.5 30c35.5 3.5 106.5 18.5 160.5 31c2.5 0.5 7 2 8 2c7 0 10.5 -14 10 -19c-2 -14 -4 -31 -4 -35.5c0 -2 0 -4.5 1.5 -5c1.5 0 3.47754 2.02344 5 3.5c27.5 27 81.5 59.5 138.5 59.5z" />
    <glyph glyph-name="ograve" unicode="&#xf2;" horiz-adv-x="507" 
d="M96 642c0 6 9 26 44 26c14 0 29 -3 34 -8c37 -43 92 -133 92 -138c0 -6 -7 -16 -14 -16c-10 0 -156 97 -156 136zM240.5 395c-68 0 -99.5 -77.5 -99.5 -154c0 -99.5 40.5 -201 122.5 -201c67.5 0 101 77.5 101 153.5c0 100.5 -41 201.5 -124 201.5zM253 442
c126 0 226.5 -100.5 226.5 -224c0 -124 -98.5 -225 -225.5 -225c-126.5 0 -227 101 -227 225c0 125 98.5 224 226 224z" />
    <glyph glyph-name="oacute" unicode="&#xf3;" horiz-adv-x="507" 
d="M366 668c35 0 42 -20 42 -26c0 -39 -145 -136 -155 -136c-7 0 -15 10 -15 16s58 96 94 138c5 5 20 8 34 8zM240.5 395c-68 0 -99.5 -77.5 -99.5 -154c0 -99.5 40.5 -201 122.5 -201c67.5 0 101 77.5 101 153.5c0 100.5 -41 201.5 -124 201.5zM253 442
c126 0 226.5 -100.5 226.5 -224c0 -124 -98.5 -225 -225.5 -225c-126.5 0 -227 101 -227 225c0 125 98.5 224 226 224z" />
    <glyph glyph-name="ocircumflex" unicode="&#xf4;" horiz-adv-x="507" 
d="M357 497c-11 0 -72 46 -100 70c-28 -25 -89 -70 -100 -70c-6 0 -9 16 -9 24c7 8 27 28 60 70c18 22 28 39 38 55c4 7 6 9 11 9s6 -3 10 -9c11 -16 21 -33 37 -53c34 -44 58 -67 62 -72c0 -10 -3 -24 -9 -24zM240.5 395c-68 0 -99.5 -77.5 -99.5 -154
c0 -99.5 40.5 -201 122.5 -201c67.5 0 101 77.5 101 153.5c0 100.5 -41 201.5 -124 201.5zM253 442c126 0 226.5 -100.5 226.5 -224c0 -124 -98.5 -225 -225.5 -225c-126.5 0 -227 101 -227 225c0 125 98.5 224 226 224z" />
    <glyph glyph-name="otilde" unicode="&#xf5;" horiz-adv-x="507" 
d="M112 515c-6 0 -7 11 -7 17c0 16 9 29 16 39c20 27 39 40 67 40c59 0 90 -53 149 -53c26 0 49 45 57 45c3 0 5 -10 5 -18c0 -12 -7 -30 -14 -40c-20 -28 -38 -39 -66 -39c-60 0 -90 53 -150 53c-24 0 -48 -44 -57 -44zM240.5 395c-68 0 -99.5 -77.5 -99.5 -154
c0 -99.5 40.5 -201 122.5 -201c67.5 0 101 77.5 101 153.5c0 100.5 -41 201.5 -124 201.5zM253 442c126 0 226.5 -100.5 226.5 -224c0 -124 -98.5 -225 -225.5 -225c-126.5 0 -227 101 -227 225c0 125 98.5 224 226 224z" />
    <glyph glyph-name="odieresis" unicode="&#xf6;" horiz-adv-x="507" 
d="M295 566c0 32 26 59 58 59s59 -27 59 -59s-27 -58 -59 -58s-58 26 -58 58zM93 566c0 32 26 59 58 59s59 -27 59 -59s-27 -58 -59 -58s-58 26 -58 58zM240.5 395c-68 0 -99.5 -77.5 -99.5 -154c0 -99.5 40.5 -201 122.5 -201c67.5 0 101 77.5 101 153.5
c0 100.5 -41 201.5 -124 201.5zM253 442c126 0 226.5 -100.5 226.5 -224c0 -124 -98.5 -225 -225.5 -225c-126.5 0 -227 101 -227 225c0 125 98.5 224 226 224z" />
    <glyph glyph-name="divide" unicode="&#xf7;" horiz-adv-x="524" 
d="M260 384c-30 0 -51 20 -55 50v4c0 28 26 54 55 54c30 0 51 -19 55 -49v-5c0 -27 -26 -54 -55 -54zM260 0c-30 0 -51 22 -55 52v4c0 28 26 56 55 56c30 0 51 -24 55 -54v-2c0 -27 -26 -56 -55 -56zM26 222c0 2 3 58 14 58h449s7 -1 7 -10c0 -18 -7 -46 -8 -50
c-2 -6 -8 -7 -8 -7h-448s-6 -1 -6 9z" />
    <glyph glyph-name="oslash" unicode="&#xf8;" horiz-adv-x="511" 
d="M268 40c72 0 99 83 99 155c0 42 -7 88 -23 125l-141 -257c16 -14 39 -23 65 -23zM246 399c-73 0 -102 -84 -102 -157c0 -44 8 -92 26 -130l142 261c-17 16 -38 26 -66 26zM256 445c30 0 60 -6 86 -17l18 31c2 2 5 4 10 3c8 0 22 -10 32 -20c4 -4 4 -9 4 -10l-16 -30
c56 -42 92 -109 92 -184c0 -124 -99 -225 -226 -225c-30 0 -57 5 -83 15l-20 -35c-1 -2 -5 -3 -11 -1s-19 5 -29 17c-5 6 -5 11 -5 11l18 33c-58 41 -96 109 -96 185c0 125 98 227 226 227z" />
    <glyph glyph-name="ugrave" unicode="&#xf9;" horiz-adv-x="555" 
d="M154 642c0 6 9 26 44 26c14 0 29 -3 34 -8c37 -43 92 -133 92 -138c0 -6 -7 -16 -14 -16c-10 0 -156 97 -156 136zM464 334v-198c0 -18 1 -50.5 8.5 -69.5c8 -15.5 50.5 -13 53.5 -14c2 -1 3.5 -6.5 3.5 -9.5c0 -2 -2 -22.5 -7 -22.5c-52.5 -3 -154.5 -27 -155.5 -27
c-5 0 -7 10 -7 17v44c0 5 -2.02148 5.52148 -3 4.5c-25.5 -27 -80 -64.5 -140 -64.5c-94 0 -127.5 100 -127.5 182v111.5c0 9 -1.5 49 -16 64.5c-19 22.5 -56.5 18 -56.5 23c0 2 0.5 29.5 5.5 30c35.5 3.5 123.5 19.5 160.5 31c1 0 7 2 8 2c7 0 10.5 -14 10 -19
c-4 -32 -8.5 -53 -8.5 -87v-121c0 -103.5 27 -145.5 92.5 -145.5c47 0 76 36.5 76 57v165c0 9 -1.5 49 -16 64.5c-19 22.5 -56.5 18 -56.5 23c0 2 0.5 29.5 5.5 30c35.5 3.5 123.5 19.5 160.5 31c1 0 7 2 8 2c7 0 10.5 -14 10 -19c-4 -32 -8.5 -52 -8.5 -85.5z" />
    <glyph glyph-name="uacute" unicode="&#xfa;" horiz-adv-x="555" 
d="M374 668c35 0 42 -20 42 -26c0 -39 -145 -136 -155 -136c-7 0 -15 10 -15 16s58 96 94 138c5 5 20 8 34 8zM464 334v-198c0 -18 1 -50.5 8.5 -69.5c8 -15.5 50.5 -13 53.5 -14c2 -1 3.5 -6.5 3.5 -9.5c0 -2 -2 -22.5 -7 -22.5c-52.5 -3 -154.5 -27 -155.5 -27
c-5 0 -7 10 -7 17v44c0 5 -2.02148 5.52148 -3 4.5c-25.5 -27 -80 -64.5 -140 -64.5c-94 0 -127.5 100 -127.5 182v111.5c0 9 -1.5 49 -16 64.5c-19 22.5 -56.5 18 -56.5 23c0 2 0.5 29.5 5.5 30c35.5 3.5 123.5 19.5 160.5 31c1 0 7 2 8 2c7 0 10.5 -14 10 -19
c-4 -32 -8.5 -53 -8.5 -87v-121c0 -103.5 27 -145.5 92.5 -145.5c47 0 76 36.5 76 57v165c0 9 -1.5 49 -16 64.5c-19 22.5 -56.5 18 -56.5 23c0 2 0.5 29.5 5.5 30c35.5 3.5 123.5 19.5 160.5 31c1 0 7 2 8 2c7 0 10.5 -14 10 -19c-4 -32 -8.5 -52 -8.5 -85.5z" />
    <glyph glyph-name="ucircumflex" unicode="&#xfb;" horiz-adv-x="555" 
d="M373 497c-11 0 -72 46 -100 70c-28 -25 -89 -70 -100 -70c-6 0 -9 16 -9 24c7 8 27 28 60 70c18 22 28 39 38 55c4 7 6 9 11 9s6 -3 10 -9c11 -16 21 -33 37 -53c34 -44 58 -67 62 -72c0 -10 -3 -24 -9 -24zM464 334v-198c0 -18 1 -50.5 8.5 -69.5
c8 -15.5 50.5 -13 53.5 -14c2 -1 3.5 -6.5 3.5 -9.5c0 -2 -2 -22.5 -7 -22.5c-52.5 -3 -154.5 -27 -155.5 -27c-5 0 -7 10 -7 17v44c0 5 -2.02148 5.52148 -3 4.5c-25.5 -27 -80 -64.5 -140 -64.5c-94 0 -127.5 100 -127.5 182v111.5c0 9 -1.5 49 -16 64.5
c-19 22.5 -56.5 18 -56.5 23c0 2 0.5 29.5 5.5 30c35.5 3.5 123.5 19.5 160.5 31c1 0 7 2 8 2c7 0 10.5 -14 10 -19c-4 -32 -8.5 -53 -8.5 -87v-121c0 -103.5 27 -145.5 92.5 -145.5c47 0 76 36.5 76 57v165c0 9 -1.5 49 -16 64.5c-19 22.5 -56.5 18 -56.5 23
c0 2 0.5 29.5 5.5 30c35.5 3.5 123.5 19.5 160.5 31c1 0 7 2 8 2c7 0 10.5 -14 10 -19c-4 -32 -8.5 -52 -8.5 -85.5z" />
    <glyph glyph-name="udieresis" unicode="&#xfc;" horiz-adv-x="555" 
d="M323 566c0 32 26 59 58 59s59 -27 59 -59s-27 -58 -59 -58s-58 26 -58 58zM121 566c0 32 26 59 58 59s59 -27 59 -59s-27 -58 -59 -58s-58 26 -58 58zM464 334v-198c0 -18 1 -50.5 8.5 -69.5c8 -15.5 50.5 -13 53.5 -14c2 -1 3.5 -6.5 3.5 -9.5c0 -2 -2 -22.5 -7 -22.5
c-52.5 -3 -154.5 -27 -155.5 -27c-5 0 -7 10 -7 17v44c0 5 -2.02148 5.52148 -3 4.5c-25.5 -27 -80 -64.5 -140 -64.5c-94 0 -127.5 100 -127.5 182v111.5c0 9 -1.5 49 -16 64.5c-19 22.5 -56.5 18 -56.5 23c0 2 0.5 29.5 5.5 30c35.5 3.5 123.5 19.5 160.5 31c1 0 7 2 8 2
c7 0 10.5 -14 10 -19c-4 -32 -8.5 -53 -8.5 -87v-121c0 -103.5 27 -145.5 92.5 -145.5c47 0 76 36.5 76 57v165c0 9 -1.5 49 -16 64.5c-19 22.5 -56.5 18 -56.5 23c0 2 0.5 29.5 5.5 30c35.5 3.5 123.5 19.5 160.5 31c1 0 7 2 8 2c7 0 10.5 -14 10 -19
c-4 -32 -8.5 -52 -8.5 -85.5z" />
    <glyph glyph-name="yacute" unicode="&#xfd;" horiz-adv-x="524" 
d="M407 668c35 0 42 -20 42 -26c0 -39 -145 -136 -155 -136c-7 0 -15 10 -15 16s58 96 94 138c5 5 20 8 34 8zM134 432c38 0 74 4.5 114 6.5c1 -3 2.5 -13 2.5 -18c0 -6 -1 -15 -4 -15c-10 0 -53 -10.5 -54.5 -23.5c0 -2 0.5 -5.5 0.5 -5.5c1 -14 27 -76.5 92.5 -228
c14.5 31.5 61.5 158.5 75 190.5c5 13 6.5 23.5 6.5 30.5c0 15 -18.5 36 -64 36c-2 0 -4 9.5 -4 15.5s1.5 15 3 17.5c41 -2 69 -6.5 110 -6.5c38 0 57 4.5 97 6.5c1.5 -3.5 3 -9 3 -16c0 -6 -1 -17 -4 -17c-8 0 -61.5 -8 -74.5 -39l-182.5 -443
c-55.9277 -130.526 -117.5 -146 -149.5 -146c-37 0 -54 26 -54 46c0 19 8.5 32.5 18.5 39.5c67 0 114.548 24.1543 137.5 82c12.0918 30.2275 16.5 40 27 68l-146 340c-1.5 3.5 -8 18.5 -12.5 23c-14 22.5 -49.5 29.5 -61.5 29.5c-2 0 -4 8 -4 14s1 17 3 19
c41 -2 84 -6.5 125 -6.5z" />
    <glyph glyph-name="thorn" unicode="&#xfe;" horiz-adv-x="540" 
d="M304.5 441c135.5 0 212 -113 212 -210.5c0 -141 -109.5 -238.5 -234.5 -238.5c-39.5 0 -60.5 10.5 -71 14c-1.5 0 -4 -4.5 -4 -14.5v-68c0 -33.5 0.5 -63 7.5 -90c3 -11 53.5 -22.5 61.5 -22.5c5 0 4.5 -27 2.5 -33c-40.5 2 -83.5 6.5 -122 6.5
c-41.5 0 -81.5 -4.5 -123 -6.5c-5 5 -5 33 0 33c12 0 60 11.5 63 22.5c6 25.5 7 62.5 7 73v631.5c0 18.5 -1.5 50 -5.5 70c-4 14 -34.5 16 -51.5 16h-9c-4 0 -6 8.5 -6 15.5c0 2 1 16.5 6 16.5c110.5 10 163 38.5 166 38.5h2c6 0 12 -11.5 13 -16.5
c0 0 -11.5 -38.5 -11.5 -94v-171.5c0 -3.5 1.5 -5.5 2.5 -5.5c16 12 58.5 34 95 34zM281 387.5c-43.5 0 -74 -27 -74 -69v-207c0 -46 47.5 -71.5 85 -71.5c58 0 109.5 53.5 109.5 160c0 103 -42.5 187.5 -120.5 187.5z" />
    <glyph glyph-name="ydieresis" unicode="&#xff;" horiz-adv-x="524" 
d="M337 566c0 32 26 59 58 59s59 -27 59 -59s-27 -58 -59 -58s-58 26 -58 58zM135 566c0 32 26 59 58 59s59 -27 59 -59s-27 -58 -59 -58s-58 26 -58 58zM134 432c38 0 74 4.5 114 6.5c1 -3 2.5 -13 2.5 -18c0 -6 -1 -15 -4 -15c-10 0 -53 -10.5 -54.5 -23.5
c0 -2 0.5 -5.5 0.5 -5.5c1 -14 27 -76.5 92.5 -228c14.5 31.5 61.5 158.5 75 190.5c5 13 6.5 23.5 6.5 30.5c0 15 -18.5 36 -64 36c-2 0 -4 9.5 -4 15.5s1.5 15 3 17.5c41 -2 69 -6.5 110 -6.5c38 0 57 4.5 97 6.5c1.5 -3.5 3 -9 3 -16c0 -6 -1 -17 -4 -17
c-8 0 -61.5 -8 -74.5 -39l-182.5 -443c-55.9277 -130.526 -117.5 -146 -149.5 -146c-37 0 -54 26 -54 46c0 19 8.5 32.5 18.5 39.5c67 0 114.548 24.1543 137.5 82c12.0918 30.2275 16.5 40 27 68l-146 340c-1.5 3.5 -8 18.5 -12.5 23c-14 22.5 -49.5 29.5 -61.5 29.5
c-2 0 -4 8 -4 14s1 17 3 19c41 -2 84 -6.5 125 -6.5z" />
    <glyph glyph-name="Idotaccent" unicode="&#x130;" horiz-adv-x="323" 
d="M98 790c0 34 28 62 62 62s62 -28 62 -62s-28 -62 -62 -62s-62 28 -62 62zM104 522c0 18 -2 66 -8 84c-6 12 -52 23 -64 23c-2 0 -4 9 -4 15s0 16 2 18c46 -2 87 -6 133 -6c44 0 88 4 128 6c1 -3 3 -11 3 -16c0 -6 -1 -17 -4 -17c-8 0 -62 -12 -65 -23
c-7 -27 -8 -70 -8 -88v-376c0 -36 2 -63 9 -90c3 -11 54 -22 62 -22c3 0 4 -13 4 -19c0 -5 -1 -11 -2 -14c-40 2 -83 6 -127 6c-46 0 -87 -4 -133 -6c-2 2 -4 8 -4 14s2 19 4 19c12 0 61 10 66 22c6 23 8 66 8 84v386z" />
    <glyph glyph-name="OE" unicode="&#x152;" horiz-adv-x="1011" 
d="M338 618c-123 0 -178 -134 -178 -268c0 -140 67 -312 217 -312c50 0 93 1 118 30c38 39 39 103 39 145v261c0 32 -3 79 -39 109c-38 32 -93 35 -157 35zM352 667c62 0 173 -9 240 -9c92 0 213 6 322 6c7 -50 21 -97 30 -142c-3 -3 -14 -5 -21 -5s-12 2 -14 7
c-24 65 -75 89 -128 89h-53c-41 0 -74 -1 -76 -13c-4 -19 -5 -58 -5 -81v-157c0 -5 21 -6 43 -6h53c96 0 79 -1 96 65c1 5 8 7 15 7s17 -2 20 -5v-189c-2 -2 -12 -4 -19 -4s-14 3 -16 8c-15 57 -19 54 -28 60c-11 7 -54 8 -92 8c-28 0 -72 1 -72 -8v-155c0 -19 2 -61 9 -81
c4 -10 26 -13 68 -13h36c38 0 91 6 120 21c19 10 51 47 67 96c1 4 7 6 14 6c10 0 24 -3 27 -6c-19 -54 -47 -125 -54 -169c-109 0 -229 5 -341 5c-49 0 -74 -1 -113 -4c-29 -2 -98 -6 -130 -6c-176 0 -318 149 -318 336s141 339 320 339z" />
    <glyph glyph-name="oe" unicode="&#x153;" horiz-adv-x="793" 
d="M265 40c61 0 101 75 101 163c0 107 -56 195 -120 195c-61 0 -101 -75 -101 -163c0 -107 56 -195 120 -195zM648 284c0 30 -25 112 -78 112c-78 0 -86 -90 -86 -115c0 -2 -2 -6 6 -6c9 0 149 -2 152 0c4 2 6 5 6 9zM582 442c131 0 172 -108 172 -182
c0 -29 -24 -32 -44 -32c-83 -2 -135 -3 -219 -3c-6 0 -9 -6 -9 -8v-8c0 -77 43 -146 132 -146c75 0 117 45 124 45c1 0 10 -8 10 -14c0 -5 -1 -15 -4 -20c-23 -34 -94 -82 -162 -82c-60 0 -117 26 -157 71c-39 -43 -97 -70 -166 -70c-131 0 -230 101 -230 227
s96 225 227 225c68 0 127 -28 167 -72c39 46 97 69 159 69z" />
    <glyph glyph-name="Racute" unicode="&#x154;" horiz-adv-x="685" 
d="M216 745c0 8 80 87 120 117c4 2 10 3 18 3c28 0 54 -13 54 -33c0 -36 -164 -104 -180 -104c-6 0 -12 9 -12 17zM288 610.5c-24 0 -46.1172 -1.83789 -58 -7.5c-8 -4 -11 -19 -12 -104v-114.5c0 -34 33.5 -36 64.5 -36h26c45.5 0 96 47.0625 96 126
c0 95 -44 136 -116.5 136zM303.5 660c82 0 223 -42.5 223 -175.5c0 -75.5 -57 -144.5 -120 -170.5c-5 -2 -7.80469 -4.87891 -4.5 -10.5c29.5 -53 58 -103 112 -170c39.8672 -48.585 100 -103.5 150 -103.5c2.5 -4 3.5 -11 3.5 -16c0 -5.5 -0.5 -11 -3.5 -17.5
c-7 -1.5 -24.5 -2.5 -31 -2.5c-143.5 0 -206 73.5 -257.5 149c-58.1562 84.916 -90.4092 143.137 -117 154c-5.5 2 -15 2.5 -24 2.5c-9.5 0 -16.5 -2.5 -16.5 -16.5v-141.5c0 -27 0.5 -61 7.5 -84.5c6 -19.5 70.5 -27.5 78.5 -27.5c2.8623 0 3.81934 -9.90918 3.81934 -16.5
c0 -5.50391 -0.863281 -13.6338 -1.81934 -16.5c-40 2 -82 5.5 -141.5 5.5c-62 0 -134 -5.5 -134 -5.5c-1 1 -3.5 8.5 -3.5 17.5c0 6 1.5 16.5 3.5 16.5c12 0 61 8.5 67.5 21.5c6.5 17.5 6.5 54 6.5 91v378c0 18 -0.5 59 -6.5 82c-5 12 -56 25 -68 25c-2 0 -4 8 -4 15
s1.5 16 3.5 18c0 0 106 -3.5 133.5 -3.5c57 0 81.5 2.5 140.5 2.5z" />
    <glyph glyph-name="racute" unicode="&#x155;" horiz-adv-x="430" 
d="M337 668c35 0 42 -20 42 -26c0 -39 -145 -136 -155 -136c-7 0 -15 10 -15 16s58 96 94 138c5 5 20 8 34 8zM320.5 442c38.5 0 66 -14 82 -33c0 -57.5 -16 -84.5 -48 -84.5c-39 0 -38.5 40 -83 40s-66 -59 -66 -97.5v-125.5c0 -33 0.5 -62.5 7.5 -89.5
c3 -11 52 -22.5 60 -22.5c5 0 4.5 -27 2.5 -33c-40.5 2 -82 6.5 -120.5 6.5c-41.5 0 -81.5 -4.5 -123 -6.5c-5 5 -5 33 0 33c12 0 60 11.5 63 22.5c6 25.5 7 62.5 7 73v163c0 9 -1.5 49 -16 64.5c-19 22.5 -56.5 18 -56.5 23c0 2 0.5 29.5 5.5 30
c35.5 3.5 106.5 18.5 160.5 31c0.5 0 7 2 8 2c7 0 10.5 -14 10 -19c-1.5 -10.5 -4.5 -38.5 -5.5 -47c20.5 29.5 64.5 69.5 112.5 69.5z" />
    <glyph glyph-name="Scaron" unicode="&#x160;" horiz-adv-x="474" 
d="M343 865c6 0 10 -12 10 -20c-4 -4 -31 -25 -69 -62c-17 -17 -29 -32 -41 -46c-4 -5 -8 -8 -12 -8s-7 2 -12 8c-10 14 -22 28 -42 47c-37 36 -60 53 -68 61c0 6 3 20 10 20c12 0 81 -38 112 -60c31 20 100 60 112 60zM38.5 489.5c0 104.5 103 178.5 204.5 178.5
c60.5 0 95 -14 159.5 -28c9 -53 11.5 -110 11.5 -154.5c-1.5 -7 -9 -8.5 -12.5 -8.5c-7.5 0 -26.5 -0.5 -28.5 8.5c-7 53 -55 134 -133 134c-63.5 0 -95 -38.5 -95 -96c0 -71 76.5 -110 142.5 -152c66.5 -42.5 160.5 -81.5 160.5 -197.5c0 -110 -105 -184 -213.5 -184
c-63.5 0 -130.5 15.5 -185 27.5c-12 52 -24 142.5 -24 162.5c1 5.5 11 8 17 8c10.5 0 26.5 -1.5 28.5 -7.5c8 -42 51.5 -141.5 154.5 -141.5c59 0 109.5 33 109.5 112c0 71.5 -77 104.5 -136.5 141.5c-75 47 -160 94.5 -160 197z" />
    <glyph glyph-name="scaron" unicode="&#x161;" horiz-adv-x="366" 
d="M170 594c28 24 89 70 100 70c6 0 9 -13 9 -23c-4 -5 -28 -28 -62 -72c-16 -20 -26 -38 -37 -54c-4 -6 -5 -9 -10 -9c-4 0 -7 2 -11 9c-10 16 -20 33 -38 55c-33 42 -53 63 -60 71c0 8 3 23 9 23c11 0 72 -45 100 -70zM190 443c43 0 76 -5.5 116 -16.5
c7 -31.5 10.5 -76.5 11 -113c0 -4 -6 -7 -13 -7c-10.5 0 -23 2.5 -24 7.5c-8 39.5 -34 84 -90.5 84c-38 0 -61 -18.5 -61 -50c0 -43 39.5 -60.5 84 -84.5c46.5 -25 125.5 -61 125.5 -138c0 -87 -77.5 -136 -166.5 -136c-45 0 -93 13.5 -128.5 28.5c-6 22 -14.5 87 -14.5 113
c4 3 8.5 4.5 13.5 4.5c7 0 23.5 -0.5 24.5 -7.5c10.5 -59 60.5 -93 107 -93c35.5 0 64.5 18 64.5 55c0 48.5 -49 67.5 -111.5 101c-57 29.5 -96 65 -96 125.5c0 87 83 126.5 159.5 126.5z" />
    <glyph glyph-name="Ydieresis" unicode="&#x178;" horiz-adv-x="657" 
d="M398 790c0 34 28 62 62 62s62 -28 62 -62s-28 -62 -62 -62s-62 28 -62 62zM192 790c0 34 28 62 62 62s62 -28 62 -62s-28 -62 -62 -62s-62 28 -62 62zM156.5 656c49 0 97.5 4 137.5 6c2 -6 3 -32 -2 -32c-14 0 -56 -7 -56.5 -27.5c0 -7 4.17676 -16.7402 9.5 -26
l106 -194.5c5 -5 7.97461 -0.984375 10 2c43.5 65 122.5 191 122.5 218.5c0 13 -24.5 27.5 -66.5 27.5c-5 0 -5.5 27 -0.5 32c33.5 -2 82.5 -6 119.5 -6c52 0 75 4 109.5 6c1 -3 2.5 -11.5 2.5 -16.5c0 -6 -1 -15 -4 -15c-13.5 0 -62.5 -10.5 -80 -33.5
c-23 -33.5 -179 -279 -179 -299.5v-155.5c0 -35.5 1 -63 8 -90c3 -11 53.5 -23.5 61.5 -23.5c2.87012 0 3.81934 -9.65527 3.81934 -16c0 -5.25781 -0.867188 -13.1445 -1.81934 -16c-40 2 -81.5 6.5 -125.5 6.5c-46 0 -85.5 -4.5 -131.5 -6.5
c-2.15723 2.15723 -3.86523 9.13477 -3.86523 15c0 6.32617 1.02246 17 3.36523 17c12 0 60 11.5 65 23.5c6 23 7.5 60 7.5 88.5v147.5c0 17 -66 130.5 -135.5 255c-17.8867 32.8848 -32.5 56 -51.5 68.5c-15.376 9.92578 -47 18.5 -59 18.5c-3.5 0 -4.5 18.5 -2 24
c24.5 2 84 2 133 2z" />
    <glyph glyph-name="Zcaron" unicode="&#x17d;" horiz-adv-x="622" 
d="M429 864c6 0 10 -12 10 -20c-4 -4 -31 -25 -69 -62c-17 -17 -29 -32 -41 -46c-4 -5 -8 -8 -12 -8s-7 2 -12 8c-10 14 -22 28 -42 47c-37 36 -60 53 -68 61c0 6 3 20 10 20c12 0 81 -38 112 -60c31 20 100 60 112 60zM224 656h109c84 0 137 4 221 10c4 -1 10 -23 10 -33
c-2 -8 -369.5 -554 -369.5 -554c-4 -6 -7 -11 -7 -15c0 -7 7 -10 14 -10h192.5c100.5 0 141.5 64.5 161 119c1 2 5.5 4.5 13.5 4.5c10 0 22 -2.5 27.5 -7.5c-23 -72.5 -40.5 -121.5 -49 -170h-506.5c-6 7 -8 18 -8 26c0 7 1 13 4 17l375.5 560.5h-191.5
c-99.5 -0.5 -117.5 -45.5 -141 -119.5c-1 -3 -4 -5 -11.5 -5c-11 0 -29.5 3.5 -32.5 6.5c11.5 57 24 114 31.5 178c16 -4 143 -7.5 157 -7.5z" />
    <glyph glyph-name="zcaron" unicode="&#x17e;" horiz-adv-x="431" 
d="M224 594c28 24 89 70 100 70c6 0 9 -13 9 -23c-4 -5 -28 -28 -62 -72c-16 -20 -26 -38 -37 -54c-4 -6 -5 -9 -10 -9c-4 0 -7 2 -11 9c-10 16 -20 33 -38 55c-33 42 -53 63 -60 71c0 8 3 23 9 23c11 0 72 -45 100 -70zM158.5 54c0 -5 10 -7 12 -7h96.5
c61 0 86 35.5 100 78c2 6.5 12.5 10 17.5 10c9 0 17 -3.5 20 -8l-19 -127h-339.5s-20 12 -20 23c0 1 0 3 1 4l230.5 349.5l-105 1c-57 0.5 -73.5 -53.5 -81.5 -71.5c-2 -4 -14.5 -6 -24.5 -6c-6 0 -11.5 0.5 -11.5 2.5c0 14 13 74.5 16 127.5c0 0 59 -6 95 -6h122
c54 0 84.5 3 125.5 8c5 -8 3 -19 3 -24l-231 -340c-5 -7 -7 -11 -7 -14z" />
    <glyph glyph-name="longs" unicode="&#x17f;" horiz-adv-x="309" 
d="M204.5 142c-0.5 -34 1 -63 8 -90c3 -11 51.5 -22.5 59.5 -22.5c5 0 4.5 -27 2.5 -33c-40.5 2 -82.5 6.5 -122 6.5c-41.5 0 -79.5 -4.5 -121 -6.5c-5 5 -4.5 33 0 33c12 0 58.5 11.5 61.5 22.5c7 28.5 8.5 61.5 8.5 82.5v229.5c0 3 -2 7 -5 7h-60c-2 0 -3 2 -3 6
c0 10.5 19 47.5 46 47.5h17c3 0 5 3 5 6v10c0 141 99 254.685 210.5 254.8c61 0.0537109 96 -19.2998 106 -36.2998c4.5 -34 -2.5 -80 -41.5 -80c-41.5 0 -46.5 66 -95 66c-55 0 -77.5 -87 -77 -170v-333z" />
    <glyph glyph-name="acutecomb" unicode="&#x301;" horiz-adv-x="234" 
d="M164 686c35 0 42 -20 42 -26c0 -39 -145 -136 -155 -136c-7 0 -15 10 -15 16s58 96 94 138c5 5 20 8 34 8z" />
    <glyph glyph-name="endash" unicode="&#x2013;" horiz-adv-x="499" 
d="M28 206c0 2 3 59 14 59h425c2 0 6 -1 6 -9c0 -18 -8 -48 -9 -52c-2 -6 -7 -7 -7 -7h-423s-6 -1 -6 9z" />
    <glyph glyph-name="emdash" unicode="&#x2014;" horiz-adv-x="832" 
d="M25 211c0 2 3 59 14 59h763c2 0 6 -1 6 -9c0 -18 -7 -48 -8 -52c-2 -6 -8 -7 -8 -7h-761s-6 -1 -6 9z" />
    <glyph glyph-name="quoteleft" unicode="&#x2018;" horiz-adv-x="160" 
d="M16 555c0 94 101 151 110 151c8 0 24 -11 28 -22c-60 -36 -70 -81 -70 -90c0 -26 41 -44 41 -72c0 -24 -33 -44 -65 -44c-7 0 -21 3 -29 7c-9 13 -15 42 -15 70z" />
    <glyph glyph-name="quoteright" unicode="&#x2019;" horiz-adv-x="162" 
d="M151 630c0 -94 -100 -151 -109 -151c-8 0 -24 11 -28 22c60 36 70 82 70 91c0 26 -42 44 -42 72c0 24 34 43 66 43c7 0 20 -3 28 -7c9 -13 15 -42 15 -70z" />
    <glyph glyph-name="quotesinglbase" unicode="&#x201a;" horiz-adv-x="160" 
d="M148 48c0 -94 -100 -150 -109 -150c-8 0 -24 10 -28 21c60 36 71 82 71 91c0 26 -42 44 -42 72c0 24 34 43 66 43c7 0 20 -3 28 -7c9 -13 14 -42 14 -70z" />
    <glyph glyph-name="quotedblleft" unicode="&#x201c;" horiz-adv-x="320" 
d="M162 555c0 94 101 151 110 151c8 0 24 -11 28 -22c-60 -36 -71 -81 -71 -90c0 -26 41 -44 41 -72c0 -24 -32 -44 -64 -44c-7 0 -22 3 -30 7c-9 13 -14 42 -14 70zM16 555c0 94 101 151 110 151c8 0 24 -11 28 -22c-60 -36 -70 -81 -70 -90c0 -26 41 -44 41 -72
c0 -24 -33 -44 -65 -44c-7 0 -21 3 -29 7c-9 13 -15 42 -15 70z" />
    <glyph glyph-name="quotedblright" unicode="&#x201d;" horiz-adv-x="321" 
d="M226 630c0 -94 -101 -151 -110 -151c-8 0 -23 11 -27 22c60 36 70 82 70 91c0 26 -41 44 -41 72c0 24 33 43 65 43c7 0 21 -3 29 -7c9 -13 14 -42 14 -70zM228 630c0 28 -5 57 -14 70c-8 4 -21 7 -28 7c-32 0 -66 -19 -66 -43c0 -28 42 -46 42 -72c0 -9 -11 -55 -71 -91
c4 -11 20 -22 28 -22c9 0 109 57 109 151z" />
    <glyph glyph-name="quotedblbase" unicode="&#x201e;" horiz-adv-x="314" 
d="M224 47c0 -94 -101 -151 -110 -151c-8 0 -23 11 -27 22c60 36 70 81 70 90c0 26 -41 44 -41 72c0 24 33 44 65 44c7 0 21 -3 29 -7c9 -13 14 -42 14 -70zM226 48c0 28 -5 57 -14 70c-8 4 -21 7 -28 7c-32 0 -66 -19 -66 -43c0 -28 42 -46 42 -72c0 -9 -11 -55 -71 -91
c4 -11 20 -21 28 -21c9 0 109 56 109 150z" />
    <glyph glyph-name="dagger" unicode="&#x2020;" horiz-adv-x="355" 
d="M218 -10c-11 4 -29 5 -40 5s-27 -1 -39 -5c4 145 9 221 9 366c0 5 -3 10 -8 10h-10c-38 0 -64 -4 -105 -6c1 9 2 24 2 33c0 11 -1 28 -2 39c41 -2 67 -5 105 -5h10c4 0 8 4 8 8c0 78 -5 116 -9 194c12 -2 28 -4 39 -4s28 2 40 4c-4 -78 -9 -116 -9 -194c0 -4 4 -8 8 -8h9
c38 0 65 3 106 5c-1 -11 -2 -28 -2 -39c0 -9 1 -24 2 -33c-41 2 -68 6 -106 6h-9c-5 0 -8 -5 -8 -10c0 -145 5 -221 9 -366z" />
    <glyph glyph-name="daggerdbl" unicode="&#x2021;" horiz-adv-x="364" 
d="M213 264c0 -5 3 -10 8 -10h9c38 0 65 4 106 6c-1 -9 -2 -24 -2 -33c0 -11 1 -28 2 -39c-41 2 -68 5 -106 5h-9c-4 0 -8 -4 -8 -8c0 -78 5 -116 9 -194c-12 2 -29 4 -40 4s-27 -2 -39 -4c4 78 9 116 9 194c0 4 -4 8 -8 8h-10c-38 0 -64 -3 -105 -5c1 11 2 28 2 39
c0 9 -1 24 -2 33c41 -2 67 -6 105 -6h10c5 0 8 5 8 10v92c0 5 -3 10 -8 10h-10c-38 0 -64 -4 -105 -6c1 9 2 24 2 33c0 11 -1 28 -2 39c41 -2 67 -5 105 -5h10c4 0 8 4 8 8c0 78 -5 116 -9 194c12 -2 28 -4 39 -4s28 2 40 4c-4 -78 -9 -116 -9 -194c0 -4 4 -8 8 -8h9
c38 0 65 3 106 5c-1 -11 -2 -28 -2 -39c0 -9 1 -24 2 -33c-41 2 -68 6 -106 6h-9c-5 0 -8 -5 -8 -10v-92z" />
    <glyph glyph-name="bullet" unicode="&#x2022;" horiz-adv-x="409" 
d="M79 263c0 68 56 125 124 125s123 -57 123 -125s-55 -124 -123 -124s-124 56 -124 124z" />
    <glyph glyph-name="perthousand" unicode="&#x2030;" horiz-adv-x="977" 
d="M793 278c-50 0 -68 -59 -68 -109c0 -64 27 -141 81 -141c50 0 64 59 64 109c0 64 -20 141 -77 141zM799 309c88 0 153 -71 153 -157c0 -82 -63 -155 -153 -155c-86 0 -154 69 -154 155s66 157 154 157zM169 613c-50 0 -66 -60 -66 -110c0 -64 26 -140 80 -140
c50 0 64 58 64 108c0 64 -21 142 -78 142zM176 643c88 0 153 -71 153 -157c0 -82 -63 -155 -153 -155c-86 0 -153 69 -153 155s65 157 153 157zM463 278c-50 0 -68 -59 -68 -109c0 -64 26 -141 80 -141c50 0 64 59 64 109c0 64 -19 141 -76 141zM469 309
c88 0 152 -71 152 -157c0 -82 -62 -155 -152 -155c-86 0 -154 69 -154 155s66 157 154 157zM593 626l-482 -622c-4 -6 -22 -12 -34 -12c-20 0 -27 8 -28 12l482 624c5 6 13 13 19 13c26 0 33 -7 43 -15z" />
    <glyph glyph-name="guilsinglleft" unicode="&#x2039;" horiz-adv-x="291" 
d="M120 248c9 -8 65 -67 80 -81c54 -52 67 -63 67 -73c0 -12 -23 -19 -29 -21c-1 2 -59 59 -206 154c-5 2 -7 8 -7 14c0 10 1 19 8 27c131 79 203 153 206 155c14 -4 29 -14 29 -22s-12 -20 -68 -73z" />
    <glyph glyph-name="guilsinglright" unicode="&#x203a;" horiz-adv-x="294" 
d="M173 248l-80 80c-56 53 -68 65 -68 73s15 18 29 22c3 -2 75 -76 206 -155c7 -8 8 -17 8 -27c0 -6 -2 -12 -7 -14c-147 -95 -205 -152 -206 -154c-6 2 -29 9 -29 21c0 10 13 21 67 73c15 14 71 73 80 81z" />
    <glyph glyph-name="Euro" unicode="&#x20ac;" horiz-adv-x="658" 
d="M36 291h388.5c4 0 2.5 -10.5 0.5 -16.5c-2 -7 -9 -25 -18 -36h-389c-4 0 -1.5 11 0.5 17c2 7 7.5 24.5 17.5 35.5zM36 403.5h388.5c4 0 2.5 -10.5 0.5 -16.5c-2 -7 -9 -25 -18 -36h-389c-4 0 -1.5 11 0.5 17c2 7 7.5 24.5 17.5 35.5zM378.1 641.52
c63.1797 0 152.74 -11.2393 222.92 -26.4189c3.83984 -0.959961 8.59961 -130.24 8.59961 -140.04s-12.2002 -14.7002 -22.96 -14.7002c-5.40039 0 -10.2803 1.95996 -13.6807 3.94043c-7.7998 33.7197 -42.7998 130.34 -190.979 130.34
c-132.68 0 -195.92 -129.94 -195.92 -264.641c0 -149.88 71.5996 -289.58 222.779 -289.58c60.7998 0 103.96 25.4404 131.439 53.9199c29.9004 30.9004 39.6602 89.2207 45.5801 89.2207c8.90039 0 34.7207 -2.08008 37.6006 -8.7998
c0 -10.7803 -24.4795 -134.7 -36.1797 -140.08c-58.2402 -28.04 -131.34 -40.6807 -219.5 -40.6807c-169.96 0 -302.6 145.46 -302.6 315.42c0 179.76 132.7 332.1 312.9 332.1z" />
    <glyph glyph-name="question.ordn" 
d="M76 644c114 0 227 -70 227 -184c0 -92 -44 -129 -110 -162c-34 -17 -74 -34 -80 -56c-5 -16 0 -46 -5 -55c-5 -8 -15 -11 -26 -11c-10 0 -14 52 -14 86c0 70 15 86 57 114c32 22 111 46 111 106c0 39 -32 69 -71 69c-31 0 -49 -10 -80 -10s-60 22 -60 53c0 15 3 28 6 38
c13 6 27 12 45 12zM158 56c0 -36 -29 -68 -66 -68c-38 0 -68 32 -68 68s31 67 68 67c36 0 66 -31 66 -67z" />
    <glyph glyph-name="a.ordn" 
d="M192 57.5c37 0 66 23.5 66 46.5v102c-45.5 -17 -123 -30.5 -123 -86.5c0 -44.5 27 -62 57 -62zM237 442.5c79 0 124 -34 124 -145v-196.5c0 -27 13 -41.5 32.5 -41.5c18 0 31 11 34.5 13.5c3.5 -1 5.5 -7.5 5.5 -11.5c0 -12.5 -3 -24 -6 -29
c-14 -12.5 -53.5 -38.5 -87.5 -38.5c-33 0 -65 29.5 -74 53.5c-4 -1 -54 -54.5 -125 -54.5c-66 0 -113 38 -113 102.5c0 103.5 143.5 128 221 155c6 2 9 8 9 15v55.5c0 47.5 -24 74.5 -59 74.5c-39 0 -64 -24.5 -64 -70.5c0 -29 -26.5 -39 -49.5 -39
c-19.5 0 -41.5 8 -51 24.5c0 63.5 107.5 132 202.5 132z" />
    <glyph glyph-name="q.ordn" 
d="M263.5 443.5c72 0 83 -14.5 120.5 -14.5c15 0 37.9639 13.5 44.5 13.5c3.5 0 27.5 -10.5 27.5 -17c0 -6 -12.5 -47.5 -12.5 -125.5v-383c0 -33.5 0.5 -57 7.5 -84c3 -11 53.5 -22.5 61.5 -22.5c5 0 4.5 -27 2.5 -33c-40.5 2 -83.5 6.5 -122 6.5
c-41.5 0 -81.5 -4.5 -123 -6.5c-5 5 -5 33 0 33c12 0 60 11.5 63 22.5c6 25.5 7 62.5 7 73v106c0 5.5 -0.350586 15.3096 -6.5 11.5c-17.5498 -10.5244 -50.5 -29.5 -93.5 -29.5c-113 0 -209 96.5 -209 214c0 125.5 105.5 235.5 232.5 235.5zM251.5 395.5
c-83.5 0 -105.5 -93 -105.5 -160.5c0 -104.5 41.5 -185 121.5 -185c30 0 72.5 18 72.5 60.5v209c0 33 -20 76 -88.5 76z" />
    <glyph glyph-name="r.ordn" 
d="M320.5 442c38.5 0 66 -14 82 -33c0 -57.5 -16 -84.5 -48 -84.5c-39 0 -38.5 40 -83 40s-66 -59 -66 -97.5v-125.5c0 -33 0.5 -62.5 7.5 -89.5c3 -11 52 -22.5 60 -22.5c5 0 4.5 -27 2.5 -33c-40.5 2 -82 6.5 -120.5 6.5c-41.5 0 -81.5 -4.5 -123 -6.5c-5 5 -5 33 0 33
c12 0 60 11.5 63 22.5c6 25.5 7 62.5 7 73v163c0 9 -1.5 49 -16 64.5c-19 22.5 -56.5 18 -56.5 23c0 2 0.5 29.5 5.5 30c35.5 3.5 106.5 18.5 160.5 31c0.5 0 7 2 8 2c7 0 10.5 -14 10 -19c-1.5 -10.5 -4.5 -38.5 -5.5 -47c20.5 29.5 64.5 69.5 112.5 69.5z" />
    <glyph glyph-name="s.ordn" 
d="M190 443c43 0 76 -5.5 116 -16.5c7 -31.5 10.5 -76.5 11 -113c0 -4 -6 -7 -13 -7c-10.5 0 -23 2.5 -24 7.5c-8 39.5 -34 84 -90.5 84c-38 0 -61 -18.5 -61 -50c0 -43 39.5 -60.5 84 -84.5c46.5 -25 125.5 -61 125.5 -138c0 -87 -77.5 -136 -166.5 -136
c-45 0 -93 13.5 -128.5 28.5c-6 22 -14.5 87 -14.5 113c4 3 8.5 4.5 13.5 4.5c7 0 23.5 -0.5 24.5 -7.5c10.5 -59 60.5 -93 107 -93c35.5 0 64.5 18 64.5 55c0 48.5 -49 67.5 -111.5 101c-57 29.5 -96 65 -96 125.5c0 87 83 126.5 159.5 126.5z" />
    <glyph glyph-name="t.ordn" 
d="M85 372h-61.5c-4.5 0 -6.5 18 -6.5 26c0 4 0 7 1.5 9c16 7.5 50.5 29 76.5 53.5c29 27.5 62 68 65.5 71.5c11 0 28 -3.5 28 -8v-98.5c44 0 107.5 -0.5 121.5 -0.5c5 0 8 -3.5 8 -9.5c0 -9 -3 -29.5 -10 -43.5h-119.5v-241c0 -53 23.5 -82 64 -82c28.5 0 54 15.5 58.5 17
c5.5 1.5 14 -19.5 13.5 -22.5c-7.5 -15 -63.5 -50.5 -114 -50.5c-62 0 -125.5 37.5 -125.5 136.5v242.5z" />
    <glyph glyph-name="u.ordn" 
d="M464 334v-198c0 -18 1 -50.5 8.5 -69.5c8 -15.5 50.5 -13 53.5 -14c2 -1 3.5 -6.5 3.5 -9.5c0 -2 -2 -22.5 -7 -22.5c-52.5 -3 -154.5 -27 -155.5 -27c-5 0 -7 10 -7 17v44c0 5 -2.02148 5.52148 -3 4.5c-25.5 -27 -80 -64.5 -140 -64.5c-94 0 -127.5 100 -127.5 182
v111.5c0 9 -1.5 49 -16 64.5c-19 22.5 -56.5 18 -56.5 23c0 2 0.5 29.5 5.5 30c35.5 3.5 123.5 19.5 160.5 31c1 0 7 2 8 2c7 0 10.5 -14 10 -19c-4 -32 -8.5 -53 -8.5 -87v-121c0 -103.5 27 -145.5 92.5 -145.5c47 0 76 36.5 76 57v165c0 9 -1.5 49 -16 64.5
c-19 22.5 -56.5 18 -56.5 23c0 2 0.5 29.5 5.5 30c35.5 3.5 123.5 19.5 160.5 31c1 0 7 2 8 2c7 0 10.5 -14 10 -19c-4 -32 -8.5 -52 -8.5 -85.5z" />
    <glyph glyph-name="v.ordn" 
d="M395.5 379c-9.5 19.5 -37 26.5 -69 26.5c-5 0 -4 27.5 -0.5 33c41 -2 65.5 -6.5 105.5 -6.5s66.5 4.5 107.5 6.5c1.5 -2.5 3 -10 3 -16c0 -7.5 -2 -17 -5.5 -17c-10 0 -60 -8.5 -73.5 -37l-167.5 -353.5c-3.5 -8 -18 -26 -29.5 -26c-5.5 0 -11.5 4 -12.5 6
c-67.5 153 -99 230.5 -170.5 383c-11.5 25.5 -54.5 27.5 -64.5 27.5c-2.5 0 -4 9 -4 16.5c0 6.5 1.5 13.5 4 16.5c41 -2 80.5 -6.5 120.5 -6.5s80.5 4.5 121.5 6.5c3.5 -5.5 3 -33 -2 -33c-9.5 0 -58.5 -6 -58.5 -22c0 -3.5 1 -8.5 1.5 -9.5l99.5 -229.5l90 198
c5.5 12 10.5 27 4.5 36.5z" />
    <glyph glyph-name="O.ssup" 
d="M330 618c-123 0 -177 -134 -177 -268c0 -140 62 -310 208 -310c121 0 178 134 178 269c0 144 -59 309 -209 309zM25 328c0 187 144 339 320 339s321 -152 321 -339s-145 -338 -321 -338s-320 151 -320 338z" />
    <glyph glyph-name="daggerdbl.ssup" 
d="M213 264c0 -5 3 -10 8 -10h9c38 0 65 4 106 6c-1 -9 -2 -24 -2 -33c0 -11 1 -28 2 -39c-41 2 -68 5 -106 5h-9c-4 0 -8 -4 -8 -8c0 -78 5 -116 9 -194c-12 2 -29 4 -40 4s-27 -2 -39 -4c4 78 9 116 9 194c0 4 -4 8 -8 8h-10c-38 0 -64 -3 -105 -5c1 11 2 28 2 39
c0 9 -1 24 -2 33c41 -2 67 -6 105 -6h10c5 0 8 5 8 10v92c0 5 -3 10 -8 10h-10c-38 0 -64 -4 -105 -6c1 9 2 24 2 33c0 11 -1 28 -2 39c41 -2 67 -5 105 -5h10c4 0 8 4 8 8c0 78 -5 116 -9 194c12 -2 28 -4 39 -4s28 2 40 4c-4 -78 -9 -116 -9 -194c0 -4 4 -8 8 -8h9
c38 0 65 3 106 5c-1 -11 -2 -28 -2 -39c0 -9 1 -24 2 -33c-41 2 -68 6 -106 6h-9c-5 0 -8 -5 -8 -10v-92z" />
  </font>
</defs>
</svg>
